<?xml version="1.0" encoding="utf-8"?>
<!-- Generator: Adobe Illustrator 25.4.1, SVG Export Plug-In . SVG Version: 6.00 Build 0)  -->
<svg version="1.1" id="Icon" xmlns="http://www.w3.org/2000/svg" xmlns:xlink="http://www.w3.org/1999/xlink" x="0px" y="0px"
	 viewBox="0 0 140 140" style="enable-background:new 0 0 140 140;" xml:space="preserve">
<style type="text/css">
	.st0{fill:#503291;}
</style>
<path class="st0" d="M56.1,72.7c-9.8,0-17.7,7.9-17.7,17.7s7.9,17.7,17.7,17.7c9.8,0,17.7-7.9,17.7-17.7
	C73.8,80.7,65.9,72.7,56.1,72.7z"/>
<path class="st0" d="M50.3,65.1c0.1,0.3,0.5,0.5,0.8,0.5l1.7-0.2c0.3-0.1,0.6-0.3,0.6-0.7C53.5,64.1,54,53,54,53
	c0-0.7-0.6-0.9-1.1-0.5l-5.1,3.3c-0.9,0.4-1.3,1.5-0.8,2.4c0,0,0,0.1,0,0.1C47.4,59.4,49.5,63.6,50.3,65.1z"/>
<path class="st0" d="M140,70c0-38.7-31.4-70-70-70S0,31.4,0,70s31.4,70,70,70c9.8,0,19.5-2.1,28.4-6l2.2-1
	c8.4-4.1,11.8-14.2,7.7-22.5c-0.8-1.6-1.8-3.1-3.1-4.4c-0.4-0.4-2.3-2.2-2.5-2.4c-3.6-4-10.9-12.1-10.9-12.1
	c-1.3-1.6-3.2-2.5-5.2-2.5c-1.7,0-3.2,0-4.2,0c-0.8,0-0.9,0.8-0.9,1.2c0,14-11.3,25.4-25.4,25.4c-14,0-25.4-11.3-25.4-25.4
	c0-8.4,4.1-16.3,11-21c0.6-0.4,0.9-0.6,1.3-0.9c0.5-0.3,0.6-0.8,0.4-1.3l-3-6.4c-2.6-5.6,0.9-9.6,4.5-11.8l11-6.9
	c5.9-3.3,10-2.2,11.3-1.7c5.1,2.1,5.4,7.7,4.7,13.5c0,0-2,13.7-2,14.3c-0.1,0.3,0,0.7,0.2,0.9l0.3,0.2c2.6,1.8,4.9,4.1,6.6,6.8
	c0.2,0.4,0.6,0.7,1.1,0.7c2.4,0.5,10.4,1.9,12.3,2.2c2.2,0.4,4.2,1.7,5.5,3.6c2.3,3.2,5.9,8.4,8,11.3l0.4,0.6c0.7,1,2.9,3.3,4.4,4.9
	c0.8,0.8,2.7,2.7,3.3,3.2c6.3,5,15.5,3.9,20.5-2.4c1.1-1.4,1.9-2.9,2.4-4.6c0.1-0.3,0.5-1.6,0.6-1.9C138.6,86.2,140,78.1,140,70z
	 M68.1,34.5c-4,0-7.3-3.3-7.3-7.3s3.3-7.3,7.3-7.3c4,0,7.3,3.3,7.3,7.3C75.3,31.2,72.1,34.5,68.1,34.5z"/>
</svg>
