<?xml version="1.0" encoding="utf-8"?>
<!-- Generator: Adobe Illustrator 25.4.1, SVG Export Plug-In . SVG Version: 6.00 Build 0)  -->
<svg version="1.1" id="Icon" xmlns="http://www.w3.org/2000/svg" xmlns:xlink="http://www.w3.org/1999/xlink" x="0px" y="0px"
	 viewBox="0 0 140.2 140.2" style="enable-background:new 0 0 140.2 140.2;" xml:space="preserve">
<style type="text/css">
	.st0{fill:#503291;}
</style>
<path class="st0" d="M70.1,0.1c-38.7,0-70,31.3-70,70c0,38.7,31.3,70,70,70c7.5,0,14.9-1.2,22-3.5c0.5-0.2,2.5-0.9,3-1
	c8.3-3.4,12.2-12.8,8.9-21c-0.9-2.1-2.2-4.1-3.9-5.7c-0.6-0.6-3.7-3.3-3.7-3.3L83.2,92.3c-0.8-0.8-0.8-2,0-2.8
	c0.1-0.1,0.1-0.1,0.2-0.2c2.3-1.8,4.4-3.8,6.3-6c0.7-0.8,2-0.9,2.8-0.1c0,0,0.1,0,0.1,0.1l14.8,14.8c0,0,1.9,2,2.3,2.4
	c5.7,6.2,15.4,6.7,21.6,0.9c1.8-1.6,3.2-3.7,4-5.9c0.1-0.3,0.7-1.7,0.8-2.1c12.9-36.5-6.3-76.4-42.7-89.3C85.9,1.5,78,0.1,70.1,0.1
	L70.1,0.1z M60,92.2c-18.7,0-33.8-15.1-33.8-33.8S41.3,24.6,60,24.6s33.8,15.1,33.8,33.8c0,0,0,0,0,0C93.8,77.1,78.6,92.2,60,92.2z
	 M108.1,39.4c-2.1,2-3.9,2.4-5.5,2.1c-0.7-0.1-1.5,0.1-2,0.6L97,45.9c-0.7-2-1.5-3.9-2.5-5.7l1.7-1.8c0.5-0.5,0.7-1.3,0.6-2
	c-0.8-3.6,1.5-7.2,5.1-8c3.6-0.8,7.2,1.5,8,5.1c0.1,0.5,0.2,0.9,0.2,1.4C110.1,36.6,109.4,38.2,108.1,39.4z"/>
<path class="st0" d="M60.4,33.5c-13.5,0-24.5,11-24.5,24.5s11,24.5,24.5,24.5s24.5-11,24.5-24.5l0,0C84.9,44.5,73.9,33.5,60.4,33.5z
	 M77,67.6c-0.9-0.3-1.7-0.8-2.5-1.4c-2.3-2.2-2.7-4-2.6-5.5c0.1-0.7-0.2-1.4-0.7-1.9l-6.5-6.2c-0.5-0.5-1.3-0.7-2-0.5
	c-0.4,0.1-0.9,0.1-1.3,0.1c-0.4,0-0.8-0.1-1.2-0.2c-0.7-0.1-1.4,0.1-1.9,0.6L53,58.1c-0.5,0.5-0.7,1.3-0.6,2c0.3,1.6-0.1,3.2-1,4.5
	c-1.1,1.8-3,3-5.1,3.2c-3.7,0.3-6.9-2.5-7.2-6.1c0-0.4,0-0.7,0-1.1c0.2-2.1,1.4-4,3.2-5.1c1.3-0.9,2.9-1.3,4.5-1
	c0.7,0.2,1.5-0.1,2-0.6l5.4-5.4c0.5-0.5,0.7-1.2,0.6-1.9c-0.1-0.4-0.1-0.8-0.1-1.2c-0.1-3.6,2.8-6.6,6.4-6.7
	c2.1-0.1,4.2,0.9,5.4,2.7c1.3,1.3,1.8,3.2,1.5,5c-0.1,0.7,0.1,1.5,0.6,2l6.2,5.8c0.6,0.5,1.4,0.7,2.1,0.5c0.5-0.1,1.1-0.2,1.7-0.2
	c0.2,0,0.4,0,0.6,0c0.2,1.2,0.3,2.4,0.3,3.6C79.6,61.4,78.7,64.6,77,67.6z"/>
</svg>
