<svg id="Icon" xmlns="http://www.w3.org/2000/svg" viewBox="0 0 140 140"><defs><style>.cls-1{fill:#503291;}</style></defs><circle class="cls-1" cx="69.9" cy="34.67" r="6"/><path class="cls-1" d="M89.2,2.33a12,12,0,0,0-2-.18A12.48,12.48,0,0,0,78.92,24a14,14,0,0,1-4,23.73v10h3.3c3.3,0,6,2.25,6,5,0,.12,0,.25,0,.38h0v1.62a2,2,0,0,1-2,2H74.9v42.49c12-2.06,22-11.5,26.48-24.27l.21-.22-2.71-1.49c-1.49-.83-1.45-2.1.09-2.84l11.69-5.59a2.08,2.08,0,0,1,3.15,1.74l1.49,12.88c.2,1.69-.86,2.4-2.35,1.58l-2.62-1.45C103.56,107.26,88,119.64,70,119.64s-33.54-12.34-40.32-30L27.17,91c-1.49.82-2.55.11-2.36-1.58L26.3,76.55a2.08,2.08,0,0,1,3.15-1.74l11.7,5.59c1.53.74,1.57,2,.08,2.84l-2.73,1.5C43,97.56,52.91,107.07,64.9,109.19V66.73H56.55a2,2,0,0,1-2-2V63.11h0c0-.13,0-.26,0-.38,0-2.75,2.7-5,6-5H64.9v-10a14,14,0,0,1-3.8-23.91A12.47,12.47,0,0,0,52.54,2.25a11.88,11.88,0,0,0-1.9.16A70,70,0,1,0,89.2,2.33Z"/></svg>