<svg id="Icon" xmlns="http://www.w3.org/2000/svg" viewBox="0 0 140 140"><defs><style>.cls-1{fill:#503291;}</style></defs><path class="cls-1" d="M53.77,46.3A2.81,2.81,0,1,0,51,49.11,2.79,2.79,0,0,0,53.77,46.3Z"/><path class="cls-1" d="M46.28,46.3a2.81,2.81,0,1,0-2.8,2.81A2.78,2.78,0,0,0,46.28,46.3Z"/><path class="cls-1" d="M36,43.5a2.81,2.81,0,1,1-2.81,2.8A2.79,2.79,0,0,1,36,43.5Z"/><path class="cls-1" d="M85.44,81.35a.86.86,0,0,0,.69-.73s.07-.71.07-1.39-.08-1.52-.08-1.52a.86.86,0,0,0-.69-.73l-1.76-.28A13.86,13.86,0,0,0,82.46,73l1.25-1.26a.85.85,0,0,0,.12-1s-.36-.61-.76-1.17-1-1.17-1-1.17a.87.87,0,0,0-1-.18L79.54,69a14,14,0,0,0-3-2.17l.29-1.8a.87.87,0,0,0-.48-.89s-.72-.32-1.41-.55-1.35-.36-1.35-.36a.87.87,0,0,0-.91.43l-.83,1.64h0A14,14,0,0,0,70,65.21a14.75,14.75,0,0,0-1.89.13v0l-.83-1.64a.87.87,0,0,0-.91-.44s-.69.15-1.34.36-1.42.55-1.42.55a.88.88,0,0,0-.49.88l.29,1.81s0,0,0,0a13.85,13.85,0,0,0-3.1,2.26l0,0-1.64-.84a.87.87,0,0,0-1,.19s-.47.53-.87,1.09S56,70.82,56,70.82a.88.88,0,0,0,.14,1l1.3,1.28s0,0,0,0a13.83,13.83,0,0,0-1.14,3.54h-.07l-1.81.28a.86.86,0,0,0-.69.73s-.08.78-.08,1.51.06,1.4.06,1.4a.88.88,0,0,0,.69.73l1.82.29h.08a13.64,13.64,0,0,0,1.19,3.64l-.08,0L56.1,86.57a.89.89,0,0,0-.12,1s.4.68.83,1.26.88,1.09.88,1.09a.87.87,0,0,0,1,.18l1.64-.85.06-.05a14.22,14.22,0,0,0,3,2.17,0,0,0,0,0,0,0l-.29,1.82a.86.86,0,0,0,.48.88s.65.28,1.3.5,1.47.39,1.47.39a.88.88,0,0,0,.91-.43l.83-1.63v0a14.9,14.9,0,0,0,1.9.14,14,14,0,0,0,1.85-.13h0l.83,1.63a.85.85,0,0,0,.9.44A14.83,14.83,0,0,0,75,94.61c.66-.21,1.31-.49,1.31-.49a.86.86,0,0,0,.48-.88l-.29-1.82a13.91,13.91,0,0,0,3.11-2.26l1.63.83a.87.87,0,0,0,1-.18s.53-.59,1-1.18.76-1.17.76-1.17a.88.88,0,0,0-.14-1l-1.3-1.29a13.47,13.47,0,0,0,1.15-3.54Zm-8.82,0a7,7,0,1,1-4.5-8.84A7,7,0,0,1,76.62,81.3Z"/><path class="cls-1" d="M69.91-.08A69.94,69.94,0,0,0,2.87,90c.35,1.15,1.64,5.63,2.1,6.64A12.5,12.5,0,0,0,28.74,93a26.19,26.19,0,0,0,0-3.07V58h82.38V98.68a2.16,2.16,0,0,1-2.15,2.15H43.48v.07a30.94,30.94,0,0,0-3.17,0,15.81,15.81,0,0,0-5.87,29.54c.7.39,7.36,3.56,8.78,4.15A70,70,0,1,0,69.91-.08ZM111.11,53H28.73V42.83a2.16,2.16,0,0,1,2.16-2.16H109a2.16,2.16,0,0,1,2.15,2.16Z"/></svg>