<svg id="Icon" xmlns="http://www.w3.org/2000/svg" viewBox="0 0 140 140"><defs><style>.cls-1{fill:#503291;}</style></defs><path class="cls-1" d="M70.21-.2a70,70,0,0,0,0,140c2,0,3.93-.09,5.87-.25,1-.09,4.85-.42,5.69-.59a13.54,13.54,0,0,0-1.71-26.79c-.29,0-1.67,0-1.67,0-1.66,0-2.81,0-2.93-.08-12.76.06-25.47-2.11-36.31-8.79C23,89.2,26.88,61.88,44.33,52.74c10.49-8.4,18.77-14.3,21.09-27.88A7.9,7.9,0,0,1,73.84,20c13,.7,3.37,23.34-.19,30.44h27.62c6.67-.12,9.1,9.94,3.21,11.94-1.74.59-7.49.21-8.91.29a2.21,2.21,0,0,0-2,2c0,1,.79,2,1.46,2.05,2.13.1,3-.06,4.26-.06,3.42-.07,5.61,3.26,5.73,6.49,0,4.1-3.6,6.76-7.5,6.53h-3a2,2,0,0,0,0,4H97c7.28-1,8.85,12.84-.26,12.89-2.32,0-1.2.08-3.49,0-2.6,0-2.51,4,0,4,0,0,3.65-.49,5.25,2.33a5.72,5.72,0,0,1,.49,5.91c-.13.28-.89,1.31-1.08,1.57a10.74,10.74,0,0,0,15.66,14.55c.24-.22.69-.67.69-.67l.65-.53A70,70,0,0,0,70.21-.2Z"/></svg>