<svg id="Icon" xmlns="http://www.w3.org/2000/svg" viewBox="0 0 140 140"><defs><style>.cls-1{fill:#503291;}</style></defs><path class="cls-1" d="M70.05.11A70,70,0,0,0,4.25,94c2.11,6.67,6.94,15.1,15.47,14.57A14.22,14.22,0,0,0,33.93,94.73h0v-15a5.42,5.42,0,0,1,5.41-5.42H59.83a5.42,5.42,0,0,1,5.42,5.42v20.49a5.42,5.42,0,0,1-5.42,5.41H46.28s-2.67.09-3.14.13A14.24,14.24,0,0,0,30.35,120c-.32,8.26,7,13.07,13.75,15.16A70,70,0,1,0,70.05.11Zm-4.8,59.66a5.42,5.42,0,0,1-5.42,5.41H39.34a5.42,5.42,0,0,1-5.41-5.41V39.28a5.42,5.42,0,0,1,5.41-5.42H59.83a5.42,5.42,0,0,1,5.42,5.42Zm36.61,34.39H96.49a2,2,0,0,0-2,2v5.37a4.07,4.07,0,0,1-4.47,4,4.19,4.19,0,0,1-3.66-4.23V96.16a2,2,0,0,0-2-2H79.17a4.19,4.19,0,0,1-4.23-3.66A4.07,4.07,0,0,1,79,86h5.37a2,2,0,0,0,2-2V78.84A4.19,4.19,0,0,1,90,74.61a4.07,4.07,0,0,1,4.47,4V84a2,2,0,0,0,2,2h5.19a4.19,4.19,0,0,1,4.23,3.66A4.07,4.07,0,0,1,101.86,94.16Zm4.24-34.39a5.42,5.42,0,0,1-5.41,5.41H80.19a5.42,5.42,0,0,1-5.41-5.41V39.28a5.42,5.42,0,0,1,5.41-5.42h20.5a5.42,5.42,0,0,1,5.41,5.42Z"/></svg>