<svg id="Icon" xmlns="http://www.w3.org/2000/svg" viewBox="0 0 140 140"><defs><style>.cls-1{fill:#503291;}</style></defs><path class="cls-1" d="M3.52,86.88a12.66,12.66,0,0,1,9.07-9.27c1-.27,8.05-.28,8.05-.28h9.08v0H86.11L63.42,95.84c-.73.6-.88,1.22-.33,1.9l2.8,3.3a7.85,7.85,0,0,0,11.86,1.07l28.71-23.48c2.82-2.31,3.72-4.73,3.79-8.79A10.19,10.19,0,0,0,106.46,61c-1.61-1.44-28.71-23.44-28.71-23.44a7.85,7.85,0,0,0-11.86,1.07l-2.8,3.3c-.55.67-.4,1.3.33,1.9L86.11,62.37H29.72v0H18.12S12.83,62,12,61.77A12.6,12.6,0,0,1,3.77,45.94c.27-.85,1.8-4.2,2.19-5.08A70,70,0,0,1,60.73.27,72.22,72.22,0,0,1,110.2,13,69.66,69.66,0,0,1,140,69.8h0v.08A69.68,69.68,0,0,1,110.2,126.7,71.86,71.86,0,0,1,82,138.58,69.81,69.81,0,0,1,6.2,99C6,98.46,4.76,95.41,4,92.91A19.42,19.42,0,0,1,3.52,86.88Z"/></svg>