<svg id="Icon" xmlns="http://www.w3.org/2000/svg" viewBox="0 0 140 140"><defs><style>.cls-1{fill:#503291;}</style></defs><path class="cls-1" d="M87.12,3.69a12.61,12.61,0,0,0-9.27,9.07c-.27,1-.28,8-.28,8v9.08h0V86.27L96.07,63.59c.61-.74,1.23-.89,1.91-.33l3.3,2.79a7.85,7.85,0,0,1,1.07,11.86L78.87,106.62c-2.31,2.82-4.73,3.72-8.79,3.79-3.72.06-6.19-.81-8.84-3.79C59.81,105,37.8,77.91,37.8,77.91a7.85,7.85,0,0,1,1.07-11.86l3.3-2.79c.68-.56,1.3-.41,1.91.33L62.6,86.27V29.89h0V18.28S62.27,13,62,12.16A12.59,12.59,0,0,0,46.18,3.93c-.85.27-4.2,1.8-5.08,2.19A70.06,70.06,0,0,0,.51,60.9a72.15,72.15,0,0,0,12.71,49.46A69.65,69.65,0,0,0,70,140.18h.07a69.65,69.65,0,0,0,56.82-29.82,71.88,71.88,0,0,0,11.89-28.22A69.88,69.88,0,0,0,99.24,6.36c-.54-.25-3.59-1.44-6.09-2.25A19.11,19.11,0,0,0,87.12,3.69Z"/></svg>