<svg id="Icon" xmlns="http://www.w3.org/2000/svg" viewBox="0 0 140 140"><defs><style>.cls-1{fill:#503291;}</style></defs><path class="cls-1" d="M136.37,86.88a12.62,12.62,0,0,0-9.07-9.27c-1-.27-8-.28-8-.28h-9.08v0H53.79L76.47,95.84c.74.6.89,1.22.33,1.9L74,101a7.83,7.83,0,0,1-11.85,1.07L33.44,78.63c-2.82-2.31-3.73-4.73-3.79-8.79-.06-3.72.81-6.19,3.79-8.83,1.61-1.44,28.71-23.44,28.71-23.44A7.83,7.83,0,0,1,74,38.64l2.8,3.3c.56.67.41,1.3-.33,1.9L53.79,62.37h56.38v0h11.6s5.29-.32,6.12-.58a12.6,12.6,0,0,0,8.23-15.83c-.27-.85-1.8-4.2-2.2-5.08A70,70,0,0,0,79.16.27,72.21,72.21,0,0,0,29.7,13,69.66,69.66,0,0,0-.12,69.8h0v.08A69.68,69.68,0,0,0,29.7,126.7a71.88,71.88,0,0,0,28.21,11.88A69.82,69.82,0,0,0,133.7,99c.25-.55,1.44-3.6,2.25-6.1A19.09,19.09,0,0,0,136.37,86.88Z"/></svg>