<svg id="Icon" xmlns="http://www.w3.org/2000/svg" viewBox="0 0 140 140"><defs><style>.cls-1{fill:#503291;}</style></defs><path class="cls-1" d="M52.87,136.44a12.65,12.65,0,0,0,9.28-9.07c.26-1,.28-8.05.28-8.05v-9.08h0V53.85L43.92,76.53c-.6.74-1.22.89-1.9.33l-3.3-2.79a7.85,7.85,0,0,1-1.07-11.86L61.12,33.5c2.32-2.82,4.74-3.72,8.8-3.79a10.19,10.19,0,0,1,8.83,3.79c1.44,1.61,23.44,28.71,23.44,28.71a7.85,7.85,0,0,1-1.07,11.86l-3.3,2.79c-.67.56-1.3.41-1.9-.33L77.39,53.85v56.39h0v11.6s.32,5.29.58,6.13a12.6,12.6,0,0,0,15.83,8.22c.85-.27,4.2-1.8,5.07-2.19a70,70,0,0,0,40.59-54.77,72.16,72.16,0,0,0-12.7-49.47A69.66,69.66,0,0,0,70-.06h-.08A69.66,69.66,0,0,0,13.06,29.76,72,72,0,0,0,1.17,58a69.88,69.88,0,0,0,39.58,75.78c.55.25,3.6,1.44,6.1,2.25A19.38,19.38,0,0,0,52.87,136.44Z"/></svg>