<svg id="Icon" xmlns="http://www.w3.org/2000/svg" viewBox="0 0 140 140"><defs><style>.cls-1{fill:#503291;}</style></defs><path class="cls-1" d="M70,0A70,70,0,0,0,10.84,107.39l.43.72a13.79,13.79,0,0,0,.91,1.34c2.85,3.66,6,9.68,11.55,9.25a10.5,10.5,0,0,0,10.5-10.5c-.09-1.69-.25-3.6-1.46-4.84-1.43-1.6-2.81-3.51-4.07-5.09-6.62-8.22-4.8-16.94-4.94-24,0-10.75,2.57-16,10.66-18.19,8.46-2.27,13.36,6.55,16.12,10.38,1.08,1.49,2.59,3.59,4.68,2.64,3.15-1.44,8.61-4.32,10.82-5.14,4.92-1.83,7.84,4.37,4,7.52a76.89,76.89,0,0,1-13.26,8c-3.19,1.5-6.29-.32-8-1.32s-3.41-.88-3.72,1.72c-.17,1.39-1,21.82-1.25,29.84-.06,1.66-.41,5.46-.41,6.68,0,12,9.45,21.85,21.61,23.29.61.08,2.82.27,3.28.28L70,140A70,70,0,0,0,70,0Zm33.51,78.67A6.94,6.94,0,1,1,96,85,6.92,6.92,0,0,1,103.51,78.67Zm-66-29.24a8,8,0,1,1,8-8A8,8,0,0,1,37.47,49.43ZM64.3,59.25c-1.56.58-4.06,1.82-6.72,3.13L56.31,63a2,2,0,0,1-2.53-.66l-.06-.09A34.81,34.81,0,0,0,46.46,54a2,2,0,0,1-.19-3l0,0c.3-.28.59-.57.87-.88l.06-.07c.26-.3.5-.6.73-.91l.1-.14a9.69,9.69,0,0,0,.6-.92l.12-.2a9.76,9.76,0,0,0,.47-.91,2.39,2.39,0,0,0,.13-.28q.2-.43.36-.9l.12-.34c.1-.3.17-.6.25-.9,0-.13.07-.26.1-.39q.09-.46.15-1c0-.12,0-.25.06-.37a12.44,12.44,0,0,0,.07-1.37q0-.66-.06-1.29A13,13,0,0,0,38,28.41a.5.5,0,0,1-.48-.53c.11-1.07,1.33-1.33,2.4-1.43.2,0,1.14,0,1.14,0H96.79a5.94,5.94,0,0,1,4.62,2.19,6,6,0,0,1,1.38,3.81V62a6,6,0,0,1-6,6H78.65a2,2,0,0,1-2-1.66,9.61,9.61,0,0,0-1.15-3.24A9.08,9.08,0,0,0,64.3,59.25ZM65.71,85a6.94,6.94,0,1,1,6.3,7.5A7,7,0,0,1,65.71,85ZM85.12,115.6a3,3,0,0,1-2.23,2.71l-1,.26-.13,0c-.88.22-1.78.4-2.68.57l-.37.07c-.84.14-1.68.27-2.53.38l-.22,0c-.88.1-1.76.18-2.65.23l-.59,0c-.9,0-1.8.08-2.71.08-.75,0-1.49,0-2.22,0l-.47,0c-.68,0-1.36-.08-2-.15h-.13c-.75-.07-1.5-.16-2.24-.27a3,3,0,0,1-2.57-2.76,69.84,69.84,0,0,1-.23-9.1c1.14-12.85,25.89-12.49,25.3,2.18C85.33,111.9,85.23,113.82,85.12,115.6Zm6.26-.53c-1.09.12-.94-1.4-1-1.74a43.58,43.58,0,0,1,0-5.7c.73-8.23,11.14-11,18.38-8.13a1,1,0,0,1,.41,1.56A50.23,50.23,0,0,1,92.36,114.7,3.26,3.26,0,0,1,91.38,115.07Z"/></svg>