<svg id="Icon" xmlns="http://www.w3.org/2000/svg" viewBox="0 0 140 140"><defs><style>.cls-1{fill:#503291;}</style></defs><path class="cls-1" d="M92.85,83.41c-3.89-2.7-8.3-5.5-13.07-8.39a1.67,1.67,0,0,1-.4-2.23,21.09,21.09,0,0,0,1.2-16.73,2.63,2.63,0,0,1,0-1.65c.73-1.37,2.93-4.13,8.92-4.15,8,0,13.89,6,13.91,14.59,0,8.18-2.64,14-7.43,18.49A2.31,2.31,0,0,1,92.85,83.41Z"/><path class="cls-1" d="M47.68,83.49c3.77-2.64,8-5.38,12.62-8.22A2.07,2.07,0,0,0,61,72.84a21.24,21.24,0,0,1-1.47-16.19,4,4,0,0,0,.13-2.29c-.79-1.4-3.06-4-8.88-4-7.95,0-13.84,6.13-13.81,14.69,0,8.08,2.66,13.81,7.38,18.27A2.59,2.59,0,0,0,47.68,83.49Z"/><path class="cls-1" d="M41.4,133.88c.31.16.64.28,1,.42A70,70,0,1,0,5.5,97.16c.1.25.3.67.41.93,7.76,18.47,33,5.92,23-9.54l-.42-.65c-4.58-7.33-6.54-15-6.56-20.35C21.83,51.24,36,37.33,50.55,37.28c8.67,0,13.4,3,18.51,7.17a2.46,2.46,0,0,0,1.93.11c5.15-4.29,9.86-7.38,18.61-7.4,14.55,0,28.81,13.78,28.86,30.08,0,6.78-3.06,17.36-10.71,26.21a3.61,3.61,0,0,0-.26,2.71c.74,1.13,1.4,2.3,1.4,2.3a5,5,0,0,1-6.3,6.76,19.48,19.48,0,0,1-3.66-2.11,4.12,4.12,0,0,0-2.58-.24c-6.78,3.9-15.37,6.45-26,6.48a57.24,57.24,0,0,1-15.82-2l-2-.6C32.26,100.29,25.29,125.54,41.4,133.88Z"/><path class="cls-1" d="M70.09,93.44A32.69,32.69,0,0,1,59.92,92a1.4,1.4,0,0,1-.24-2.28c4-2.55,9.9-6.13,10.7-6.13s6.24,3.46,10.21,5.92A1.53,1.53,0,0,1,80.37,92a32.1,32.1,0,0,1-10,1.4Z"/></svg>