<svg id="Icon" xmlns="http://www.w3.org/2000/svg" viewBox="0 0 140 140"><defs><style>.cls-1{fill:#503291;}</style></defs><path class="cls-1" d="M62.64,52.8a2.61,2.61,0,0,1,2.43-2H77A1.11,1.11,0,0,1,78,52.61L67.71,71.93a1.1,1.1,0,0,0,1.06,1.76h6.74a1.12,1.12,0,0,1,1.08,1.77L64.17,99.35c-.5,1-.82.88-.7-.22l2-18.17a1.75,1.75,0,0,0-1.78-2H59a1.55,1.55,0,0,1-1.58-2Z"/><path class="cls-1" d="M70.36,0A70,70,0,0,0,12.89,110.46l.82,1.13c.15.2,1.25,1.55,1.55,2,3,4.24,7.14,6.84,12.46,6.84A15.3,15.3,0,0,0,43,105.84c0-.24,0-2.21,0-2.21q0-33.24.05-66.46A6,6,0,0,1,48.19,32c2.24-.14,4.52-.1,6.78-.1a3,3,0,0,0,3-3V26.88a3,3,0,0,1,3-3H75.33a3,3,0,0,1,3,3v2.05a3,3,0,0,0,3,3L88,32a6.24,6.24,0,0,1,5.35,5.2c0,23.91,0,45.72,0,69.62,0,3.21-2.8,6-5.52,6H60.31s-3.64.11-3.89.13a12.76,12.76,0,0,0-3,24.94c.24.08,1.37.42,1.7.49A70,70,0,1,0,70.36,0Z"/></svg>