<svg id="Icon" xmlns="http://www.w3.org/2000/svg" viewBox="0 0 140 140"><defs><style>.cls-1{fill:#503291;}</style></defs><path class="cls-1" d="M69.91-.08A70,70,0,0,0,15.37,113.79c.26.32,1.27,1.44,1.49,1.69a11.71,11.71,0,0,0,20.49-7.77c0-.82-.4-3.84-.49-4.63-1.46-13.5-4.1-37.92-4.21-38.91C31.48,53.4,40.9,44,40.52,40.53c-.78-7.26-1.39-12.85-1.52-14.06-.36-3.33,1.2-4.73,5.42-5.18s6,.57,6.4,3.89c.13,1.22.74,6.81,1.52,14.07.38,3.48,11.59,10.64,12.76,21.4.25,2.34,4.9,45.2,5.15,47.54.71,6.58-4.48,8.09-4.48,8.09l-10.93,1.19s-11.77,1.15-12.15,1.25A8,8,0,0,0,41,133.55c.3.16,1.53.8,1.85.94A70,70,0,1,0,69.91-.08Zm32.88,69.19c-1.21,8.73-4.25,30.63-4.66,33.61A5.13,5.13,0,0,1,92,107.08l-4-.56-6.59-.91a5.22,5.22,0,0,1-4.78-5.88c.24-1.74,3.87-27.92,4.66-33.6,1.21-8.72,7.64-13.62,8.08-16.83,1-7,3.61-19.86,3.78-21l-.29,0a.5.5,0,0,1-.42-.56l.12-.9a1,1,0,0,1,1.13-.85l7.92,1.1a1,1,0,0,1,.86,1.13l-.13.89a.51.51,0,0,1-.56.43l-.09,0c-.16,1.16-1.12,14.25-2.1,21.26C99.15,53.93,104,60.39,102.79,69.11Z"/></svg>