<svg id="Icon" xmlns="http://www.w3.org/2000/svg" viewBox="0 0 140 140"><defs><style>.cls-1{fill:#503291;}</style></defs><path class="cls-1" d="M69.65-.84C31-.84-.35,31.31-.35,71A69.14,69.14,0,0,0,35.17,131.6a41,41,0,0,0,4.91,1.86,16.67,16.67,0,0,0,4.32.56,16.86,16.86,0,0,0,16.86-16.86c0-.68-.14-6.66-.14-6.66V26.07c1.46-8.86,15.6-8.85,17.05,0v84.65s0,5.49,0,6.34A16.86,16.86,0,0,0,95,133.92a16.59,16.59,0,0,0,6.16-1.17c.72-.28,4-2,4.94-2.56C126,118,139.65,96.49,139.65,71,139.65,31.31,108.31-.84,69.65-.84ZM23.33,96a5.28,5.28,0,0,1-3.62-2.19l-1.78-2.21c-.34-.43-.25-.87.22-1.27L32.66,78l5.87-5-5.84-5.14L18.24,55.41c-.47-.4-.57-.82-.21-1.27l1.79-2.2a5.27,5.27,0,0,1,3.63-2.17,5.22,5.22,0,0,1,3.94,1.48L45.68,67a7.81,7.81,0,0,1,3,6,8.53,8.53,0,0,1-3,6v0L27.28,94.56A5.2,5.2,0,0,1,23.33,96Zm96.25-2.19A5.32,5.32,0,0,1,116,96,5.2,5.2,0,0,1,112,94.56L93.64,79v0a8.57,8.57,0,0,1-3-6,7.84,7.84,0,0,1,3-6L111.9,51.25a4.86,4.86,0,0,1,7.57.69l1.79,2.2c.36.45.27.87-.2,1.27L106.61,67.83,100.77,73l5.86,5,14.52,12.34c.47.4.56.84.21,1.27Z"/></svg>