<svg id="Icon" xmlns="http://www.w3.org/2000/svg" viewBox="0 0 140 140"><defs><style>.cls-1{fill:#503291;}</style></defs><path class="cls-1" d="M97.33,80.22a2.09,2.09,0,0,0,1-2.65,1.81,1.81,0,0,0-2.66-.66C95,77.24,78,85.85,79,100.09a1.85,1.85,0,0,0,2,1.65,1.92,1.92,0,0,0,2-2C82.36,88.17,97.33,80.55,97.33,80.22Z"/><path class="cls-1" d="M93,52.4a2,2,0,0,0-.34-4c-4.65.66-7.65-.33-9.31-2.32C81,43.46,82,38.83,82,38.83a1.9,1.9,0,0,0-3.66-1c0,.33-2,6.62,1.66,10.92,2.33,2.65,5.66,4,10.31,4C91,52.74,93,52.4,93,52.4Z"/><path class="cls-1" d="M44.68,76.91a1.81,1.81,0,0,0-2.67.66,2.09,2.09,0,0,0,1,2.65c0,.33,15,8,14.3,19.53a1.92,1.92,0,0,0,2,2,1.85,1.85,0,0,0,2-1.65C62.3,85.85,45.34,77.24,44.68,76.91Z"/><path class="cls-1" d="M59.64,36.51a1.89,1.89,0,0,0-1.33,2.32s1,4.63-1.33,7.28c-1.66,2-4.66,3-9.31,2.32-2.25-.24-3.3,3.27-.33,4,0,0,2,.34,2.66.34,4.65,0,8-1.33,10.31-4C64,44.46,62,38.17,62,37.84A1.89,1.89,0,0,0,59.64,36.51Z"/><path class="cls-1" d="M139.21,58.47a14.45,14.45,0,0,0-27.05-4.54A30.45,30.45,0,0,0,110.89,58a33.52,33.52,0,0,1-1,3.39,1.49,1.49,0,0,1-2,.88c-5.07-2.46-9.63-3.46-14.19-2.25A20.06,20.06,0,0,0,82.4,68.26c-.73,1.06-1.06,1.91-.17,2.95a2.16,2.16,0,0,0,3.13-.59s3.32-5.3,9.31-6.63c4-1,8.65,0,13.63,3.31,6.19,5.34,7.1,16.28-4.51,20.93a3,3,0,0,0-1.72,3.62c1.49,4.65,2.64,13.76-10.77,14.77a2.91,2.91,0,0,0-2.5,1.78c-1.16,2.87-4.49,8.41-13.09,8.9a3,3,0,0,1-3-3V27.75a4.38,4.38,0,0,1,4.51-4.45,9.83,9.83,0,0,1,5.27,2.25,3,3,0,0,0,2.06.57c3.89-.3,15.9-.24,16.45,11.88a3.17,3.17,0,0,0,1.9,2.69c3,1.5,6,3.67,9.68,3.42a12.65,12.65,0,0,0,9.24-21.29c-.41-.43-2.35-2.29-2.9-2.83a70,70,0,1,0,21,49.93q0-3.21-.3-6.33C139.54,62.81,139.33,59.2,139.21,58.47ZM67.62,114.31a3,3,0,0,1-3,3c-8.59-.49-11.93-6-13.09-8.9a2.91,2.91,0,0,0-2.5-1.78c-13.41-1-12.26-10.12-10.77-14.77a3,3,0,0,0-1.71-3.62C24.94,83.58,25.85,72.64,32,67.3,37,64,41.68,63,45.67,64c6,1.33,9.32,6.63,9.32,6.63a2.15,2.15,0,0,0,3.12.59c.89-1,.56-1.89-.17-2.95A20.06,20.06,0,0,0,46.67,60c-4.56-1.21-9.12-.21-14.19,2.25a1.49,1.49,0,0,1-2-.88c-5-14.51,3.08-19.29,7-20.7A3,3,0,0,0,39.33,38c.55-12.12,12.56-12.18,16.45-11.88a3,3,0,0,0,2.06-.57,9.83,9.83,0,0,1,5.27-2.25,4.38,4.38,0,0,1,4.51,4.45Z"/></svg>