<svg id="Icon" xmlns="http://www.w3.org/2000/svg" viewBox="0 0 140 140"><defs><style>.cls-1{fill:#503291;}</style></defs><path class="cls-1" d="M69.89-.07A70,70,0,0,0,4.92,96c2.3,5.76,5.19,12.17,13.11,12.2,5.65,0,11.81-7.49,12.33-8l26.69-28a3.77,3.77,0,0,0,.86-2.24,3.59,3.59,0,0,0-.54-1.78C51.81,62.26,36.21,45.85,28.72,38a2,2,0,0,1,1.45-3.37H40.81a17.52,17.52,0,0,1,3.66.29c1.9.35,3.07,2,4.53,3.39l18.13,18.5a3.58,3.58,0,0,0,5.52,0l18.13-18.5c1.46-1.42,2.63-3,4.53-3.39A17.52,17.52,0,0,1,99,34.63h10.64A2,2,0,0,1,111.06,38C103.57,45.85,88,62.25,82.41,68.1a3.59,3.59,0,0,0-.54,1.78,3.77,3.77,0,0,0,.86,2.24c5.57,5.86,21.45,22.54,28.32,29.74a2,2,0,0,1-1.45,3.38H98.13c-4.46-.12-4.62-1-7.35-3.67,0,0-7.44-7.59-12.81-13.06l-5.32-5.44a3.58,3.58,0,0,0-5.52,0l-4.5,4.6L52.28,98.22c-7.35,6.87-13.84,10.58-13.87,21A19.35,19.35,0,0,0,48,135.94a18.82,18.82,0,0,0,2,1,55.78,55.78,0,0,0,11.13,2.42,73.51,73.51,0,0,0,8.81.58,70,70,0,0,0,0-140Z"/></svg>