<svg id="Icon" xmlns="http://www.w3.org/2000/svg" viewBox="0 0 140 140"><defs><style>.cls-1{fill:#503291;}</style></defs><path class="cls-1" d="M69.91-.08A70,70,0,0,0,2.2,52.18,24.72,24.72,0,0,0,1,59,13.46,13.46,0,0,0,23,69.45l.82-.73A26.31,26.31,0,0,1,26,67.07c11.3-6.95,21.7,11.51,42,7,5.55-.24,17.89-7.37,20-10.54C98.87,52,117.93,66.8,105.7,79.7c-20.48,24.2-70.27,20.41-82.52,4.94a28.7,28.7,0,0,0-2.32-2.25,10.67,10.67,0,0,0-17,6,13.19,13.19,0,0,0,.22,5.57c.21.73,1.43,3.39,1.7,4a70,70,0,1,0,64.12-98Zm47.61,54.56c-1,1.33-6.62,3.57-8,3.88s-4.25-2-4.36-2.92c-.2-1.72-.2-7.66.56-9.15C106.74,44.26,119,52.6,117.52,54.48Z"/></svg>