<svg id="Icon" xmlns="http://www.w3.org/2000/svg" viewBox="0 0 140 140"><defs><style>.cls-1{fill:#503291;}</style></defs><path class="cls-1" d="M96.57,75.94A77.07,77.07,0,0,0,98.75,61.6h4.79c2.08,0,5.67,3.22,3.12,8.64A9.56,9.56,0,0,1,96.57,75.94Z"/><path class="cls-1" d="M92.79,3.31c-1-.34-2-.66-3-1-4.92-1.44-11.53.2-10.93,6.42,0,0,0,.08,0,.12.06.54.12,1.08.19,1.62.89,6.91,3,14.52,1.4,23.63-1.91,10.65-8.72,9-11.06,20.8h34c8,0,11.19,6.14,11.19,10.69,0,5.59-2.67,17.43-20.74,17.43h0c-4.2,8.7-11.77,16-25.41,16H63.67c-19.25,0-26.44-14.62-29.08-27a63.43,63.43,0,0,1-1.47-12.92c0-3,2.34-4.2,5.08-4.2H62.41c-1.08-12.85,8.14-11.6,8.14-24.39,0-8.64-3.1-14.29-5.44-20.31a38.16,38.16,0,0,1-2-6.76c-.21-1.12-1.89-3.43-4.17-3A75.54,75.54,0,0,0,42.73,5.21,70.44,70.44,0,0,0,.23,70c0,38.9,31.34,70.43,70,70.43s70-31.53,70-70.43A70.42,70.42,0,0,0,92.79,3.31Zm17.75,106.51s-13.88,5.48-40.93,5.48c-24.61,0-40.48-5.47-40.48-5.47-3.37-1-2.67-6.38,1.26-6a371.83,371.83,0,0,0,39,2.22,396.3,396.3,0,0,0,39.87-2.24C113.7,103.37,114.33,108.83,110.54,109.82Z"/></svg>