<svg id="Icon" xmlns="http://www.w3.org/2000/svg" viewBox="0 0 140 140"><defs><style>.cls-1{fill:#503291;}</style></defs><path class="cls-1" d="M89.71,58.67H49.91a6,6,0,0,0-6,6v25.1a6,6,0,0,0,6,6h39.8a6,6,0,0,0,6-6V64.67A6,6,0,0,0,89.71,58.67ZM59.15,87.72a3,3,0,0,1-3,3h-4a3,3,0,0,1-3-3v-4a3,3,0,0,1,3-3h4a3,3,0,0,1,3,3Zm0-17a3,3,0,0,1-3,3h-4a3,3,0,0,1-3-3v-4a3,3,0,0,1,3-3h4a3,3,0,0,1,3,3Zm15.69,17a3,3,0,0,1-3,3h-4a3,3,0,0,1-3-3v-4a3,3,0,0,1,3-3h4a3,3,0,0,1,3,3Zm0-17a3,3,0,0,1-3,3h-4a3,3,0,0,1-3-3v-4a3,3,0,0,1,3-3h4a3,3,0,0,1,3,3Zm15.68,17a3,3,0,0,1-3,3h-4a3,3,0,0,1-3-3v-4a3,3,0,0,1,3-3h4a3,3,0,0,1,3,3Zm0-17a3,3,0,0,1-3,3h-4a3,3,0,0,1-3-3v-4a3,3,0,0,1,3-3h4a3,3,0,0,1,3,3Z"/><path class="cls-1" d="M69.91-.08a70,70,0,0,0-62,102.44,13.83,13.83,0,0,0,1.29,2.36c.06.11.82,1.07,1.14,1.43a13.53,13.53,0,0,0,23.57-8.3c0-.25,0-1.48,0-1.84V44.68a6,6,0,0,1,6-6h4v5.89a9,9,0,0,0,9,9h2a9,9,0,0,0,9-9V38.68h11.8v5.89a9,9,0,0,0,9,9h2a9,9,0,0,0,9-9V38.68h4.15a6,6,0,0,1,6,6v55.1a6,6,0,0,1-6,6H55.22l-2.35.08a15.87,15.87,0,0,0-7.67,29.2c3.71,2.36,8.61,2.9,12.82,3.83A70,70,0,1,0,69.91-.08Zm-11,44.65a4,4,0,0,1-4,4h-2a4,4,0,0,1-4-4v-12a4,4,0,0,1,4-4h2a4,4,0,0,1,4,4Zm31.8,0a4,4,0,0,1-4,4h-2a4,4,0,0,1-4-4v-12a4,4,0,0,1,4-4h2a4,4,0,0,1,4,4Z"/></svg>