<svg id="Icon" xmlns="http://www.w3.org/2000/svg" viewBox="0 0 140 140"><defs><style>.cls-1{fill:#503291;}</style></defs><path class="cls-1" d="M58,96a4.8,4.8,0,0,0-4.8,4.8,4.75,4.75,0,0,0,1.07,3,4.81,4.81,0,1,0,7.47,0,4.75,4.75,0,0,0,1.07-3A4.8,4.8,0,0,0,58,96Z"/><path class="cls-1" d="M69.89-.08A70,70,0,0,0,21.11,120.1c.65.62,3.39,3.2,4.18,3.77a15.37,15.37,0,0,0,24.24-10.71c.06-.58,0-57.39,0-57.39A4.43,4.43,0,0,1,54,51.35H74a.74.74,0,0,1,.73.74v62.57a.74.74,0,0,1-.73.74s-7.52,0-10.56,0a18.43,18.43,0,0,0-2.45.24,12.18,12.18,0,0,0-.1,23.71,23,23,0,0,0,3.06.32c.92.08,1.84.15,2.77.19s2.13.09,3.21.09a70,70,0,0,0,0-140ZM90.19,111a4.43,4.43,0,0,1-4.42,4.42H83.55a.74.74,0,0,1-.74-.74V52.09a.74.74,0,0,1,.74-.74h2.22a4.43,4.43,0,0,1,4.42,4.42Zm21.07-48.57a5,5,0,0,1-5,5h-2a1,1,0,0,1-1-1v-20a2,2,0,0,0-2-2H38.51a2,2,0,0,0-2,2v20a1,1,0,0,1-1,1h-2a5,5,0,0,1-5-5v-20a6,6,0,0,1,6-6h70.75a6,6,0,0,1,6,6Z"/></svg>