<svg id="Icon" xmlns="http://www.w3.org/2000/svg" viewBox="0 0 140 140"><defs><style>.cls-1{fill:#503291;}</style></defs><path class="cls-1" d="M139.91,69.92a70,70,0,1,0-42.1,64.2c.61-.27,3.15-1.28,3.77-1.58a13.53,13.53,0,0,0-.63-24.72c-.28-.11-2.24-.76-2.57-.91A7.49,7.49,0,0,1,99,93V85.62H72.12V93a7.5,7.5,0,1,1-5,0V85.62H40.24V93a7.5,7.5,0,1,1-5,0V80.62H67.12V73.14A27.21,27.21,0,0,1,61.67,72c-.67-.22-1.32-.46-2-.72,0,0-1-.36-1.46-.52L58,70.67a27.74,27.74,0,0,1-4.78-2.86,4.9,4.9,0,0,1-2-3.76h0a52.36,52.36,0,0,1,.06-6.15,13.41,13.41,0,0,1,2.66-7l.05-.06.13-.15a17.56,17.56,0,0,1,7.69-5.23,3.24,3.24,0,0,1,2,0,2.87,2.87,0,0,1,.57.24,11.47,11.47,0,0,0,1,.53,10.36,10.36,0,0,0,4.48,1h0a10.36,10.36,0,0,0,4.48-1,11.47,11.47,0,0,0,1-.53,2.87,2.87,0,0,1,.57-.24,3.24,3.24,0,0,1,2,0,17.56,17.56,0,0,1,7.69,5.23l.13.15,0,.06a13.41,13.41,0,0,1,2.66,7A52.36,52.36,0,0,1,88.75,64h0a4.9,4.9,0,0,1-2,3.76A27.74,27.74,0,0,1,82,70.67l-.26.07c-.49.16-1.46.52-1.46.52-.65.26-1.3.5-2,.72a27.15,27.15,0,0,1-6.21,1.25v7.39H104V93a7.51,7.51,0,0,1,5,6.46c0,.2,0,.4,0,.61s-.07.78-.13,1.41c0,.41-.06,1.59,0,1.85a10.7,10.7,0,0,0,19.79,4.81l1.54-2.61A69.65,69.65,0,0,0,139.91,69.92Zm-61.63-35c-5.43,14.37-17.6,6.91-18-5.51C60.72,14.47,84.65,17.83,78.28,34.89Z"/></svg>