<svg id="Icon" xmlns="http://www.w3.org/2000/svg" viewBox="0 0 140 140"><defs><style>.cls-1{fill:#503291;}</style></defs><path class="cls-1" d="M139.42,62.26A70.14,70.14,0,0,0,61.93.41C29.11,4.05,4.65,29.78.07,61c-2.51,17.07,17.51,17.55,21,8.66.24-.84.69-2.76,1.15-4.8C24.55,39.62,44,19.92,69.91,19.92c26.32,0,46.05,20.33,47.85,46.13.14,1.65.22,3.32.22,5A59.05,59.05,0,0,1,115.81,87a26.47,26.47,0,0,1-1.16,3c-.5,1-1.12,2.29-1.23,2.53-6.1,13.36-17.78,23.21-31.77,26a6.13,6.13,0,0,1-5.7,3.87h-9a6.12,6.12,0,0,1-6.12-6.12v-2.75a6.12,6.12,0,0,1,6.12-6.13h9a6.13,6.13,0,0,1,6.12,5.91c11.7-2.83,21.45-11.34,26.71-22.71,0,0,0,0,0,0a9.51,9.51,0,0,1-9.21-9.7V70.35A9.67,9.67,0,0,1,107,60.73a40,40,0,0,0-10-19.3,37.56,37.56,0,0,0-54.11,0,39.94,39.94,0,0,0-10,19.43,9.71,9.71,0,0,1,7,9.5V80.91c0,5.37-4,9.91-9.11,9.7A8.42,8.42,0,0,1,23.85,86c-.12-.22-.52-.89-.64-1.1C19.35,78,.87,85.28,7.63,102.72A70.2,70.2,0,0,0,139.42,62.26Z"/></svg>