<svg id="Icon" xmlns="http://www.w3.org/2000/svg" viewBox="0 0 140 140"><defs><style>.cls-1{fill:#503291;}</style></defs><path class="cls-1" d="M69.91-.08A70,70,0,1,0,90,137c.21-.07,1.07-.29,1.28-.35A11.85,11.85,0,0,0,93,114.3c-1.27-.73-4.46-1-5.56-1.09H45.63A6,6,0,0,1,40,105.28L59.67,48.4a12,12,0,0,0,.63-3.51V26.66A3.4,3.4,0,0,0,60,25.22l-.89-1.9A2.07,2.07,0,0,1,61,20.38H78.73a2.07,2.07,0,0,1,1.87,2.94l-.89,1.9a3.4,3.4,0,0,0-.32,1.44V43.19l.09,2.3A12.29,12.29,0,0,0,80,48.37l19.11,55.11s.53,1.2.64,1.41a17.1,17.1,0,0,0,28.39,3.53c.17-.21,1-1.2,1.16-1.5,0,0,.39-.63.54-.89A70,70,0,0,0,69.91-.08Z"/><path class="cls-1" d="M78.36,69.91h-17l-11,29.63c-1.06,3.12.76,5.67,4.06,5.67H85.27c3.3,0,5.12-2.55,4.06-5.67Z"/></svg>