<svg id="Icon" xmlns="http://www.w3.org/2000/svg" viewBox="0 0 140 140"><defs><style>.cls-1{fill:#503291;}</style></defs><path class="cls-1" d="M139.91,69.92a70.09,70.09,0,1,0-43.45,64.74c.24-.1,1.32-.49,1.61-.6a10.76,10.76,0,0,0-3.9-20.78H79.72A4.28,4.28,0,0,1,75.45,109V90.25c0-21.35,9.46-22,12.77-30.3,1.18-3,.46-13.07.46-13.07-.17-2.34-1.27-4.59-2.44-5s-2.82,1-3.65,3.25L82,46.79A5.06,5.06,0,0,1,76.56,50c-2.13-.42-3.06-2.49-2-4.62L76.12,42c1-2.12.35-3.84-1.47-3.82s-3.3-1.89-3.3-4.23v-.13a4.28,4.28,0,0,1,4.27-4.27h26.19c5,0,5.41,5.46,5.41,5.46a5.58,5.58,0,0,1-3.8,5.47l-1.15.33A3.91,3.91,0,0,0,99.68,46a100.94,100.94,0,0,1,5.25,32.46v26.23c0,.32,0,1.38,0,1.61a11.4,11.4,0,0,0,20.49,6.19c.2-.27,1.12-1.46,1.36-1.8A69.66,69.66,0,0,0,139.91,69.92ZM71.58,59.34a4.42,4.42,0,0,1,1.86,3.26l.17,8.58c0,1.18-.77,1.63-1.77,1l-13.19-8A2.68,2.68,0,0,0,55,65L33.38,100v0a1.93,1.93,0,0,1-3.19.21,45.71,45.71,0,0,1-2.69-3.9,2,2,0,0,1,0-2.1L48.19,60.78a2.51,2.51,0,0,0-.42-3.63L39,51.88a4.4,4.4,0,0,1-1.86-3.26L37,40c0-1.17.77-1.63,1.77-1Z"/></svg>