<svg id="Icon" xmlns="http://www.w3.org/2000/svg" viewBox="0 0 140 140"><defs><style>.cls-1{fill:#503291;}</style></defs><path class="cls-1" d="M139.91,69.92A70,70,0,1,0,127,110.41a15.54,15.54,0,0,0,1-1.71c.33-.75.73-1.7.8-1.89a10,10,0,0,0-13.52-12.42c-.35.17-1.84.77-2.16,1a6.69,6.69,0,0,1-6.08.53c-.52-.24-1.16-.56-1.88-1-4.88-3.09-23.9-14.28-35.46-14.28-12.79,0-31.51,12.6-37.27,15.23S19.16,90.32,23.49,87a138.92,138.92,0,0,1,38-19.75c2.34-.75-.82-6.94,8.23-6.94s5.88,6.19,8.22,6.94C89.47,71,104.14,79.52,113.16,85.17l2.8,1.7a15.49,15.49,0,0,0,8.12,2.29,15.64,15.64,0,0,0,15.43-13.07c.07-.38.25-2,.29-2.73C139.85,72.18,139.91,70.66,139.91,69.92ZM74.73,48.85C73,50,73,50.09,73,50.58a3.34,3.34,0,1,1-6.68,0c0-4.21,2.85-6.08,4.74-7.31,2.08-1.37,3.46-2.27,3.46-6.2a4.86,4.86,0,0,0-9.72,0,3.34,3.34,0,1,1-6.67,0,11.53,11.53,0,1,1,23.06,0C81.21,44.6,77.16,47.26,74.73,48.85Z"/></svg>