<svg id="Icon" xmlns="http://www.w3.org/2000/svg" viewBox="0 0 140 140"><defs><style>.cls-1{fill:#503291;}</style></defs><path class="cls-1" d="M120.45,21.69a69.87,69.87,0,0,0-98.84-2c-22.4,21.53-27.79,54.62-14.52,81,7.75,15.38,21.14,8.07,20-3.71a6.12,6.12,0,0,0-.7-2.45A50,50,0,1,1,55.7,117.85h0l-.13,0a49.6,49.6,0,0,1-10.71-4.63,8.05,8.05,0,0,0-2.89-.94c-10.75-1.68-25.24,7.94-5.78,19A69.89,69.89,0,0,0,120.45,21.69Z"/><path class="cls-1" d="M69.91,29.92a40,40,0,1,0,40,40A40,40,0,0,0,69.91,29.92ZM85.06,85.38a4,4,0,0,1-5.52-.15L66.87,72.74a4.24,4.24,0,0,1-1.23-3V43.88a4.11,4.11,0,0,1,3.6-4.15,4,4,0,0,1,4.4,4V67a3,3,0,0,0,.87,2.11L85.07,79.44A4.16,4.16,0,0,1,85.06,85.38Z"/></svg>