<svg id="Icon" xmlns="http://www.w3.org/2000/svg" viewBox="0 0 140 140"><defs><style>.cls-1{fill:#503291;}</style></defs><path class="cls-1" d="M69.91-.08a70,70,0,0,0-70,70c0,1.58.06,3.15.17,4.71,0,.63.15,3,.17,3.27a10.68,10.68,0,0,0,10.59,9.84A10.68,10.68,0,0,0,21.46,77.08h0s0-.06,0-.09A15.08,15.08,0,0,1,36.14,61.92,12.64,12.64,0,0,1,48.62,47a12.57,12.57,0,0,1,6.47,1.79,26.5,26.5,0,0,1,50.39,9.88,16.88,16.88,0,0,1-3.35,33.43H36.56c-.38,0-2.46-.08-3.18-.08a17,17,0,0,0-17.26,16.72,16.53,16.53,0,0,0,6.64,13.17c.43.32,2.41,1.84,3,2.29A70,70,0,1,0,69.91-.08Z"/></svg>