<svg id="Icon" xmlns="http://www.w3.org/2000/svg" viewBox="0 0 140 140"><defs><style>.cls-1{fill:#503291;}</style></defs><path class="cls-1" d="M69.91-.08a70,70,0,0,0-70,70c0,1.58.06,3.15.17,4.71,0,.63.15,3,.17,3.27a10.68,10.68,0,0,0,10.59,9.84A10.68,10.68,0,0,0,21.46,77.08h0s0-.06,0-.09A15.08,15.08,0,0,1,36.14,61.92,12.64,12.64,0,0,1,48.62,47a12.57,12.57,0,0,1,6.47,1.79,26.5,26.5,0,0,1,50.39,9.88,16.88,16.88,0,0,1-3.35,33.43H36.56c-.38,0-2.46-.08-3.18-.08a17,17,0,0,0-17.26,16.72,16.53,16.53,0,0,0,6.64,13.17c.43.32,2.41,1.84,3,2.29A70,70,0,1,0,69.91-.08Z"/><path class="cls-1" d="M84.2,58.45c-.81-8.51-5.46-13.51-12.79-13.51s-12,5-12.8,13.51A6.68,6.68,0,0,0,53.28,65V78a6.67,6.67,0,0,0,6.65,6.65H82.88A6.67,6.67,0,0,0,89.53,78V65A6.68,6.68,0,0,0,84.2,58.45Zm-10,10.4a3.39,3.39,0,0,0-.9,2.66l.79,4.85a1.31,1.31,0,0,1-1.33,1.57H69.91a1.29,1.29,0,0,1-1.32-1.56l.86-4.87a3.34,3.34,0,0,0-.88-2.66,2.8,2.8,0,0,1-.68-2,3.52,3.52,0,0,1,7,0A2.79,2.79,0,0,1,74.23,68.85Zm-10-10.53c.62-5.2,3-7.84,7.23-7.84s6.6,2.64,7.22,7.84Z"/></svg>