<svg id="Icon" xmlns="http://www.w3.org/2000/svg" viewBox="0 0 140 140"><defs><style>.cls-1{fill:#503291;}</style></defs><path class="cls-1" d="M138.41,84.33A70.06,70.06,0,1,0,123.1,115.4c.43-.51,2.28-2.55,2.7-3.12a10.38,10.38,0,0,0-15.43-13.75c-.33.3-1,.88-1,.88-.41.43-.83.85-1.27,1.25a32.06,32.06,0,0,1-20.32,8.67,30.16,30.16,0,0,1-5.88-.29,2.13,2.13,0,0,1-1.18-3.67,38.47,38.47,0,0,0,11.1-21.12,1.68,1.68,0,0,1,.84-1.34,38.36,38.36,0,0,0,15.16-23.49,2.09,2.09,0,0,1,3.72-.9,31.46,31.46,0,0,1,6.37,22.55c0,.27-.06,1.66-.06,2.08a10.33,10.33,0,0,0,19.32,5.08A21.75,21.75,0,0,0,138.41,84.33ZM41.81,37.4a31.66,31.66,0,0,1,56.37-.07,2.14,2.14,0,0,1-2.47,3A38.37,38.37,0,0,0,71,42.48a1.46,1.46,0,0,1-1.67,0,38.35,38.35,0,0,0-25-2.06A2.14,2.14,0,0,1,41.81,37.4ZM39.57,49.57A31.29,31.29,0,0,1,53.8,46.15a31.81,31.81,0,0,1,4.7.35,2.12,2.12,0,0,1,1.07,3.64A38.38,38.38,0,0,0,48.69,70a2.15,2.15,0,0,1-3.82.9,31.83,31.83,0,0,1-6.46-19.45A2.1,2.1,0,0,1,39.57,49.57ZM58.35,109a30.22,30.22,0,0,1-5.89.29C37,108.57,23.9,96.5,22.33,81.07A31.51,31.51,0,0,1,28.7,58.52a2.09,2.09,0,0,1,3.72.9A38.33,38.33,0,0,0,47.59,82.91a1.68,1.68,0,0,1,.84,1.34,38.34,38.34,0,0,0,11.1,21.12A2.14,2.14,0,0,1,58.35,109ZM82,92.09a31.6,31.6,0,0,1-10.7,12,2.14,2.14,0,0,1-2.33,0A31.66,31.66,0,0,1,58.29,92.15a2.14,2.14,0,0,1,2.48-3,38.07,38.07,0,0,0,18.73-.06A2.14,2.14,0,0,1,82,92.09Zm.86-11.49a31.37,31.37,0,0,1-25.42.1c-2.1-1.25-2.57-2.13-2.57-4.13A31.53,31.53,0,0,1,67.54,52.44a4.32,4.32,0,0,1,5.15,0,31.49,31.49,0,0,1,12.69,24C85.38,79.21,85,79.56,82.84,80.6Zm12.42-9.72a2.14,2.14,0,0,1-3.81-.9A38.45,38.45,0,0,0,80.57,50.14a2.11,2.11,0,0,1,1.06-3.64,32,32,0,0,1,4.71-.35,31.29,31.29,0,0,1,14.23,3.42,2.1,2.1,0,0,1,1.16,1.86A31.84,31.84,0,0,1,95.26,70.88Z"/></svg>