<svg id="Icon" xmlns="http://www.w3.org/2000/svg" viewBox="0 0 140 140"><defs><style>.cls-1{fill:#503291;}</style></defs><circle class="cls-1" cx="86.05" cy="46.46" r="9.19" transform="translate(-7.65 74.46) rotate(-45)"/><path class="cls-1" d="M101.27,76.72A7.45,7.45,0,1,0,106,86.11,7.46,7.46,0,0,0,101.27,76.72Z"/><path class="cls-1" d="M46.93,83.27a11,11,0,1,0-12.24-9.58A11,11,0,0,0,46.93,83.27Z"/><path class="cls-1" d="M101.75,7.55C67.09-9.83,24.69,3.77,7.52,38.51-1.43,56.71,0,66.68.1,67.8c.46,5,1.66,12.21,6.41,13.45a5.09,5.09,0,0,0,2.13.26c.43,0,1.9.67,15.9-3.72a21.94,21.94,0,0,1-.7-5.66h0l-2.7-1a1.36,1.36,0,0,1-.85-1.33s.11-1.23.32-2.35.52-2.12.52-2.12a1.37,1.37,0,0,1,1.28-.93l2.88.1.05,0a21.42,21.42,0,0,1,2.89-5.26l0,0-1.6-2.37a1.37,1.37,0,0,1,.1-1.58s.81-.93,1.65-1.7S30,52.19,30,52.19a1.37,1.37,0,0,1,1.58,0L33.84,54s0,0,0,0a23.35,23.35,0,0,1,2.6-1.44,23.58,23.58,0,0,1,2.71-1v0l.09-2.88a1.37,1.37,0,0,1,1-1.22s1.08-.24,2.15-.37,2.37-.16,2.37-.16a1.36,1.36,0,0,1,1.27.94l.78,2.75a21.88,21.88,0,0,1,5.69,1.09l1.69-2.2a1.36,1.36,0,0,1,1.53-.4s1.14.48,2.14,1,1.86,1.14,1.86,1.14a1.37,1.37,0,0,1,.49,1.5l-.95,2.61a21.53,21.53,0,0,1,4.19,4.48l2.68-.77a1.36,1.36,0,0,1,1.46.58s.64,1.06,1.12,2.1.82,2,.82,2a1.37,1.37,0,0,1-.49,1.5l-2.34,1.56a21.66,21.66,0,0,1,.71,5.79l2.7,1A1.35,1.35,0,0,1,71,74.91s-.1,1.1-.31,2.16-.57,2.31-.57,2.31a1.36,1.36,0,0,1-1.28.92L66,80.2A21.71,21.71,0,0,1,63,85.46l1.62,2.39a1.36,1.36,0,0,1-.11,1.57S63.81,90.25,63,91s-1.83,1.52-1.83,1.52a1.37,1.37,0,0,1-1.58,0l-2.25-1.77h0a23.9,23.9,0,0,1-2.54,1.4A23.25,23.25,0,0,1,52,93.17s0,0,0,0l-.1,2.86a1.37,1.37,0,0,1-1,1.22s-1.21.27-2.34.41-2.18.16-2.18.16a1.36,1.36,0,0,1-1.27-.94l-.79-2.77v0A21.67,21.67,0,0,1,38.7,93s0,.08-.06.11L36.88,95.4a1.34,1.34,0,0,1-1.52.4s-1-.44-2-1-2-1.25-2-1.25a1.37,1.37,0,0,1-.48-1.51l1-2.69c0-.05.05-.07.07-.11a21.92,21.92,0,0,1-4.1-4.38.93.93,0,0,1-.1,0l-.26.08c-.76.3-3.13,1.29-10.46,4.52C11.74,91.88,8.42,97,9.53,102.63c.52,2.65,2,4.78,3.7,8.12,5.38,9.46,15.7,16.94,24.63,21.71a69.51,69.51,0,0,0,94.27-30.35C149.77,67.91,136.25,25.63,101.75,7.55ZM78.18,63l-1.7,1.72a1.14,1.14,0,0,1-1.3.17s-.81-.46-1.54-1-1.55-1.24-1.55-1.24a1.15,1.15,0,0,1-.25-1.29l1.08-2.14a.71.71,0,0,1,.07-.09,17.84,17.84,0,0,1-2.95-4l-.09,0-2.39.38a1.13,1.13,0,0,1-1.15-.63S66,54,65.76,53.15s-.51-1.92-.51-1.92A1.14,1.14,0,0,1,65.82,50L68,49s.06,0,.09,0a18.06,18.06,0,0,1,0-4.87h0L65.85,43a1.16,1.16,0,0,1-.58-1.19s.22-1,.51-1.93.64-1.7.64-1.7a1.16,1.16,0,0,1,1.16-.64L70,37.9h0a18,18,0,0,1,2.94-4.07l0,0-1.09-2.14a1.13,1.13,0,0,1,.24-1.29s.77-.69,1.55-1.25,1.53-1,1.53-1a1.14,1.14,0,0,1,1.3.17L78.15,30l0,0a17.69,17.69,0,0,1,2.29-.93,18.5,18.5,0,0,1,2.36-.59h0l.37-2.39a1.13,1.13,0,0,1,1-.9s.92-.09,1.82-.09,2,.1,2,.1a1.16,1.16,0,0,1,1,.91l.36,2.36A18.39,18.39,0,0,1,93.89,30l1.63-1.65a1.14,1.14,0,0,1,1.31-.18s.9.51,1.67,1.07,1.43,1.14,1.43,1.14a1.12,1.12,0,0,1,.25,1.29l-1.05,2.07a17.87,17.87,0,0,1,3,4.14l2.29-.37a1.15,1.15,0,0,1,1.16.63s.42.95.72,1.86.47,1.76.47,1.76a1.12,1.12,0,0,1-.56,1.19L104.14,44a18.55,18.55,0,0,1,0,4.88L106.29,50a1.14,1.14,0,0,1,.57,1.19s-.2.9-.47,1.76-.71,1.86-.71,1.86a1.15,1.15,0,0,1-1.16.63L102.15,55a18.07,18.07,0,0,1-3,4.07l1.1,2.15a1.12,1.12,0,0,1-.25,1.29s-.69.62-1.42,1.14S97,64.76,97,64.76a1.15,1.15,0,0,1-1.31-.17L94,62.89h0a18.51,18.51,0,0,1-2.25.9,19.63,19.63,0,0,1-2.43.61,0,0,0,0,1,0,0l-.36,2.36a1.16,1.16,0,0,1-1,.91s-1,.11-2,.11-1.82-.09-1.82-.09a1.15,1.15,0,0,1-1-.91l-.37-2.38v0a18.4,18.4,0,0,1-4.59-1.49Zm38,22.41a.89.89,0,0,1-.73.77l-1.89.29a14.6,14.6,0,0,1-1.22,3.77l1.38,1.36a.91.91,0,0,1,.14,1.06s-.38.65-.8,1.25-1,1.25-1,1.25a.92.92,0,0,1-1,.2l-1.73-.88a14.72,14.72,0,0,1-3.3,2.39l.31,1.93a.93.93,0,0,1-.52.94s-.69.3-1.38.52-1.56.41-1.56.41a.93.93,0,0,1-1-.46l-.87-1.73h0a15.86,15.86,0,0,1-2,.13,13.43,13.43,0,0,1-2-.15s0,0,0,0l-.88,1.73a.91.91,0,0,1-1,.46s-.82-.18-1.56-.41-1.38-.53-1.38-.53a.92.92,0,0,1-.51-.94L92,96.83s0,0,0,0A15.06,15.06,0,0,1,88.8,94.5l-.06.06-1.74.9a.93.93,0,0,1-1-.19s-.51-.56-.94-1.15-.88-1.35-.88-1.35a.92.92,0,0,1,.13-1.06l1.37-1.38.08,0a14.44,14.44,0,0,1-1.26-3.86.22.22,0,0,1-.08,0l-1.94-.3a.94.94,0,0,1-.73-.78s-.07-.75-.07-1.48.09-1.61.09-1.61a.91.91,0,0,1,.74-.77l1.92-.3h.07a15,15,0,0,1,1.21-3.76l0,0L84.26,76A.93.93,0,0,1,84.11,75s.42-.73.88-1.36.92-1.15.92-1.15a.92.92,0,0,1,1-.2l1.75.89h0A15,15,0,0,1,92,70.77a0,0,0,0,1,0,0l-.3-1.92a.91.91,0,0,1,.51-.93s.77-.34,1.51-.58,1.43-.38,1.43-.38a.91.91,0,0,1,1,.46L97,69.15h0A16.68,16.68,0,0,1,99,69a14,14,0,0,1,2,.14v0l.88-1.74a.93.93,0,0,1,1-.46s.74.17,1.43.39,1.5.58,1.5.58a.93.93,0,0,1,.51.94L106,70.78a14.5,14.5,0,0,1,3.18,2.3l1.67-.87a.93.93,0,0,1,1.06.19s.56.62,1,1.24.82,1.24.82,1.24a.91.91,0,0,1-.14,1.06l-1.33,1.34a14.66,14.66,0,0,1,1.3,4l1.86.29a.91.91,0,0,1,.73.78s.09.83.09,1.61S116.14,85.39,116.14,85.39Z"/></svg>