<svg id="Icon" xmlns="http://www.w3.org/2000/svg" viewBox="0 0 140 140"><defs><style>.cls-1{fill:#503291;}</style></defs><path class="cls-1" d="M36.15,84a9.53,9.53,0,0,0-1,13.34,9.26,9.26,0,0,0,13.18,1,9.54,9.54,0,0,0,1-13.34A9.26,9.26,0,0,0,36.15,84Z"/><path class="cls-1" d="M86.37,61.08c1.91,5.26,6.85,7.82,11,5.72s6-8.07,4.14-13.33-6.85-7.83-11-5.72S84.47,55.82,86.37,61.08Z"/><path class="cls-1" d="M43.12,67c1.3,3.41,4.67,5,7.53,3.62s4.12-5.3,2.82-8.7-4.67-5-7.53-3.61S41.82,63.6,43.12,67Z"/><path class="cls-1" d="M82.68,92.15C87,95.43,93.8,94.33,97.88,89.7s3.91-11-.4-14.32S86.37,73.2,82.29,77.83,78.38,88.87,82.68,92.15Z"/><path class="cls-1" d="M87.23,41.49A6.79,6.79,0,0,0,89,31.93a7.07,7.07,0,0,0-9.79-1.39,6.79,6.79,0,0,0-1.78,9.56A7.09,7.09,0,0,0,87.23,41.49Z"/><path class="cls-1" d="M68.16,52.31A8.53,8.53,0,0,0,69.4,40.13a9,9,0,0,0-12.49-.63,8.52,8.52,0,0,0-1.23,12.17A9,9,0,0,0,68.16,52.31Z"/><path class="cls-1" d="M69.91-.08A70,70,0,0,0,5,96.07c.37.91,1.71,4.38,2.13,5.14A10.61,10.61,0,0,0,27,96.1c0-.34-.57-4.13-.74-4.93C18.6,54.49,82.1-9.68,106.94,41.73c19.2,47.45-37.31,90.26-39.68,64.64-.12-4,2.95-12-2-14.45C60,89.34,57,95.21,53.37,100.64c-.52.78-1.06,1.56-1.61,2.31-2.2,4.43-6.56,5.18-11,4.94-2.66-.14-6.14-2-7.48-2a10.67,10.67,0,0,0-8,17.75,44.36,44.36,0,0,0,3.94,3.24A70,70,0,1,0,69.91-.08Z"/></svg>