<svg id="Icon" xmlns="http://www.w3.org/2000/svg" viewBox="0 0 140 140"><defs><style>.cls-1{fill:#503291;}</style></defs><path class="cls-1" d="M120.48,21.25a69.86,69.86,0,0,0-98.84-2C-.76,40.78-6.15,73.87,7.12,100.19c7.75,15.39,21.14,8.08,20-3.7A5.82,5.82,0,0,0,26.4,94a50,50,0,1,1,29.33,23.37h0l-.13,0a49.57,49.57,0,0,1-10.71-4.62,7.86,7.86,0,0,0-2.89-.94c-10.75-1.68-25.24,7.93-5.78,19A69.89,69.89,0,0,0,120.48,21.25Z"/><circle class="cls-1" cx="69.87" cy="69.89" r="3.5"/><path class="cls-1" d="M69.94,29.47a40,40,0,1,0,40,40A40.05,40.05,0,0,0,69.94,29.47ZM86.5,47.4,76.24,71.92a9.89,9.89,0,0,1-1.9,2.91L56,94.05c-.46.48-1.42,1.49-2.36,1.49a1.18,1.18,0,0,1-.68-.21c-1.12-.73-.36-2.53,0-3.3L63.22,67.46A9,9,0,0,1,65,64.7l18.4-19.31c.57-.61,1.92-2,3-1.29S86.82,46.63,86.5,47.4Z"/><circle class="cls-1" cx="69.9" cy="69.75" r="3.5"/></svg>