<svg id="Icon" xmlns="http://www.w3.org/2000/svg" viewBox="0 0 140 140"><defs><style>.cls-1{fill:#503291;}</style></defs><path class="cls-1" d="M70,.31a70,70,0,0,0-70,70C0,109,31.32,140,70,140.31a64.1,64.1,0,0,0,29.48-6.9l2.14-1.11a9.72,9.72,0,0,0-6.79-18.07c-.77.19-4.15,1.61-5.13,2a49.92,49.92,0,0,1-49.63-5.92,8.79,8.79,0,0,1-3.53-6.77h0a95.56,95.56,0,0,1,.11-11.1c1-11.36,8.84-18.89,18.88-22.5a5.82,5.82,0,0,1,4.82.43,20.16,20.16,0,0,0,10,2.75,18.84,18.84,0,0,0,9.67-2.62,5.93,5.93,0,0,1,5-.51c11.58,4.18,20.49,13.57,19.9,28.34,0,.77,0,3.64,0,4.31a11.78,11.78,0,0,0,11.83,11.83c8.89-.13,12.28-6.43,12.5-6.78C136,97,139.54,84,140,70.31,141.22,32.45,108.64.31,70,.31ZM85.28,51c-9.79,25.92-31.75,12.47-32.39-9.92C53.61,14.15,96.76,20.21,85.28,51Z"/><path class="cls-1" d="M86.77,103.4a1,1,0,0,0,1-.53s.35-.81.59-1.57.4-1.49.4-1.49a1,1,0,0,0-.48-1l-1.81-.91a15.78,15.78,0,0,0,0-4.12l1.77-.89a1,1,0,0,0,.48-1s-.17-.76-.41-1.49-.6-1.56-.6-1.56a1,1,0,0,0-1-.54l-1.94.31a15.07,15.07,0,0,0-2.55-3.49l.88-1.75a1,1,0,0,0-.21-1.1s-.59-.51-1.21-1-1.41-.9-1.41-.9a1,1,0,0,0-1.11.15l-1.37,1.4a15.51,15.51,0,0,0-3.89-1.25l-.31-2a1,1,0,0,0-.81-.76s-.87-.09-1.68-.09-1.54.07-1.54.07a1,1,0,0,0-.81.77l-.31,2h0a17.55,17.55,0,0,0-2,.5,15.1,15.1,0,0,0-1.94.78,0,0,0,0,1,0,0l-1.44-1.45a1,1,0,0,0-1.1-.15s-.68.4-1.3.85-1.3,1-1.3,1a1,1,0,0,0-.21,1.1l.92,1.8,0,0a15.2,15.2,0,0,0-2.48,3.44l0,0-2-.31a1,1,0,0,0-1,.53s-.31.72-.55,1.45-.42,1.62-.42,1.62a1,1,0,0,0,.48,1l1.81.9h0a15.36,15.36,0,0,0,0,4.12l-.07,0-1.81.91a1,1,0,0,0-.48,1s.19.85.44,1.62.54,1.44.54,1.44a1,1,0,0,0,1,.54l2-.33s0,0,.08,0a15,15,0,0,0,2.5,3.42s0,0-.06.08l-.91,1.8a1,1,0,0,0,.21,1.1s.65.58,1.31,1,1.29.83,1.29.83a.94.94,0,0,0,1.1-.15l1.43-1.45s0,0,0-.08A15.06,15.06,0,0,0,68.44,111v0l.31,2a1,1,0,0,0,.81.77s.78.07,1.54.07,1.68-.09,1.68-.09a1,1,0,0,0,.81-.76l.31-2v0a15.35,15.35,0,0,0,2-.51,15.05,15.05,0,0,0,1.9-.76h0l1.42,1.44a1,1,0,0,0,1.11.15s.76-.44,1.41-.91,1.2-1,1.2-1a1,1,0,0,0,.21-1.09l-.93-1.81a15.29,15.29,0,0,0,2.5-3.44Zm-15.6.21a7.76,7.76,0,1,1,7.76-7.76A7.75,7.75,0,0,1,71.17,103.61Z"/></svg>