<svg id="Icon" xmlns="http://www.w3.org/2000/svg" viewBox="0 0 140 140"><defs><style>.cls-1{fill:#503291;}</style></defs><path class="cls-1" d="M119.2,20.5a70,70,0,0,0-99,0h0a70,70,0,0,0,85.36,109.61l.75-.45c7.11-4.13,5.41-9.66,4-11.39-.41-.49-3.13-3.22-3.13-3.22a2.92,2.92,0,0,0-2.87-.24l-1,.5a2.46,2.46,0,0,1-2.72-.41l-3.2-3.2a1.72,1.72,0,0,1,0-2.42L109,97.68a1.72,1.72,0,0,1,2.42,0l3.2,3.2a2.46,2.46,0,0,1,.41,2.72l-.5,1a2.92,2.92,0,0,0,.24,2.87s2.73,2.72,3.22,3.13c1.73,1.46,7.26,3.16,11.39-4l.45-.75A70,70,0,0,0,119.2,20.5ZM103.11,84.88A2.22,2.22,0,0,1,99.36,86l-9.72-9.56A9.31,9.31,0,1,0,76.48,89.62l9.57,9.71a2.23,2.23,0,0,1-1.14,3.76,23.19,23.19,0,0,1-21.57-6.44A23.51,23.51,0,0,1,56.81,75.9a3.89,3.89,0,0,0-.68-2.84L30.77,47.68c-5-4.94-5.08-11.86,0-16.93h0c5.08-5.07,12-5,16.94,0L73.08,56.11a4,4,0,0,0,2.84.68,23.52,23.52,0,0,1,20.76,6.52A23.18,23.18,0,0,1,103.11,84.88Z"/></svg>