<svg id="Icon" xmlns="http://www.w3.org/2000/svg" viewBox="0 0 140 140"><defs><style>.cls-1{fill:#503291;}</style></defs><path class="cls-1" d="M81.75,39.18c.16,5.4,5.45,8.64,7.81,2.39C92.32,34.16,81.93,32.7,81.75,39.18Z"/><path class="cls-1" d="M94.11,54.24h0a24.94,24.94,0,0,0,0-2.67,5.84,5.84,0,0,0-1.16-3l0,0-.05-.07a7.61,7.61,0,0,0-3.35-2.27,1.33,1.33,0,0,0-.88,0l-.25.11a4,4,0,0,1-.46.23,4.46,4.46,0,0,1-1.94.43h0a4.51,4.51,0,0,1-2-.43,4.78,4.78,0,0,1-.45-.23l-.25-.11a1.36,1.36,0,0,0-.89,0,7.64,7.64,0,0,0-3.34,2.27.18.18,0,0,0,0,.07l0,0a5.75,5.75,0,0,0-1.16,3,22.56,22.56,0,0,0,0,2.67h0a2.09,2.09,0,0,0,.85,1.63,11.48,11.48,0,0,0,2.08,1.25l.11,0,.64.23c.27.11.56.21.85.31a11.59,11.59,0,0,0,7.24,0l.85-.31.64-.23.11,0a11.83,11.83,0,0,0,2.08-1.25A2.12,2.12,0,0,0,94.11,54.24Z"/><path class="cls-1" d="M94.41,80.21H45.66a2.5,2.5,0,0,1,0-5H94.41a2.5,2.5,0,0,1,0,5Z"/><path class="cls-1" d="M94.41,90.87H45.66a2.5,2.5,0,0,1,0-5H94.41a2.5,2.5,0,0,1,0,5Z"/><path class="cls-1" d="M94.41,69.56H45.66a2.5,2.5,0,0,1,0-5H94.41a2.5,2.5,0,0,1,0,5Z"/><path class="cls-1" d="M66.41,56.56H45.66a2.5,2.5,0,0,1,0-5H66.41a2.5,2.5,0,0,1,0,5Z"/><path class="cls-1" d="M66.41,45.56H45.66a2.5,2.5,0,0,1,0-5H66.41a2.5,2.5,0,0,1,0,5Z"/><path class="cls-1" d="M85,103.86V103a1.53,1.53,0,0,1,.43-1.15l2.72-2.64-2.72-2.65A1.56,1.56,0,0,1,85,95.39v-.94c0-.18.08-.28.24-.28h1a1.57,1.57,0,0,1,1.16.43l1.74,1.78a1.23,1.23,0,0,0,.89.41,1.28,1.28,0,0,0,.92-.41L92.7,94.6a1.53,1.53,0,0,1,1.15-.43h.92c.16,0,.23.1.23.28v.88a1.51,1.51,0,0,1-.43,1.15l-2.71,2.66,2.71,2.63a1.51,1.51,0,0,1,.43,1.15v.94c0,.18-.07.27-.23.27h-1a1.49,1.49,0,0,1-1.15-.43l-1.74-1.77a1.2,1.2,0,0,0-.9-.41,1.24,1.24,0,0,0-.91.41l-1.74,1.77a1.52,1.52,0,0,1-1.15.43h-.92Q85,104.13,85,103.86Z"/><path class="cls-1" d="M69.91-.08a70,70,0,0,0-65,95.84c.49,1.21,2.19,5.83,2.69,6.86a15.94,15.94,0,0,0,30.33-6.29h0V34a6,6,0,0,1,6-6H95.32a6,6,0,0,1,6,6V104.6a6,6,0,0,1-6,6H50.51s-8.42-.19-9.32,0a12.05,12.05,0,0,0-9.25,11.71c.22,9,6.83,10.65,14.14,13.37a68,68,0,0,0,23.83,4.21,70,70,0,0,0,0-140Z"/></svg>