<svg id="Icon" xmlns="http://www.w3.org/2000/svg" viewBox="0 0 140 140"><defs><style>.cls-1{fill:#503291;}</style></defs><path class="cls-1" d="M84.53,96.92H72.62a4.5,4.5,0,0,1-8.28,0H52.47a1.78,1.78,0,0,0-1.76,1.69v4.84A2.48,2.48,0,0,0,53.29,106H83.67c2.58,0,2.58-2.09,2.58-2.09V98.7S86.18,96.92,84.53,96.92Z"/><path class="cls-1" d="M84.53,81.38H72.62a4.5,4.5,0,0,1-8.28,0H52.47a1.78,1.78,0,0,0-1.76,1.69V87.9a2.49,2.49,0,0,0,2.58,2.55H83.67c2.58,0,2.58-2.09,2.58-2.09V83.15S86.18,81.38,84.53,81.38Z"/><path class="cls-1" d="M139.91,69.92a70,70,0,1,0-70,70,68.36,68.36,0,0,0,7.61-.43c.54-.06,2.7-.33,3.57-.45s2.09-.27,2.38-.32a12.51,12.51,0,0,0-1-24.79c-.37,0-1.12-.05-1.12-.05H46.09a3.73,3.73,0,0,1-3.7-3.57c0-.41.06-.82.06-1.24V92.38a3.57,3.57,0,0,0-1.69-2.78L26.22,80.5a3.17,3.17,0,0,1-1.63-2.68l.08-3.75A1.13,1.13,0,0,1,26.4,73l14.38,6.74s1.67.58,1.67-1.32V71.14c0-1.36-1.73-2.32-1.73-2.32l-14.5-7.15A3.17,3.17,0,0,1,24.59,59l.08-3.76a1.13,1.13,0,0,1,1.73-1.07L40.75,59a1.28,1.28,0,0,0,1.7-1.33V56.38a3.73,3.73,0,0,1,3.72-3.73H90.86a3.74,3.74,0,0,1,3.73,3.73v50.85s0,2.35,0,2.67a14.57,14.57,0,0,0,24.61,9.58l1-.88c.33-.33.65-.67,1-1A69.7,69.7,0,0,0,139.91,69.92ZM91.56,29.43,44.29,45.92a1.27,1.27,0,0,1-1.84-1.21V39a2.72,2.72,0,0,1,1.87-2.42L87.67,23.78a2.86,2.86,0,0,1,3,1l1.71,2.45A1.39,1.39,0,0,1,91.56,29.43Z"/></svg>