<svg id="Icon" xmlns="http://www.w3.org/2000/svg" viewBox="0 0 140 140"><defs><style>.cls-1{fill:#503291;}</style></defs><path class="cls-1" d="M136.89,49.54s-.36-1.09-.58-1.61a14.14,14.14,0,0,0-26.34.51,22.1,22.1,0,0,0-.66,2.49s-.2,1.08-.33,1.55a15,15,0,0,1-3.15,5.61L89.31,77.28H97c5.19,0,7.71,2.52,7.71,7.71v1.73c0,1.26-.79,1.89-2.21,1.89H80.34v28.47c0,1.41-.63,2.2-1.88,2.2H70.75c-7.71,0-12.43-4.56-12.43-12.43V88.61H41.65c-5.19,0-7.71-2.52-7.71-7.71V79.17c0-1.26.79-1.89,2.2-1.89H48.88L32.68,58.4a14.91,14.91,0,0,1-3.46-9.28V41.26c0-1.42.63-2.2,1.89-2.2H38.5c4.25,0,7.24,1.1,9.28,3.46l14.63,17.3a10.69,10.69,0,0,0,7.24,3.3A10.14,10.14,0,0,0,77,59.82L91.2,43a11.42,11.42,0,0,1,9-3.93l2.18-.13c12.5-.38,16.94-12.26,12.74-21.06a16.45,16.45,0,0,0-1.82-2.62,18.33,18.33,0,0,0-1.62-1.51,70.49,70.49,0,0,0-6.77-4.45c-.55-.32-1.1-.61-1.66-.91s-1.15-.64-1.74-.94l0,0c-1-.52-2.08-1-3.14-1.49h0a69.92,69.92,0,1,0,39,44.94Z"/></svg>