<svg id="Icon" xmlns="http://www.w3.org/2000/svg" viewBox="0 0 140 140"><defs><style>.cls-1{fill:#503291;}</style></defs><path class="cls-1" d="M75.66,86.87c6.51-.32,10.41-1,10.41-4.39,0-4.23-5.37-6-10.41-6.67Z"/><path class="cls-1" d="M49.8,50.44c0,2.92,5.69,4.55,10.25,5.36l1.14.17V46.21l-5.7.49C51.43,47.18,49.8,48.32,49.8,50.44Z"/><path class="cls-1" d="M139.91,69.92a70,70,0,1,0-35.2,60.73c.24-.14,4.06-2.59,4.06-2.59a15.33,15.33,0,0,0,1.14-1.14,13.66,13.66,0,0,0-8.57-22.68c-.43,0-2.8-.13-2.8-.13H75.66v3.58c0,1.3-.81,2-2.28,2H69.16c-4.56,0-7.16-2-7.81-6a116.3,116.3,0,0,1-20.82-3.74c-6-1.63-10.74-3.58-14-6a2,2,0,0,1-1.14-1.62,1.66,1.66,0,0,1,.65-1.3l7-6.84c2.6-2.6,5.53-4.06,8.62-2.76l3.09,1.46c4.06,2,11.55,3.26,16.43,3.74V74.18L60.05,74C40.2,70.44,27.84,64.91,27.84,50.27c0-15.45,14.31-20.49,33.35-21.14V25.39c0-1.31.81-2,2.27-2h4.23q6.59,0,7.81,5.86c12,.81,23.75,3.09,32.53,8.78.81.49,1.14,1,1.14,1.63a1.7,1.7,0,0,1-.65,1.3l-6.35,7.16c-2.6,2.6-4.71,4.23-8.13,2.76a64.29,64.29,0,0,0-18.38-4.23V58.24C97,61.66,109.17,69.47,109.17,87.52v2.74s.09,2.27.16,2.8a13.25,13.25,0,0,0,25.54,3.09c.13-.34.61-1.72.73-2.06A69.65,69.65,0,0,0,139.91,69.92Z"/></svg>