<svg id="Icon" xmlns="http://www.w3.org/2000/svg" viewBox="0 0 140 140"><defs><style>.cls-1{fill:#503291;}</style></defs><path class="cls-1" d="M139.91,69.92A70,70,0,1,0,98.77,133.7c.28-.13,1.38-.72,1.65-.88a14,14,0,0,0-5.92-26h0a23.82,23.82,0,0,0-2.39,0H37.7c-1.44,0-2.24-.64-2.24-1.92V72.24H34c-5.61,0-8.17-3.2-8.17-7.53V61.35c0-1.28.8-1.92,2.24-1.92h7.37c0-23.37,13.77-35.86,37.78-35.86,9.44,0,21.61,3.36,29.13,8.65,1.28.8,1.93,1.6,1.93,2.24a4.48,4.48,0,0,1-.49,1.28L97.57,46.15c-2.24,4.16-5.76,3.2-9.6,1.76A40.24,40.24,0,0,0,73.24,44.7C63,44.7,57.87,48.55,57.87,56.39v3H76.92c5.6,0,8.16,3.2,8.16,7.53v3.36c0,1.28-.8,1.92-2.24,1.92h-25v5.28c0,5.45,2.72,8.17,8.32,8.17H94.85c7.84,0,12.65,4.64,12.65,12.64,0,0,0,1.49,0,1.64a12,12,0,0,0,22.16,6.23c.12-.2.76-1.18.94-1.48A69.73,69.73,0,0,0,139.91,69.92Z"/></svg>