<svg id="Icon" xmlns="http://www.w3.org/2000/svg" viewBox="0 0 140 140"><defs><style>.cls-1{fill:#503291;}</style></defs><path class="cls-1" d="M140.16,69.73a70,70,0,1,0-42.91,64.55c.39-.16,5.09-2.07,6.72-3.51a13.45,13.45,0,0,0-9-23.45H74c-19,0-34.58-9.4-41.27-27.09H30.21c-5.25,0-7.8-2.55-7.8-7.8V70.68c0-1.27.79-1.91,2.23-1.91h5.41l-.47-4.14c-4.78-.16-7.17-2.87-7.17-7.81V55.07c0-1.27.79-1.91,2.23-1.91h5.57C33.4,35,47.1,26.08,66.38,26.08H89.16c7.81,0,12.59,4.62,12.59,12.58v6.53c0,1.28-.8,1.91-2.23,1.91H68.13c-6.85,0-11.63,2.08-14.18,6.06H87.09c5.26,0,7.81,2.55,7.81,7.81v1.75c0,1.27-.8,1.91-2.24,1.91H52a17.37,17.37,0,0,0,1,4.14H87.09c5.26,0,7.81,2.55,7.81,7.81v1.75c0,1.28-.8,1.91-2.24,1.91H60.16A25.52,25.52,0,0,0,77.05,86.3h14c6.19,0,10.47,2.9,12,8.07.06.21.75,2.25.88,2.6a16.41,16.41,0,0,0,30.63.5c.23-.57,1.49-4.07,1.9-5.25A70,70,0,0,0,140.16,69.73Z"/></svg>