<svg id="Icon" xmlns="http://www.w3.org/2000/svg" viewBox="0 0 140 140"><defs><style>.cls-1{fill:#503291;}</style></defs><path class="cls-1" d="M69.68,76.2a4,4,0,0,1-4-4V49.3a4,4,0,0,1,8,0V72.2A4,4,0,0,1,69.68,76.2Z"/><path class="cls-1" d="M69.91-.08a70,70,0,0,0-70,70A81.21,81.21,0,0,0,1.2,83.84l0,.1c.07.36.15.72.24,1.07A30,30,0,0,0,3,88.71a16.81,16.81,0,0,0,28,2c.5-.65,9.72-16.84,9.72-16.84L67,28.38c1.65-2.86,4.35-2.86,6,0l39.1,67.73c1.65,2.86.3,5.2-3,5.2H39.52a29.62,29.62,0,0,0-3.12,0,14.29,14.29,0,0,0-6.17,26.28c.36.23,1.81,1.21,2.18,1.44A70,70,0,1,0,69.91-.08Z"/><circle class="cls-1" cx="69.83" cy="84.98" r="5"/></svg>