<svg id="Icon" xmlns="http://www.w3.org/2000/svg" viewBox="0 0 140 140"><defs><style>.cls-1{fill:#503291;}</style></defs><path class="cls-1" d="M64.75,48.27a2.49,2.49,0,0,1,2.32-1.87H78.45a1.05,1.05,0,0,1,1,1.69L69.59,66.55a1.06,1.06,0,0,0,1,1.69H77a1.06,1.06,0,0,1,1,1.69L66.21,92.76c-.48.93-.79.84-.67-.2l1.88-17.37a1.67,1.67,0,0,0-1.7-1.9h-4.5a1.47,1.47,0,0,1-1.5-1.87Z"/><path class="cls-1" d="M69.91-.08a70,70,0,0,0-70,70A81.21,81.21,0,0,0,1.2,83.84l0,.1c.07.36.15.72.24,1.07A30,30,0,0,0,3,88.71a16.81,16.81,0,0,0,28,2c.5-.65,9.72-16.84,9.72-16.84L67,28.38c1.65-2.86,4.35-2.86,6,0l39.1,67.73c1.65,2.86.3,5.2-3,5.2H39.52a29.62,29.62,0,0,0-3.12,0,14.29,14.29,0,0,0-6.17,26.28c.36.23,1.81,1.21,2.18,1.44A70,70,0,1,0,69.91-.08Z"/></svg>