<?xml version="1.0" encoding="utf-8"?>
<!-- Generator: Adobe Illustrator 25.4.1, SVG Export Plug-In . SVG Version: 6.00 Build 0)  -->
<svg version="1.1" id="Icon" xmlns="http://www.w3.org/2000/svg" xmlns:xlink="http://www.w3.org/1999/xlink" x="0px" y="0px"
	 viewBox="0 0 140.2 140.2" style="enable-background:new 0 0 140.2 140.2;" xml:space="preserve">
<style type="text/css">
	.st0{fill:#503291;}
</style>
<g>
	<path class="st0" d="M-72.7,85.2c0-1.8-11.5-3.3-25.7-3.3c-14.2,0-25.7,1.5-25.7,3.3c0,1.8,11.5,3.3,25.7,3.3
		C-84.2,88.5-72.7,87-72.7,85.2z"/>
	<path class="st0" d="M-124.4,89.6l0,10.2c0,0,0.1,4.2,25.4,4c25.4-0.2,26.4-3.5,26.4-3.5V89.9c0,0-8.5,2.8-25.6,2.7
		C-115,92.5-124,90.4-124.4,89.6z"/>
	<path class="st0" d="M-29.8,99.1c-0.1-0.7-0.5-3.2-0.9-5.3c-0.2-1.1-1.5-4.3-2-5c-2.6-3.9-7-6.4-12-6.4c-7.3,0-13.3,5.4-14.2,12.4
		c-0.1,0.6-0.1,3.2,0,3.8v6.8c0,1.8-0.1,3.6-0.3,5.4c-2-0.6-4.2-0.9-6.4-0.9c-2.4,0-4.8,0.4-7,1.1v-5.7c0,0-8.5,2.8-25.6,2.7
		c-17-0.1-25.9-2.2-26.3-3.1l0,10.2c0,0,0.1,4.2,25.4,4c7-0.1,12.1-0.4,15.9-0.8c-1.1,1.4-2.1,2.9-2.8,4.6
		c-3.4,0.3-7.5,0.5-12.2,0.5c-16.9-0.1-25.9-2.2-26.3-3.1l0,0.2c-0.1-0.1-0.2-0.2-0.2-0.2l0,10.2c0,0,0.1,4,23.3,4
		c0.8,0,1.6,0,2.4,0c4.4,0,8.1-0.2,11.2-0.4c0.5,5.8,3.2,10.9,7.3,14.6c-4.7,3.5-9.9,6.3-15.7,8.2l-2.2,0.7c-0.6,0.2-1.3,0.2-1.9,0
		l-2.2-0.7c-22.3-7.3-37.3-28-37.3-51.6V81.1c0-1.4,1-2.6,2.4-2.9l5.5-1.2c12.1-2.6,20.7-7.9,26.8-12.3l4-2.8c1-0.7,2.4-0.7,3.4,0
		l4,2.8c6.6,4.6,14.2,9.2,24.9,11.9c0.6,0.2,5,1.2,6.4,1.2c7.1,0,12.8-5.7,12.8-12.8c0-4.2-2.1-8-5.2-10.3c-0.6-0.4-2.8-1.9-3.3-2.2
		C-69.5,43.9-83.7,39-99.1,39h0c-38.7,0-70,31.3-70,70c0,38.7,31.3,70,70,70c38.7,0,70-31.3,70-70C-29.1,105.6-29.3,102.3-29.8,99.1
		z M-65.5,148.7c-4,0-7.6-1.4-10.4-3.7c-3.3-2.7-5.6-6.7-6-11.3c0,0,0,0,0,0c0-0.5-0.1-1-0.1-1.5c0-3.8,1.3-7.3,3.5-10.1
		c0,0,0,0,0,0c3-3.8,7.7-6.3,13-6.3c1.9,0,3.8,0.3,5.5,1c6.4,2.3,11,8.4,11,15.5C-49,141.3-56.4,148.7-65.5,148.7z"/>
	<path class="st0" d="M-58.2,128.6c-0.1,0-0.2-0.1-0.3-0.1h-1.9c-0.1,0-0.2-0.1-0.2-0.2v-1.7v-0.6c0-0.1,0-0.1,0-0.2c0,0,0,0,0-0.1
		c0-1.3-0.5-2.4-1.4-3.3c-0.9-0.9-2.1-1.4-3.5-1.4c0,0,0,0,0,0h0h0c0,0,0,0,0,0c-2.7,0-4.9,2-4.9,4.6c0,0,0,0,0,0.1
		c0,0.1,0,0.1,0,0.2v2.3c0,0.1-0.1,0.2-0.2,0.2h-1.9h0h0c-0.1,0-0.2,0-0.2,0c-0.6,0.1-1,0.6-1,1.2v1v0.1v9c0,0.7,0.4,0.9,0.7,1.1
		c0.3,0.1,0.6,0.1,0.6,0.1h9.9h4.3c0.6-0.1,1-0.6,1-1.2v-10.1C-57.2,129.3-57.7,128.8-58.2,128.6z M-64.5,135
		C-64.5,135-64.5,135-64.5,135l-0.1,3c0,0.4-0.3,0.9-0.7,1c-0.7,0.2-1.4-0.3-1.4-1v-2.2v-0.7c0,0,0-0.1-0.1-0.1
		c-0.4-0.3-0.7-0.7-0.8-1.2c0-0.1,0-0.3,0-0.4c0-0.9,0.6-1.6,1.4-1.8c0.3-0.1,0.6-0.1,0.9,0c0.4,0.1,0.8,0.3,1.1,0.6
		c0.2,0.3,0.4,0.6,0.5,0.9C-63.5,133.8-63.9,134.6-64.5,135z M-63.1,127.7c0,0.2-0.1,0.3-0.3,0.3h-0.8h-3.5c-0.2,0-0.3-0.1-0.3-0.3
		v-1.9c0-1.3,1.1-2.5,2.5-2.5h0c1.3,0,2.3,1.1,2.4,2.3c0,0.1,0,0.2,0,0.2V127.7z"/>
</g>
</svg>
