<svg id="Icon" xmlns="http://www.w3.org/2000/svg" viewBox="0 0 140 140"><defs><style>.cls-1{fill:#503291;}</style></defs><path class="cls-1" d="M136.92,48.93a14.23,14.23,0,0,0-27.38,1.8c-.19.92-.2,6-.2,6V85a1,1,0,0,0,1,1h6.28a2,2,0,0,1,2,2v2.53A5.47,5.47,0,0,1,113.15,96H26.88a5.47,5.47,0,0,1-5.47-5.47V88a2,2,0,0,1,2-2h6.28a1,1,0,0,0,1-1V44.2a6,6,0,0,1,6-6H98.81s7,0,7.76-.09a13.36,13.36,0,0,0,4.94-24.42l0,0a69.91,69.91,0,1,0,27.09,42.87C138.33,55,137.27,50,136.92,48.93Z"/><path class="cls-1" d="M98.34,46.2H41.69a3,3,0,0,0-3,3V85a1,1,0,0,0,1,1H60.18a1,1,0,0,1,1,1v1.28a2,2,0,0,0,2,2H76.85a2,2,0,0,0,2-2V87a1,1,0,0,1,1-1h20.49a1,1,0,0,0,1-1V49.2A3,3,0,0,0,98.34,46.2Zm-23.9,14c-3,7.91-9.68,3.81-9.88-3C64.78,49,77.94,50.82,74.44,60.2Zm6,14.45c0,.61-.06,1.19-.08,1.76a1.74,1.74,0,0,1-.58,1.19,15.23,15.23,0,0,1-19.14.71,2.68,2.68,0,0,1-1.08-2.06h0a33,33,0,0,1,0-3.38c.31-3.47,2.7-5.76,5.76-6.86a1.72,1.72,0,0,1,1.47.13A6.19,6.19,0,0,0,69.9,67a5.84,5.84,0,0,0,2.95-.8A1.79,1.79,0,0,1,74.38,66C77.91,67.29,80.63,70.15,80.45,74.65Z"/></svg>