<svg id="Icon" xmlns="http://www.w3.org/2000/svg" viewBox="0 0 140 140"><defs><style>.cls-1{fill:#503291;}</style></defs><path class="cls-1" d="M69.69.05A70,70,0,0,0,5.44,97.79c.21.5,1,2.36,1.13,2.78a14.44,14.44,0,0,0,26.6.12,7.23,7.23,0,0,0,.25-1.11c.12-1.25.25-2.46.36-3.58a2,2,0,0,1,2.39-1.87l.36,0c.45,0,.72.07.93.29s.25.61.19,1.3l-.34,3.61,7-7,.42-.4a.92.92,0,0,1,1.33,0l.46.45.36.39a2.09,2.09,0,0,1-.16,3c-.76.78-1.53,1.54-2.3,2.31l-4.23,4.23,1.38-.13,2.68-.26a1,1,0,0,1,.86.24,1.12,1.12,0,0,1,.3.68,2.88,2.88,0,0,1-.37,2.21,2.76,2.76,0,0,1-2.08.84c-1.12.08-2.23.18-3.37.3l-.56.05a7.24,7.24,0,0,0-1.09.25,13.89,13.89,0,0,0-1.24,25.36c.36.19,1.84.89,2.2,1.07A70,70,0,1,0,69.69.05ZM91.43,45.26c.12-.15.26-.28.39-.42l7.05-7.05-3.6.34c-.69.07-1,.09-1.31-.18a1.39,1.39,0,0,1-.28-.93l0-.36a2,2,0,0,1,1.87-2.39c2.2-.23,4.75-.49,7.25-.68a3.05,3.05,0,0,1,2.41.84,3.1,3.1,0,0,1,.84,2.49c-.07.88-.16,1.76-.24,2.64l0,.17c-.13,1.27-.25,2.51-.34,3.76a2.79,2.79,0,0,1-.83,2.07,2.84,2.84,0,0,1-2.21.37,1.16,1.16,0,0,1-.68-.29,1,1,0,0,1-.25-.86c.09-.9.18-1.79.26-2.68l.13-1.38L97.62,45l-2.31,2.3a2.1,2.1,0,0,1-3,.15q-.2-.16-.39-.36l-.44-.46A.91.91,0,0,1,91.43,45.26Zm-47.62,2L41.51,45l-4.23-4.23.13,1.38c.08.89.17,1.78.26,2.68a1,1,0,0,1-.24.86,1.22,1.22,0,0,1-.69.29,2.84,2.84,0,0,1-2.21-.37,2.79,2.79,0,0,1-.83-2.07c-.09-1.25-.21-2.49-.34-3.76v-.17c-.09-.88-.18-1.76-.25-2.64A3.07,3.07,0,0,1,34,34.43a3,3,0,0,1,2.4-.84c2.5.19,5.06.45,7.25.68a2,2,0,0,1,1.88,2.39l0,.36a1.29,1.29,0,0,1-.28.93c-.27.27-.61.25-1.31.18l-3.6-.34,7,7.05c.13.14.27.27.4.42a.91.91,0,0,1,0,1.32l-.45.46q-.19.2-.39.36A2.1,2.1,0,0,1,43.81,47.25ZM61.76,89.16A2.48,2.48,0,0,1,59,91.63a2.54,2.54,0,0,1-2.23-2.57V82.33a2.63,2.63,0,0,0-.74-1.82L50.6,76.38a2.62,2.62,0,0,1-.73-1.82V64.79a2.58,2.58,0,0,0-1.08-2.06,5.93,5.93,0,0,1,3.8-10.67,6,6,0,0,1,5.69,5.82,5.92,5.92,0,0,1-2.4,4.87,2.55,2.55,0,0,0-1.06,2v7.77a2.63,2.63,0,0,0,.74,1.82L61,78.51a2.62,2.62,0,0,1,.73,1.82Zm4.53-26.41a5.94,5.94,0,1,1,7.09,0,2.58,2.58,0,0,0-1.08,2.06V89.16a2.48,2.48,0,0,1-2.72,2.47,2.54,2.54,0,0,1-2.23-2.57V64.79A2.55,2.55,0,0,0,66.29,62.75Zm23.83,2v9.77a2.63,2.63,0,0,1-.74,1.82l-5.46,4.13a2.59,2.59,0,0,0-.74,1.82v6.73A2.55,2.55,0,0,1,81,91.63a2.48,2.48,0,0,1-2.72-2.47V80.33A2.62,2.62,0,0,1,79,78.51l5.47-4.13a2.62,2.62,0,0,0,.73-1.82V64.79a2.53,2.53,0,0,0-1.06-2,5.91,5.91,0,0,1-2.39-4.87A5.93,5.93,0,0,1,93.57,58a5.89,5.89,0,0,1-2.38,4.74A2.6,2.6,0,0,0,90.12,64.79Zm15.06,40.87a3.08,3.08,0,0,1-2.5.85l-2.63-.25-.17,0c-1.28-.12-2.52-.25-3.76-.33a2.74,2.74,0,0,1-2.07-.84,2.84,2.84,0,0,1-.37-2.21,1.16,1.16,0,0,1,.29-.68,1,1,0,0,1,.86-.24l2.68.26,1.38.13L94.66,98.1c-.77-.77-1.54-1.53-2.3-2.31a2.09,2.09,0,0,1-.15-3,4.4,4.4,0,0,1,.35-.39l.46-.45a.92.92,0,0,1,1.33,0l.42.4,7,7-.34-3.61c-.07-.69-.09-1,.18-1.3a1.34,1.34,0,0,1,.93-.29l.36,0A2,2,0,0,1,105.34,96c.23,2.2.49,4.76.67,7.26A3,3,0,0,1,105.18,105.66Z"/></svg>