<svg id="Icon" xmlns="http://www.w3.org/2000/svg" viewBox="0 0 140 140"><defs><style>.cls-1{fill:#503291;}</style></defs><path class="cls-1" d="M70,.05A70,70,0,1,0,94.24,135.73c1-.3,3.13-1.26,3.13-1.26.32-.16.62-.33.92-.5a18.72,18.72,0,0,0,9.35-16.21,18.51,18.51,0,0,0-2.24-8.82,11.56,11.56,0,0,0-1-1.46c-.67-.73-1.64-1.63-1.9-1.89l-2.31-2.3L96,99.06l.13,1.38c.09.9.17,1.79.27,2.68a1,1,0,0,1-.25.86,1.12,1.12,0,0,1-.68.3,2.89,2.89,0,0,1-2.21-.37,2.8,2.8,0,0,1-.84-2.08c-.08-1.24-.2-2.48-.33-3.75l0-.18c-.08-.88-.17-1.75-.24-2.63a3.12,3.12,0,0,1,.84-2.5,3,3,0,0,1,2.4-.83c2.5.18,5.06.44,7.26.67A2,2,0,0,1,104.16,95l0,.36c0,.45-.07.72-.28.93s-.62.25-1.31.19l-3.6-.34,7,7a5.36,5.36,0,0,1,.4.43c.21.23,2.39,2.1,2.68,2.25a18.71,18.71,0,0,0,26.07-10c.2-.53,1.15-3.32,1.43-4.18A70,70,0,0,0,70,.05ZM34.57,34.81a4.49,4.49,0,0,1,.36-.39l.46-.45a.91.91,0,0,1,1.32,0,4,4,0,0,1,.42.4l7,7-.34-3.6c-.07-.69-.09-1,.19-1.31s.48-.24.93-.28l.36,0A2,2,0,0,1,47.7,38c.24,2.2.5,4.75.68,7.26a3,3,0,0,1-.83,2.4,3.13,3.13,0,0,1-2.5.84c-.88-.07-1.76-.16-2.63-.24l-.18,0c-1.27-.13-2.51-.25-3.75-.34a2.8,2.8,0,0,1-2.08-.83A2.89,2.89,0,0,1,36,44.89a1.12,1.12,0,0,1,.3-.68A1,1,0,0,1,37.2,44c.89.1,1.78.18,2.68.27l1.38.12L37,40.13l-2.3-2.31A2.09,2.09,0,0,1,34.57,34.81ZM47.7,102.43a2,2,0,0,1-2.38,1.88l-.36,0c-.45,0-.72-.06-.93-.28s-.26-.61-.19-1.31l.34-3.6-7,7a5.33,5.33,0,0,1-.42.4.91.91,0,0,1-1.32,0l-.46-.45c-.12-.13-.25-.26-.36-.39a2.09,2.09,0,0,1,.16-3c.76-.78,1.53-1.55,2.3-2.31l4.23-4.23-1.38.13-2.68.26a1,1,0,0,1-.86-.24,1.17,1.17,0,0,1-.3-.69,2.89,2.89,0,0,1,.37-2.21,2.8,2.8,0,0,1,2.08-.83c1.24-.09,2.48-.21,3.75-.34h.18c.87-.09,1.75-.18,2.63-.25a3.11,3.11,0,0,1,2.5.85,3,3,0,0,1,.83,2.4C48.2,97.68,47.94,100.24,47.7,102.43ZM61.86,89.16a2.49,2.49,0,0,1-2.73,2.47,2.55,2.55,0,0,1-2.23-2.57V82.33a2.62,2.62,0,0,0-.73-1.82L50.7,76.38A2.63,2.63,0,0,1,50,74.56V64.79a2.6,2.6,0,0,0-1.07-2.06,5.93,5.93,0,0,1,3.8-10.67,6,6,0,0,1,5.68,5.82A5.91,5.91,0,0,1,56,62.75a2.53,2.53,0,0,0-1.06,2v7.77a2.62,2.62,0,0,0,.73,1.82l5.47,4.13a2.63,2.63,0,0,1,.74,1.82Zm4.52-26.41A5.91,5.91,0,0,1,64,57.88,5.93,5.93,0,0,1,75.85,58a5.89,5.89,0,0,1-2.38,4.74,2.6,2.6,0,0,0-1.07,2.06V89.16a2.48,2.48,0,0,1-2.72,2.47,2.55,2.55,0,0,1-2.24-2.57V64.79A2.53,2.53,0,0,0,66.38,62.75Zm24.91,0a2.58,2.58,0,0,0-1.08,2.06v9.77a2.62,2.62,0,0,1-.73,1.82L84,80.51a2.63,2.63,0,0,0-.74,1.82v6.73A2.54,2.54,0,0,1,81,91.63a2.48,2.48,0,0,1-2.72-2.47V80.33a2.62,2.62,0,0,1,.73-1.82l5.47-4.13a2.63,2.63,0,0,0,.74-1.82V64.79a2.55,2.55,0,0,0-1.06-2,5.92,5.92,0,0,1-2.4-4.87,6,6,0,0,1,5.69-5.82,5.93,5.93,0,0,1,3.8,10.67Zm1.34-15a3.11,3.11,0,0,1-.84-2.5c.07-.87.16-1.75.24-2.63l0-.17c.13-1.27.25-2.52.33-3.76a2.79,2.79,0,0,1,.84-2.07,2.84,2.84,0,0,1,2.21-.37,1.16,1.16,0,0,1,.68.29,1,1,0,0,1,.25.86c-.1.9-.18,1.79-.27,2.68L96,41.4l4.23-4.23,2.31-2.3a2.09,2.09,0,0,1,3-.15,3.33,3.33,0,0,1,.39.36l.45.45a.92.92,0,0,1,0,1.33,5.25,5.25,0,0,1-.4.42l-7,7,3.6-.34c.69-.07,1-.09,1.31.18a1.39,1.39,0,0,1,.28.93l0,.36a2,2,0,0,1-1.87,2.39c-2.2.23-4.76.49-7.26.67A3,3,0,0,1,92.63,47.69Z"/></svg>