<svg id="Icon" xmlns="http://www.w3.org/2000/svg" viewBox="0 0 140 140"><defs><style>.cls-1{fill:#503291;}</style></defs><path class="cls-1" d="M105.1,59.56h-4.2a2,2,0,0,0-2,1.82,73.52,73.52,0,0,1-1.69,11,1,1,0,0,0,.94,1.25c2.39,0,7.58-.53,10-5.64C110.4,63.23,107.4,59.56,105.1,59.56Z"/><path class="cls-1" d="M73,63.26H50.84l-.05-.16.32-.3L56,58.72c1.45-1.19,1.28-1,.18-2.32A2.39,2.39,0,0,0,52.84,56c-2.73,2.21-5.44,4.43-8.1,6.72a3.65,3.65,0,0,0,0,5.72c2.45,2.07,5,4.06,7.4,6.16,2.14,1.87,3.32,1.18,4.6-.5A.84.84,0,0,0,56.64,73c-1.83-1.49-3.64-3-5.46-4.52a7,7,0,0,1-.53-.54H73c13.72.46,13.12,16.48-.54,16.38,0,0-30.35,0-32,0a2.33,2.33,0,0,0-2.55,2.29c0,.55,0,1.1,0,1.65s.25.63.66.66c.26,0,.53,0,.79,0,2.93,0,33.08,0,33.08,0C92.86,88.15,92.78,64.42,73,63.26Z"/><path class="cls-1" d="M129.26,56.59a10.74,10.74,0,0,0-10.68,9.62c0,.37-.21,2.51-.33,2.94-1.78,6.54-7.25,14.28-22.43,14.71-1.14.12-1.16,0-1.82.91A33,33,0,0,1,82.1,98.12c-9.22,6.17-31.65,6.35-41.06,0C31.11,92,26.48,80.88,24.35,70.94a74,74,0,0,1-1.74-15.2c0-3.52,2.76-5.62,6-5.62h77.16c5.12,0,7.59,3.5,12.53,3.31a13.32,13.32,0,0,0,11.56-20c-.37-.65-2.48-3.48-2.73-3.82a70,70,0,1,0,12.72,43.11c0-.94.14-4.93.14-5.43A10.74,10.74,0,0,0,129.26,56.59Z"/></svg>