<svg id="Icon" xmlns="http://www.w3.org/2000/svg" viewBox="0 0 140 140"><defs><style>.cls-1{fill:#503291;}</style></defs><path class="cls-1" d="M70.48.26C33.21.15,1.84,30.08.32,67.33a69.74,69.74,0,0,0,11.81,41.93l.27.4c9.41,13.4,26.4,8.23,26.4-9.47V43.66a2.5,2.5,0,0,1,2.5-2.5H98.65a2.5,2.5,0,0,1,2.5,2.5v61.73a6.94,6.94,0,0,1-7.27,6.91H57.16c-15.19,0-20.83,19.48-5.53,25.45l.89.24A70,70,0,1,0,70.48.26ZM101,33.71a2.5,2.5,0,0,1-2.5,2.5H41.18a2.5,2.5,0,0,1-2.5-2.5V29.2a2.5,2.5,0,0,1,2.5-2.5H98.46a2.5,2.5,0,0,1,2.5,2.5Z"/><path class="cls-1" d="M65.16,102.81h2.2c2.69,0,2.73-4.45,0-4.45-.13,0-1.87,0-2.19-.08h0c-1.58-.2-3.07-.83-3.07-2.84V82.51c0-6.59,15.47-4.9,7.5-25.15a2.76,2.76,0,0,0-2.83-1.77H52.82c-1.58,0-2.24.26-2.83,1.77-8,20.25,7.5,18.56,7.5,25.15V95.43c0,3-3.37,2.93-5.33,2.93-2.74,0-2.7,4.45,0,4.45h13Z"/><path class="cls-1" d="M94.32,82.82a10.95,10.95,0,0,1-21.89,0c0-6,10.94-20.27,10.94-20.27S94.32,76.77,94.32,82.82Z"/><circle class="cls-1" cx="95.91" cy="31.44" r="2.5"/><circle class="cls-1" cx="89.91" cy="31.44" r="2.5"/></svg>