<svg id="Icon" xmlns="http://www.w3.org/2000/svg" viewBox="0 0 140 140"><defs><style>.cls-1{fill:#503291;}</style></defs><path class="cls-1" d="M89.13,2.71A10.47,10.47,0,0,0,87,2.48a11.1,11.1,0,0,0-11.12,11V35.64h0V68.76L90.64,50.61c.48-.59,1-.71,1.52-.27l2.64,2.24a6.27,6.27,0,0,1,.85,9.49L76.87,85c-1.85,2.25-3.78,3-7,3a8.15,8.15,0,0,1-7.07-3c-1.14-1.3-18.75-23-18.75-23a6.28,6.28,0,0,1,.86-9.49l2.64-2.24c.54-.44,1-.32,1.52.27L63.86,68.76V35.65h0V14.51s0-1.33,0-1.49a11,11,0,0,0-11-10.54,23.32,23.32,0,0,0-3.09.39,70,70,0,1,0,41.63.43C90.81,3.13,89.33,2.75,89.13,2.71ZM109,103.61a1,1,0,0,1-1,1H31.69a1,1,0,0,1-1-1v-1.7a6,6,0,0,1,6-6h66.21a6.05,6.05,0,0,1,6,6Z"/></svg>