<svg id="Icon" xmlns="http://www.w3.org/2000/svg" viewBox="0 0 140 140"><defs><style>.cls-1{fill:#503291;}</style></defs><path class="cls-1" d="M85.27,102.6s1.2,0,3.3,0S90.41,100,90.41,100L89.28,89.66a16,16,0,0,0-.64-3.5,5.33,5.33,0,0,0-.81-1.66l-2.46-4.19c-1.09-1.84-2-3.61-3.42,2.48-.47,2-9.06,9.38-7.86,9.38h4.34a3.3,3.3,0,0,1,3.42,3.42v3.59A3.43,3.43,0,0,0,85.27,102.6Z"/><path class="cls-1" d="M139.91,69.92a70,70,0,1,0-40.8,63.61l1.44-.64a11.11,11.11,0,0,0-3.66-21.12l-1.75-.17H76.8a3.42,3.42,0,0,1-3.42-3.41v-3.6A3.42,3.42,0,0,0,70,101.17h-13a3.41,3.41,0,0,1-3.41-3.41v-3.6a3.43,3.43,0,0,0-3.42-3.42h-13a3.42,3.42,0,0,1-3.41-3.41V82.75a2.58,2.58,0,0,0-3.42-2.44h-6.9a3.42,3.42,0,0,1-3.42-3.41V74.72a3.43,3.43,0,0,1,3.42-3.42h14.6c3.2,0,4.11,1.54,4.11,3.42v3.6a3.43,3.43,0,0,0,3.42,3.41h13a3.43,3.43,0,0,1,3.42,3.42v3.59a3.43,3.43,0,0,0,3.42,3.42c1,0,1.88-1.28,1.88-1.28l6.09-9.36a10.5,10.5,0,0,0,1.34-2.11,12.51,12.51,0,0,0,.92-2.9l1.19-6.33a6.73,6.73,0,0,0,.18-2,7.46,7.46,0,0,0-.65-2.51c-.76-2.22-1.52-4.55-2.28-6.94a10.16,10.16,0,0,1-.33-1.21,5.26,5.26,0,0,1,1.3-4c1.26-1.39,5-6.21,6.86-8.09,1.07-1.11,3.45-2.63,7.39-.89,4.29,1.88,3,8.18,2.75,9.52l-2,9.2-.38,1.8a12.68,12.68,0,0,0,.36,5.69c.93,2.35,4,9.08,4,9.08a10.88,10.88,0,0,1,.85,2.77,22.17,22.17,0,0,1,.3,2.89l1.52,12.91a4.58,4.58,0,0,0,2.11,3.32c.65.37,3.06.59,5.29.71a1.93,1.93,0,0,1,1.74,1.25c.12.29.43,1.37.51,1.62a12.53,12.53,0,0,0,22.48,2.77c.27-.43,1.15-2,1.76-3.1l1.09-2A69.63,69.63,0,0,0,139.91,69.92ZM92.48,40.34a5.39,5.39,0,1,1,5.13-5.63A5.38,5.38,0,0,1,92.48,40.34Z"/></svg>