<svg id="Icon" xmlns="http://www.w3.org/2000/svg" viewBox="0 0 140 140"><defs><style>.cls-1{fill:#503291;}</style></defs><path class="cls-1" d="M61.89,50.14a1.69,1.69,0,0,1,1.58-1.27h7.75A.71.71,0,0,1,71.9,50L65.19,62.58c-.34.63,0,1.14.69,1.14h4.38a.73.73,0,0,1,.7,1.16L62.89,80.41c-.33.63-.54.57-.46-.14l1.28-11.82a1.14,1.14,0,0,0-1.16-1.29H59.49a1,1,0,0,1-1-1.27Z"/><path class="cls-1" d="M69.91-.08A70,70,0,0,0,1.8,53.78c-.1.44-.46,1.78-.53,2a10.48,10.48,0,0,0-.45,3A10.76,10.76,0,0,0,21,64c3.46-6.63,7.84-13.83,14.49-17.9a17.42,17.42,0,0,1,9.59-2.47c4.5.12,9,0,13.51,0s8.8.1,13.19,0c5.73-.15,10.36,2.18,14.32,6.07A55.66,55.66,0,0,1,91,55,13.3,13.3,0,0,0,98.71,60c4.38,1,8.71,2.23,13.07,3.36.5.13,1,.34,1.5.45,4.64,1,7,4,7.29,8.58a39.31,39.31,0,0,1-.17,5.94,7.65,7.65,0,0,1-2.63,5.31,16,16,0,0,0-31.89,1.27H55a16,16,0,0,0-31.9-1.24,5.19,5.19,0,0,1-.57-.4c-.29-.23-1.56-1.42-2-1.8A10.55,10.55,0,0,0,3,89.31a10.39,10.39,0,0,0,.87,4.18c.18.43.9,1.93,1,2.27A70,70,0,1,0,69.91-.08ZM39,96.11a11,11,0,1,1,11-11A11,11,0,0,1,39,96.11Zm62.86,0a11,11,0,1,1,11-11A11,11,0,0,1,101.86,96.11Z"/></svg>