<svg id="Icon" xmlns="http://www.w3.org/2000/svg" viewBox="0 0 140 140"><defs><style>.cls-1{fill:#503291;}</style></defs><path class="cls-1" d="M65.42-.21a70,70,0,0,0-59.62,98c.14.31.71,1.46.85,1.73a13.43,13.43,0,0,0,25.24-4.8L32,92.4V65.47c0-4.48,2.86-5.92,6.35-3.2l25.55,19.9A10.93,10.93,0,0,0,70,84.28l.55,0,.55,0a11,11,0,0,0,6.09-2.11l25.56-19.9c3.48-2.72,6.34-1.28,6.34,3.2V93.39a8.09,8.09,0,0,1-8,8.15h-48l-2.77,0a17.21,17.21,0,0,0-7.08,32.91c.72.33,3.63,1.31,4,1.43A70,70,0,1,0,65.42-.21Zm40.5,50.51L77.39,72.65a19.19,19.19,0,0,1-4,2.53,13.29,13.29,0,0,1-1.41.5c-.19,0-.39.06-.57.09a3.87,3.87,0,0,1-1.66,0,5.81,5.81,0,0,1-.58-.09,7.91,7.91,0,0,1-1.26-.44.59.59,0,0,1-.14-.06,18.93,18.93,0,0,1-4-2.53L35.29,50.3c-1.79-1.43-1.65-2.72-1.11-3.64s1.25-1.36,3-1.36H104c1.76,0,2.51.52,3,1.36S107.72,48.87,105.92,50.3Z"/></svg>