<svg id="Icon" xmlns="http://www.w3.org/2000/svg" viewBox="0 0 140 140"><defs><style>.cls-1{fill:#503291;}</style></defs><path class="cls-1" d="M57.82,49.25V39.41c0-.37.24-.56.66-.56h9.74c8.51,0,13.59,5.13,13.59,13.6V53c0,3.06-1.88,4.33-4.61,4.33S72.64,55.83,72.64,53V51.79a4.23,4.23,0,0,0-3.91-4.14,2,2,0,0,0-2,2.07A4.52,4.52,0,0,0,70,53.81a1.8,1.8,0,0,1,1.41,2v.75c0,.37-.14.56-.47.56a7.43,7.43,0,0,1-7.58-7.34,5,5,0,0,1,5.37-5.36A7.38,7.38,0,0,1,76,51.74v1.55c0,.76.37,1.13,1.17,1.13s1.18-.37,1.18-1.13v-.94c0-6.63-3.44-10.25-10.07-10.25H63.37a1.87,1.87,0,0,0-2.12,2.11v5.13c0,6.63,3.49,10.26,10.07,10.26h8.56a1.77,1.77,0,0,1,1.93,1.92v.76c0,.37-.23.56-.66.56H71.42C63,62.84,57.82,57.62,57.82,49.25Z"/><path class="cls-1" d="M65.39.27a70,70,0,0,0-59.62,98c.14.31.71,1.46.85,1.73a13.42,13.42,0,0,0,25.24-4.8L32,92.88V66c0-4.47,2.85-5.92,6.34-3.2l25.56,19.9A10.92,10.92,0,0,0,70,84.76l.55,0,.56,0a10.92,10.92,0,0,0,6.08-2.11l25.56-19.9c3.49-2.72,6.34-1.27,6.34,3.2V93.87a8.09,8.09,0,0,1-8,8.15h-48l-2.77,0A17.21,17.21,0,0,0,43.28,135c.72.33,3.63,1.31,4,1.43A70,70,0,1,0,65.39.27ZM100.14,53a4,4,0,0,1-1.54,3.15L77,73a10.92,10.92,0,0,1-6.08,2.11l-.56,0-.55,0A11,11,0,0,1,63.71,73L42.1,56.15A4,4,0,0,1,40.56,53V34.84a3.08,3.08,0,0,1,3.09-3.08H97.06a3.08,3.08,0,0,1,3.08,3.08Z"/></svg>