<svg id="Icon" xmlns="http://www.w3.org/2000/svg" viewBox="0 0 140 140"><defs><style>.cls-1{fill:#503291;}</style></defs><path class="cls-1" d="M65.28,0a70,70,0,0,0-59.62,98c.14.31.71,1.47.85,1.74A13.43,13.43,0,0,0,31.75,95l.15-2.34V65.72c0-4.48,2.85-5.92,6.34-3.21l25.55,19.9a10.85,10.85,0,0,0,6.09,2.11l.55,0c.19,0,.37,0,.55,0a10.85,10.85,0,0,0,6.09-2.11l25.56-19.9c3.48-2.71,6.34-1.27,6.34,3.21V93.64a8.08,8.08,0,0,1-8,8.14H53l-2.77,0a17.21,17.21,0,0,0-7.08,32.91c.72.33,3.63,1.31,4,1.44A70,70,0,1,0,65.28,0ZM100,52.76a4,4,0,0,1-1.54,3.15L76.88,72.74a11,11,0,0,1-6.09,2.11l-.55,0c-.19,0-.37,0-.55,0a10.93,10.93,0,0,1-6.09-2.11L42,55.91a4,4,0,0,1-1.54-3.15V34.61a3.08,3.08,0,0,1,3.08-3.09H96.94A3.09,3.09,0,0,1,100,34.61Z"/><path class="cls-1" d="M80,42.41a11.59,11.59,0,0,1-8.11-3.77,2.25,2.25,0,0,0-1.63-.73h0a2.21,2.21,0,0,0-1.63.73h0a11.63,11.63,0,0,1-8.12,3.77,2.2,2.2,0,0,0-2.11,2.21v7.86s.56,8,9.75,13.24a4.22,4.22,0,0,0,2.11.61,3.92,3.92,0,0,0,2.11-.61C76,63.38,82.1,58.56,82.1,52.54V44.62A2.21,2.21,0,0,0,80,42.41"/></svg>