<svg id="Icon" xmlns="http://www.w3.org/2000/svg" viewBox="0 0 140 140"><defs><style>.cls-1{fill:#503291;}</style></defs><path class="cls-1" d="M65.31-.06A70,70,0,0,0,5.69,98c.14.31.71,1.47.85,1.74a13.43,13.43,0,0,0,25.24-4.81l.15-2.34V65.62c0-4.48,2.85-5.92,6.34-3.21l25.55,19.9a10.85,10.85,0,0,0,6.09,2.11l.55,0c.19,0,.37,0,.55,0a10.85,10.85,0,0,0,6.09-2.11l25.56-19.9c3.48-2.71,6.34-1.27,6.34,3.21V93.54a8.08,8.08,0,0,1-8,8.14h-48l-2.77,0a17.21,17.21,0,0,0-7.08,32.91c.72.33,3.63,1.31,4,1.44A70,70,0,1,0,65.31-.06Zm34.75,52.72a4,4,0,0,1-1.54,3.15L76.91,72.64A10.19,10.19,0,0,1,73,74.41V68.64h0V51l7.9,9.68c.25.31.52.38.81.14l1.41-1.19a3.6,3.6,0,0,0,1.39-2.42,3.56,3.56,0,0,0-.94-2.64S74.21,43,73.6,42.32a4.34,4.34,0,0,0-3.77-1.62,4.29,4.29,0,0,0-3.75,1.62l-10,12.24a3.33,3.33,0,0,0,.46,5.06l1.4,1.19c.29.24.56.17.81-.14L66.64,51V68.64h0v5.54a9.74,9.74,0,0,1-3-1.54L42,55.81a4,4,0,0,1-1.54-3.15V34.51a3.08,3.08,0,0,1,3.08-3.09H97a3.09,3.09,0,0,1,3.09,3.09Z"/></svg>