<svg id="Icon" xmlns="http://www.w3.org/2000/svg" viewBox="0 0 140 140"><defs><style>.cls-1{fill:#503291;}</style></defs><path class="cls-1" d="M70.08.3a70,70,0,0,0-70,70c0,38.66,31.35,69.66,70,70a64,64,0,0,0,29.48-6.91l2.14-1.1a9.72,9.72,0,0,0-6.79-18.07c-.77.19-4.15,1.61-5.13,2a49.92,49.92,0,0,1-49.63-5.92,8.81,8.81,0,0,1-3.53-6.77h0a95.77,95.77,0,0,1,.11-11.11c1-11.35,8.85-18.88,18.88-22.49a5.82,5.82,0,0,1,4.82.43,20.26,20.26,0,0,0,10.05,2.75,18.84,18.84,0,0,0,9.67-2.62,5.94,5.94,0,0,1,5-.52c11.58,4.19,20.49,13.58,19.9,28.34,0,.78,0,3.65,0,4.32a11.78,11.78,0,0,0,11.83,11.83c8.89-.13,12.28-6.43,12.5-6.78C136.14,97,139.64,84,140.08,70.3,141.32,32.44,108.74.3,70.08.3ZM85.38,51C75.59,76.88,53.63,63.43,53,41,53.71,14.14,96.86,20.19,85.38,51Z"/><rect class="cls-1" x="76.43" y="83.46" width="16.81" height="8.8" rx="3"/></svg>