<svg id="Icon" xmlns="http://www.w3.org/2000/svg" viewBox="0 0 140 140"><defs><style>.cls-1{fill:#503291;}</style></defs><rect class="cls-1" x="73.21" y="75.56" width="9.26" height="4.85" rx="1.65"/><path class="cls-1" d="M69.91-.08A70,70,0,0,0,5.66,97.66c.21.5,1,2.36,1.13,2.78a14.44,14.44,0,0,0,26.6.12,8.63,8.63,0,0,0,.25-1.11c.12-1.25.25-2.46.36-3.58A2,2,0,0,1,36.39,94l.36,0c.45,0,.72.07.93.29s.25.61.19,1.3l-.34,3.61,7-7,.42-.4a.92.92,0,0,1,1.33,0l.46.45.36.39a2.09,2.09,0,0,1-.16,3c-.76.78-1.53,1.55-2.3,2.31l-4.23,4.23,1.38-.13,2.68-.26a1,1,0,0,1,.86.24,1.12,1.12,0,0,1,.3.69,2.91,2.91,0,0,1-.37,2.2,2.76,2.76,0,0,1-2.08.84c-1.12.08-2.23.18-3.37.3l-.56,0a7.24,7.24,0,0,0-1.09.25A13.89,13.89,0,0,0,37,131.74c.36.19,1.84.89,2.2,1.07A70,70,0,1,0,69.91-.08Zm8.41,57.81c-5.45,14.44-17.69,7-18-5.53C60.68,37.21,84.71,40.59,78.32,57.73ZM47.88,46.46l-.44.45q-.19.2-.39.36a2.1,2.1,0,0,1-3-.15l-2.31-2.3L37.5,40.59,37.63,42c.08.89.17,1.78.26,2.68a1,1,0,0,1-.24.86,1.22,1.22,0,0,1-.69.29,2.84,2.84,0,0,1-2.21-.37,2.79,2.79,0,0,1-.83-2.07c-.09-1.25-.21-2.49-.34-3.76v-.17c-.09-.88-.18-1.76-.25-2.63a3.08,3.08,0,0,1,.85-2.5,3,3,0,0,1,2.4-.84c2.5.19,5,.45,7.25.68a2,2,0,0,1,1.88,2.39l0,.36a1.29,1.29,0,0,1-.28.93c-.27.27-.62.25-1.31.18l-3.6-.34,7.05,7.05c.13.14.27.27.4.42A.91.91,0,0,1,47.88,46.46ZM88.84,87h0a4.91,4.91,0,0,1-2,3.77,28,28,0,0,1-4.8,2.88l-.27.07c-.49.16-1.47.52-1.47.52-.64.27-1.3.51-2,.73a26.62,26.62,0,0,1-16.74,0c-.67-.22-1.33-.46-2-.73,0,0-1-.36-1.47-.52l-.27-.07a28,28,0,0,1-4.8-2.88,4.91,4.91,0,0,1-2-3.77h0a52.89,52.89,0,0,1,.06-6.18,13.41,13.41,0,0,1,2.68-7l0-.06s.09-.1.13-.16a17.73,17.73,0,0,1,7.73-5.25,3.2,3.2,0,0,1,2.05,0,2.9,2.9,0,0,1,.57.25c.35.19.7.37,1.06.53a10.45,10.45,0,0,0,4.5,1h0a10.45,10.45,0,0,0,4.5-1c.36-.16.71-.34,1.06-.53a2.9,2.9,0,0,1,.57-.25,3.2,3.2,0,0,1,2,0,17.73,17.73,0,0,1,7.73,5.25c0,.06.09.11.13.16l0,.06a13.41,13.41,0,0,1,2.68,7A52.89,52.89,0,0,1,88.84,87Zm2.81-41.89c.12-.15.26-.28.39-.42l7-7.05-3.6.34c-.69.07-1,.09-1.31-.18a1.34,1.34,0,0,1-.28-.93l0-.36a2,2,0,0,1,1.88-2.39c2.2-.23,4.75-.49,7.25-.68a3.05,3.05,0,0,1,2.41.84,3.11,3.11,0,0,1,.84,2.5c-.07.87-.16,1.75-.24,2.63l0,.17c-.13,1.27-.25,2.51-.34,3.76a2.79,2.79,0,0,1-.83,2.07,2.84,2.84,0,0,1-2.21.37,1.22,1.22,0,0,1-.69-.29,1,1,0,0,1-.24-.86c.09-.9.18-1.79.26-2.68l.13-1.38-4.22,4.23-2.31,2.3a2.1,2.1,0,0,1-3,.15q-.2-.17-.39-.36l-.44-.45A.92.92,0,0,1,91.65,45.13Zm13.75,60.4a3.08,3.08,0,0,1-2.5.85l-2.63-.25-.17,0c-1.28-.12-2.52-.24-3.76-.33a2.74,2.74,0,0,1-2.07-.84,2.82,2.82,0,0,1-.37-2.2,1.16,1.16,0,0,1,.29-.69,1,1,0,0,1,.86-.24l2.68.26,1.38.13L94.88,98c-.77-.76-1.54-1.53-2.3-2.31a2.09,2.09,0,0,1-.15-3l.35-.39.46-.45a.92.92,0,0,1,1.33,0l.42.4,7.05,7-.34-3.61c-.07-.69-.09-1,.18-1.3a1.34,1.34,0,0,1,.93-.29l.36,0a2,2,0,0,1,2.39,1.87c.23,2.2.49,4.76.67,7.26A3,3,0,0,1,105.4,105.53Z"/></svg>