<svg id="Icon" xmlns="http://www.w3.org/2000/svg" viewBox="0 0 140 140"><defs><style>.cls-1{fill:#503291;}</style></defs><path class="cls-1" d="M132.49,38.54c-.49-1-2.22-4.41-2.66-5.13a14.69,14.69,0,0,0-27.25,7.64s0,1.73,0,2.16V65c0,8.8-5.69,14.53-5.69,17.77,0,7.1-.85,20.27-.85,21.36s-2.73,1.76-4.31,1.76-4.31-.67-4.31-1.76-.85-14.26-.85-21.36c0-3.24-5.69-9-5.69-17.77V31.05a5.12,5.12,0,0,1,5.42-5.16h14.17s1-.13,1.44-.23A9.09,9.09,0,0,0,104.62,9c-.52-.31-2.82-1.41-3.42-1.71a70,70,0,1,0,31.29,31.24Zm-67.82,65c0,5.91-4.76,6.75-4.76,6.75H40.26s-4.75-.84-4.75-6.75v-15c0-1,5.88-2.1,6.66-2s6.71,3.49,7.41,2.86c.43-.39,2.85-4,3.64-4.22s4.41,2.79,5.19,2.65c.58-.11,3.75-5.11,5.33-7,.52-.62.93-.51.93-.26Zm0-32.63c0,2.22-8.31,9.2-9,9.25-.87,0-5.2-2.59-5.56-2.53S48,81.28,47.81,81.81s-3.88-1-4.44-1.09c-1.45-.33-7.86,2.08-7.86,1.23V60.83c0-9.67,9.27-17.1,9.27-20.23V28c0-3,1.51-4.08,5.31-4.08S55.4,25,55.4,28V40.6c0,3.13,9.27,10.56,9.27,20.23Z"/></svg>