<svg id="Icon" xmlns="http://www.w3.org/2000/svg" viewBox="0 0 140 140"><defs><style>.cls-1{fill:#503291;}</style></defs><path class="cls-1" d="M139.91,69.92a70,70,0,1,0-25.81,54.27,14.25,14.25,0,0,0,1.22-1.27,10.21,10.21,0,0,0,1.21-1.25,10.66,10.66,0,0,0-8.24-17.45,10.38,10.38,0,0,0-3.22.5c-.57.18-1.68.6-1.68.6-.74.3-1.49.58-2.25.83a31.74,31.74,0,0,1-28.83-4.79,5.63,5.63,0,0,1-2.25-4.31h0A63.3,63.3,0,0,1,70.13,90c.64-7.22,5.63-12,12-14.31a3.71,3.71,0,0,1,3.07.27,12.86,12.86,0,0,0,6.39,1.75A12,12,0,0,0,97.75,76a3.81,3.81,0,0,1,3.19-.32c6.26,2.26,11.29,6.93,12.42,14,.1.59.41,1.83.41,1.83a12.38,12.38,0,0,0,.37,1.6,11.57,11.57,0,0,0,22.35-.91c.11-.49.52-2.43.65-2.9A69.79,69.79,0,0,0,139.91,69.92ZM54.49,43.53C48.27,60,34.3,51.46,33.89,37.21,34.35,20.11,61.8,24,54.49,43.53ZM67,73.57v.18c0,.38,0,1.21,0,1.87,0,.44,0,.89,0,1.36h0a5.59,5.59,0,0,1-2.24,4.3,79.19,79.19,0,0,1-7.41,3.77,31.8,31.8,0,0,1-31.55-3.75A5.69,5.69,0,0,1,23.48,77h0a63.53,63.53,0,0,1,.07-7.07c.61-6.92,5.22-11.61,11.22-14a1,1,0,0,1,1.24.16,1.14,1.14,0,0,1,.09.16c1.19,2,3.79,8.57,5.88,13.72a.32.32,0,0,0,.61-.1l.66-9.68a1.83,1.83,0,0,0-.13-.87l-1.27-3.06a.64.64,0,0,1,.73-.86,10,10,0,0,0,4.38.08.64.64,0,0,1,.69.87l-1.22,3a1.78,1.78,0,0,0-.14.88l.79,9.7a.32.32,0,0,0,.61.1c2.05-5.09,4.74-11.53,6-13.63v0a1.08,1.08,0,0,1,1.32-.41l.28.11c6.86,2.81,12,8.64,11.69,17.56Zm34.07-10c-6.23,16.49-20.2,7.93-20.6-6.31C80.93,40.17,108.38,44,101.08,63.59Z"/></svg>