<svg id="Icon" xmlns="http://www.w3.org/2000/svg" viewBox="0 0 140 140"><defs><style>.cls-1{fill:#503291;}</style></defs><path class="cls-1" d="M67,35.46a5.89,5.89,0,1,0,6.15,5.6A5.86,5.86,0,0,0,67,35.46Z"/><path class="cls-1" d="M139.88,67.63a70.19,70.19,0,1,0-63,71.92c.56-.06,2.76-.29,3.29-.38a13.8,13.8,0,0,0,1.4-26.84l-2-.56-5-1.15a2.11,2.11,0,0,1-1.7-2.05c0-3.93-.71-13.85-2.87-18.64-1.24-2.75-3.4-7.36-4.42-9.94a13.72,13.72,0,0,1-.38-6.22l2.66-12.08c.29-1.47,1.69-8.35-3-10.41-4.31-1.9-6.91-.24-8.08,1-2,2-6.13,7.33-7.51,8.85a5.72,5.72,0,0,0-1.41,4.32,10.41,10.41,0,0,0,.35,1.32l2.47,7.65a8.11,8.11,0,0,1,.71,2.74,7.44,7.44,0,0,1-.19,2.23l-1.3,6.92a13.94,13.94,0,0,1-1,3.16,11.27,11.27,0,0,1-1.46,2.31S42.9,97.4,42.44,98s-1.72,1.8-1.72-.84V28.9c0-1.78,1.82-1.48,1.82-1.48L93.1,35.06A1.78,1.78,0,0,1,94.72,37v72.5c0,.67,0,3.46,0,3.77a13.15,13.15,0,0,0,21.46,9.22c.38-.31,1.74-1.61,2.08-1.92A69.82,69.82,0,0,0,139.88,67.63ZM48.76,103.44a43.8,43.8,0,0,0,8.06-10.3c1.8-3.08,2.55-4.72,3.74-2.71.78,1.31,2.88,4.34,3.57,6.39a69.3,69.3,0,0,1,1.35,10.08,6,6,0,0,1,0,.67,1,1,0,0,1-1.22,1l-15-3.39A1,1,0,0,1,48.76,103.44Z"/></svg>