<svg id="Icon" xmlns="http://www.w3.org/2000/svg" viewBox="0 0 140 140"><defs><style>.cls-1{fill:#503291;}</style></defs><path class="cls-1" d="M69.91-.08A70,70,0,0,0,3.82,46.82c-.19.56-.94,2.65-1.09,3.16a12.38,12.38,0,0,0-.52,3.57,12.73,12.73,0,0,0,21.69,9c.31-.31,1.53-1.57,1.85-1.85,26-23.12,60.94-26,92.78,4.36a6,6,0,0,1,0,8.65c-12.4,12.07-26.55,21-44.49,22.76-19.46,1.88-34.51-6-47.61-17.81-.4-.36-1.69-1.67-2-1.93A13.17,13.17,0,0,0,2.79,90.53c.23.64,1.22,3,1.43,3.56A70,70,0,1,0,69.91-.08Z"/><path class="cls-1" d="M70,46.82a23,23,0,1,0,23,23A23,23,0,0,0,70,46.82Zm.07,34H70a11,11,0,0,1-5.15-20.73A10.58,10.58,0,0,1,70,58.83h.31l.57,0A8.87,8.87,0,0,1,72,59a1,1,0,0,1,.6,1.61,4.72,4.72,0,0,0-1,4,4.8,4.8,0,0,0,3.72,3.72,4.75,4.75,0,0,0,4-1,1,1,0,0,1,1.61.59A11,11,0,0,1,70.1,80.82Z"/></svg>