<svg id="Icon" xmlns="http://www.w3.org/2000/svg" viewBox="0 0 140 140"><defs><style>.cls-1{fill:#503291;}</style></defs><path class="cls-1" d="M139.91,69.92a70,70,0,1,0-40.47,63.46c.39-.18,2.06-.92,2.5-1.14a15.51,15.51,0,0,0-4.74-29.3c-.42-.06-2.52-.17-2.52-.17H34.26a2,2,0,0,1-2-2V38.6A1.63,1.63,0,0,1,33.88,37h7.48A1.62,1.62,0,0,1,43,38.6L45,66a1.65,1.65,0,1,0,3.23,0V54.67c0-1.1.73-1.47,1.62-.83l17,12.36c.89.65,1.62.28,1.62-.82V54.67c0-1.1.73-1.47,1.62-.83l15,10.91c.89.65,1.62.28,1.62-.82V54.67c0-1.1.72-1.47,1.61-.82L105.72,66.6a3.48,3.48,0,0,1,1.8,3.39V86.55s0,3.17,0,3.47A14.46,14.46,0,0,0,135,95.47c.13-.25.63-1.39.74-1.71A69.76,69.76,0,0,0,139.91,69.92Z"/></svg>