<svg id="Icon" xmlns="http://www.w3.org/2000/svg" viewBox="0 0 140 140"><defs><style>.cls-1{fill:#503291;}</style></defs><path class="cls-1" d="M69.91-.08a70,70,0,0,0-70,69.21c0,.26,0,2.77,0,3a11,11,0,0,0,21.38,3.18c.16-.43.78-2,.92-2.29a11.79,11.79,0,0,1,1.5-2.64l0,0a1.34,1.34,0,0,0,.11-.14,15.59,15.59,0,0,1,6.8-4.62,2.87,2.87,0,0,1,1.81,0,2.13,2.13,0,0,1,.49.21,10.48,10.48,0,0,0,4.89,1.35h0a9.22,9.22,0,0,0,4-.88,8.1,8.1,0,0,0,.93-.47,2.41,2.41,0,0,1,.5-.21,2.87,2.87,0,0,1,1.81,0,15.59,15.59,0,0,1,6.8,4.62,1.34,1.34,0,0,0,.11.14.1.1,0,0,0,0,0,11.9,11.9,0,0,1,2.36,6.19A49.57,49.57,0,0,1,54.46,82h0a4.32,4.32,0,0,1-1.73,3.31,25,25,0,0,1-4.22,2.53l-.23.06c-.44.14-1.29.46-1.29.46-.57.24-1.15.45-1.74.64a23.36,23.36,0,0,1-14.72,0c-.59-.19-1.17-.4-1.74-.64,0,0-2.77-1-3-1.06a13.4,13.4,0,0,0-14.94,20c.14.23.66,1.12.79,1.31A70,70,0,1,0,69.91-.08ZM45.21,56.25c-4.8,12.7-15.56,6.11-15.87-4.86C29.69,38.21,50.83,41.18,45.21,56.25Zm63.05,0C103.47,69,92.71,62.36,92.4,51.39,92.75,38.21,113.89,41.18,108.26,56.25ZM80.68,92.54h0A3,3,0,0,1,79.5,94.8a16.86,16.86,0,0,1-2.87,1.71l-.15,0c-.3.09-.88.31-.88.31-.39.16-.78.3-1.18.43a15.84,15.84,0,0,1-10,0c-.4-.13-.8-.27-1.18-.43,0,0-.58-.22-.88-.31l-.16,0a16.77,16.77,0,0,1-2.86-1.71,3,3,0,0,1-1.18-2.26h0a31,31,0,0,1,0-3.7,8,8,0,0,1,1.6-4.2l0,0,.07-.09a10.6,10.6,0,0,1,4.62-3.14,2,2,0,0,1,1.23,0,2.52,2.52,0,0,1,.34.15,6.85,6.85,0,0,0,3.32.91h0a6.26,6.26,0,0,0,2.69-.59c.21-.1.42-.2.63-.32a2.07,2.07,0,0,1,.34-.15,2,2,0,0,1,1.23,0,10.6,10.6,0,0,1,4.62,3.14l.07.09,0,0a8,8,0,0,1,1.6,4.2A33.31,33.31,0,0,1,80.68,92.54ZM63.61,71.73c.24-9,14.6-6.93,10.78,3.3C71.13,83.66,63.82,79.19,63.61,71.73ZM117.52,82h0a4.32,4.32,0,0,1-1.73,3.31,25,25,0,0,1-4.22,2.53l-.23.06c-.44.14-1.3.46-1.3.46-.56.24-1.14.45-1.73.64a23.36,23.36,0,0,1-14.72,0c-.59-.19-1.17-.4-1.74-.64,0,0-.86-.32-1.29-.46l-.23-.06a25,25,0,0,1-4.22-2.53A4.29,4.29,0,0,1,84.38,82h0a49.57,49.57,0,0,1,.05-5.44,11.9,11.9,0,0,1,2.36-6.19l0,0a1.34,1.34,0,0,0,.11-.14,15.59,15.59,0,0,1,6.8-4.62,2.84,2.84,0,0,1,1.8,0,2.21,2.21,0,0,1,.5.21,10.14,10.14,0,0,0,.93.47,9.26,9.26,0,0,0,4,.88h0a9.25,9.25,0,0,0,4-.88,8.1,8.1,0,0,0,.93-.47,2.41,2.41,0,0,1,.5-.21,2.87,2.87,0,0,1,1.81,0A15.61,15.61,0,0,1,115,70.19l.12.14a.1.1,0,0,0,0,0,11.81,11.81,0,0,1,2.35,6.19A46.87,46.87,0,0,1,117.52,82Z"/></svg>