<svg id="Icon" xmlns="http://www.w3.org/2000/svg" viewBox="0 0 140 140"><defs><style>.cls-1{fill:#503291;}</style></defs><path class="cls-1" d="M80.54.46A69.89,69.89,0,0,0,.79,58.93C-1.36,72.83-.41,87,6.11,98.33c5.84,10.17,13,5.58,17.5,2.85l35.85-30.1L50.29,63.2l-22.72-19c-.73-.62-.88-1.26-.32-2l2.81-3.37a8.37,8.37,0,0,1,5.71-3.32A8.27,8.27,0,0,1,42,37.8L70.7,61.9c3,2.6,4.71,5.53,4.7,9.11s-2.13,6.86-4.74,9.22v0L36.42,108.94c-1.5,1.24-15.08,10.63-4.54,19.46,7.33,6.14,17.24,8.84,27.3,10.4A70,70,0,0,0,80.54.46Zm33.88,79.77v0L85.56,104.16A7.77,7.77,0,0,1,73.66,103l-2.8-3.38c-.54-.66-.4-1.33.34-2L94,78.81l9.22-7.73L94.05,63.2l-22.71-19c-.74-.62-.88-1.26-.32-2l2.81-3.37a8.37,8.37,0,0,1,5.71-3.32,8.27,8.27,0,0,1,6.19,2.26l28.74,24.1c3,2.6,4.71,5.53,4.7,9.11S117,77.87,114.42,80.23Z"/></svg>