<svg id="Icon" xmlns="http://www.w3.org/2000/svg" viewBox="0 0 140 140"><defs><style>.cls-1{fill:#503291;}</style></defs><path class="cls-1" d="M.55,80.39A69.92,69.92,0,0,0,80.3,138.87c10.06-1.56,20-4.26,27.3-10.4,10.54-8.83-3-18.22-4.54-19.46L68.82,80.32v0c-2.61-2.36-4.74-5.63-4.74-9.22S65.8,64.57,68.77,62l28.74-24.1a7.78,7.78,0,0,1,11.91,1.06l2.81,3.37c.56.69.41,1.33-.33,2l-22.71,19L80,71.15l35.85,30.1c4.47,2.73,11.66,7.32,17.5-2.85,6.52-11.35,7.47-25.5,5.32-39.4A69.89,69.89,0,1,0,.55,80.39Zm19.76-9.31C20.3,67.5,22,64.57,25,62l28.74-24.1a8.27,8.27,0,0,1,6.19-2.26,8.37,8.37,0,0,1,5.71,3.32l2.81,3.37c.56.69.41,1.33-.32,2l-22.71,19-9.18,7.88,9.22,7.73L68.28,97.77c.74.62.88,1.29.33,2l-2.79,3.38a7.77,7.77,0,0,1-11.9,1.13L25.05,80.32v0C22.44,77.94,20.32,74.67,20.31,71.08Z"/></svg>