<svg id="Icon" xmlns="http://www.w3.org/2000/svg" viewBox="0 0 140 140"><defs><style>.cls-1{fill:#503291;}</style></defs><path class="cls-1" d="M69.91-.08A70,70,0,0,0,4.68,95.33c.63,1.61,3.06,7.42,3.78,8.64a18.08,18.08,0,0,0,32.29-2.35c.53-1.29,1.41-5,1.52-5.41.28-1,.41-1.62.41-1.62L44.77,81.8A10.55,10.55,0,0,0,42,73.67l-17.6-17.1c-1.88-1.83-1.29-3.63,1.3-4L50,49a10.11,10.11,0,0,0,6.81-5l10.86-22c1.16-2.35,3-2.35,4.21,0l10.89,22A10.2,10.2,0,0,0,89.62,49l24.31,3.51c2.59.37,3.18,2.17,1.3,4L97.66,73.63a10.1,10.1,0,0,0-2.6,8l4.16,24.16c.45,2.57-1.08,3.69-3.4,2.47L74.07,96.87c-2.32-1.22-6-2.77-11.91,1.06l-6.43,4.48A56.09,56.09,0,0,0,51.16,106c-.68.6-3.49,3.33-4.09,4.09a18.08,18.08,0,0,0,9.44,28.66,34.65,34.65,0,0,0,5,.62c1.38.17,2.78.3,4.19.39s2.83.14,4.26.14a70,70,0,0,0,0-140Z"/></svg>