<svg id="Icon" xmlns="http://www.w3.org/2000/svg" viewBox="0 0 140 140"><defs><style>.cls-1{fill:#503291;}</style></defs><path class="cls-1" d="M58.78,80.94c.86,2.86-.86,4.23-3.8,4.81-1.78.36-3.51,1-5.29,1.28-3.65.68-6.2-1.42-6.16-5.12a12.19,12.19,0,0,1,5.71-10.45c10.95-7.35,29.82-7.31,40.66,0A13.12,13.12,0,0,1,95.65,81c.57,4.16-2.36,6.79-6.5,6-1.09-.22-2.15-.54-3.23-.82-5.58-1.4-5.6-1.4-5.39-7.12a3.52,3.52,0,0,0-2.87-4,31.16,31.16,0,0,0-14.4-.46C59.08,75.42,58.55,76.11,58.78,80.94Z"/><path class="cls-1" d="M85.47,35.4h-32a2.5,2.5,0,0,1,0-5h32a2.5,2.5,0,0,1,0,5Z"/><path class="cls-1" d="M85.47,44.4h-32a2.5,2.5,0,0,1,0-5h32a2.5,2.5,0,0,1,0,5Z"/><path class="cls-1" d="M69.91-.08A70,70,0,0,0,5.13,96.45c.19.47.67,1.36.67,1.36A11.51,11.51,0,0,0,6.54,99a12.74,12.74,0,0,0,23.11-5.6c0-.23,0-2.69,0-4.82,0-1.67,0-9.65,0-9.65V60.66c0-2.72,3-4.95,6.66-4.95H103c3.67,0,6.67,2.23,6.67,4.95V96.31c0,2.72-3,5-6.67,5H43.72c-.19,0-2.37.08-2.56.1A15.86,15.86,0,0,0,32.65,129a23.84,23.84,0,0,0,3.08,2c2.41,1.23,6.7,3.27,8.11,3.84A70,70,0,1,0,69.91-.08ZM92.15,48.61a2,2,0,0,1-2,2h-41a2,2,0,0,1-2-2V31a6.2,6.2,0,0,1,6.19-6.2H86A6.2,6.2,0,0,1,92.15,31Z"/></svg>