<svg id="Icon" xmlns="http://www.w3.org/2000/svg" viewBox="0 0 140 140"><defs><style>.cls-1{fill:#503291;}</style></defs><path class="cls-1" d="M136.25,49.73a14.32,14.32,0,0,0-26.16,6,28.35,28.35,0,0,0,0,3.8v6.8a54.12,54.12,0,0,1-37.35,51.55l-2.18.71a3,3,0,0,1-1.87,0l-2.17-.71A54.12,54.12,0,0,1,29.19,66.3V42a3,3,0,0,1,2.36-2.93l5.53-1.19A71.22,71.22,0,0,0,63.87,25.63l4-2.84a3,3,0,0,1,3.45,0l4,2.81C82,30.21,89.58,34.81,100.3,37.44a47.32,47.32,0,0,0,6.42,1.2,12.81,12.81,0,0,0,7.57-23.14c-.57-.42-2.78-1.85-3.28-2.22A70.14,70.14,0,1,0,139.13,60c-.1-.74-.5-3.22-.93-5.26A25.59,25.59,0,0,0,136.25,49.73Z"/><path class="cls-1" d="M68.46,45.36a1,1,0,0,0-1.36,1.41C90.29,81.41,39.89,68.08,49.69,97c1.76,5.18,7.6,8.72,11.39,10.54a1,1,0,0,0,1.31-1.4C53.76,90.59,72.06,93.42,75.71,79.6a1,1,0,0,1,1.92,0c.34,1.14.64,2.25.78,3,2.48,12.86-16.1,17.49-11.16,25.89.52.87,1.37,1,2.54.81C102.61,104.3,102.25,65.21,68.46,45.36Z"/></svg>