<svg id="Icon" xmlns="http://www.w3.org/2000/svg" viewBox="0 0 140 140"><defs><style>.cls-1{fill:#503291;}</style></defs><path class="cls-1" d="M69.91-.08A70,70,0,0,0,1,57.75C.67,59.6-.3,65.62-.3,66.84a11.47,11.47,0,0,0,22.69,2.35c1-6.07,5.18-15.29,6.19-17.26a.85.85,0,0,1,1.13-.38l25.4,12.29a.85.85,0,0,1,.43,1.07c-10.8,28.23-26,24.58-28,24A12.78,12.78,0,0,1,23.85,87,11.49,11.49,0,0,0,18,85.34,11.65,11.65,0,0,0,6.33,97c.1,5.73,4.61,10.22,7.49,14.79A70,70,0,1,0,69.91-.08Zm48.17,59.55c-19.23.45-26,17.09-26,17.09-8.34,18.83-16.9,24.72-20.74,27a5.85,5.85,0,0,1-4.3.19l-28-11A.43.43,0,0,1,39,92a28.16,28.16,0,0,0,10.36-7.74c3.42-3.72,7.12-9.34,10.73-17.85,4.54-10.73,12.2-15.88,17-18.82a29.93,29.93,0,0,1,8.23-3.7,6.2,6.2,0,0,1,3.31.42c5,2.38,23.88,11.58,29.62,14.36A.42.42,0,0,1,118.08,59.47Z"/></svg>