<svg id="Icon" xmlns="http://www.w3.org/2000/svg" viewBox="0 0 140 140"><defs><style>.cls-1{fill:#503291;}</style></defs><path class="cls-1" d="M51.41,97.74H112.1c15.7,0,28.12-7.34,27.93-28.51-.33-37.3-30.2-68.18-67.48-69.48A70,70,0,1,0,104,130.91c.83-.46,2.45-1.43,2.45-1.43,11.38-7,7.3-20.25-4.54-20.25H50.83a2.51,2.51,0,0,1-1.78-.84,4.27,4.27,0,0,1-1.18-3v-3.46a4.81,4.81,0,0,1,1-3A3.67,3.67,0,0,1,51.41,97.74ZM47.63,85.91V68.19a3.94,3.94,0,0,0-1.93-3.37c-6.08-3.36-10.39-12.62-10.38-20C35,29.09,52.88,15.74,66,26.41a2.42,2.42,0,0,0,2.79.23C83.48,15.7,106,28.45,105.62,46.47c0,7.6-4.58,19.4-10.28,23.58-.6.44-1.87,1.94-1.87,3v12.6a2.93,2.93,0,0,1-1.27,2.26,4.65,4.65,0,0,1-2.88,1H51.64a4.55,4.55,0,0,1-3.13-1.17A2.45,2.45,0,0,1,47.63,85.91Z"/></svg>