<svg id="Icon" xmlns="http://www.w3.org/2000/svg" viewBox="0 0 140 140"><defs><style>.cls-1{fill:#503291;}</style></defs><path class="cls-1" d="M50.59,82.7a6.94,6.94,0,0,1,4.77-2.32H87a7,7,0,0,1,4.77,2.31c.51.63,12.7,18,18.37,18.49.33,0,.64,0,1,0,3.32,0,7.54-1.65,8.75-9.41,0-.24,5.14-24.41-7.81-46.36-4.68-8-10.72-12-18-12-8.06,0-14.78,5.19-14.82,5.23A10.18,10.18,0,0,1,74,40.52H68.74a9.82,9.82,0,0,1-5.22-1.82c-.28-.21-6.85-5.22-14.84-5.22-7.23,0-13.27,4-18,12-7.59,12.87-9,26.45-8.84,35.56,0,0,1.46,9-2.47,11.6-10.47,7-17.33-5-19-13.75L.19,75.8A70,70,0,1,1,48.6,136.37c-9.65-3.09-21.68-8-28-16.45a15.68,15.68,0,0,1-3-7.33C16.92,106,20.5,101,28.26,100.93c15.48-.19,21.91-17.71,22.33-18.23"/><path class="cls-1" d="M48.93,74.69A3.94,3.94,0,0,1,45,70.76v-8.1H36.9a3.93,3.93,0,0,1,0-7.86H45V46.7a3.93,3.93,0,1,1,7.86,0v8.1H61a3.93,3.93,0,0,1,0,7.86h-8.1v8.1A3.94,3.94,0,0,1,48.93,74.69Z"/><path class="cls-1" d="M90,72.69a6.22,6.22,0,1,1,6.21-6.22A6.22,6.22,0,0,1,90,72.69Z"/><path class="cls-1" d="M90,57.2A6.22,6.22,0,1,1,96.23,51,6.22,6.22,0,0,1,90,57.2Z"/><path class="cls-1" d="M103.65,64.75a6.22,6.22,0,1,1,6.22-6.22A6.22,6.22,0,0,1,103.65,64.75Z"/></svg>