<svg id="Icon" xmlns="http://www.w3.org/2000/svg" viewBox="0 0 140 140"><defs><style>.cls-1{fill:#503291;}</style></defs><path class="cls-1" d="M139.91,69.92a70,70,0,1,0-57,68.77c.62-.12,2.81-.62,4.72-1.07a38.45,38.45,0,0,0,6.21-2.15,15.18,15.18,0,0,0,1.75-25c-.38-.29-1.8-1.38-2.09-1.68l-20.68-20a2,2,0,0,1,0-2.85l8.83-8.82a2,2,0,0,1,2.8,0l20.73,20a4.87,4.87,0,0,1,.72,5.94,10.7,10.7,0,0,0,17,12.7c.51-.51,2.34-2.9,2.81-3.52A69.61,69.61,0,0,0,139.91,69.92Zm-114.63-24a1.22,1.22,0,0,1,2-.55L37,55.05a7.15,7.15,0,0,0,10.08,0l3.11-3.11a7.15,7.15,0,0,0,0-10.08l-9.71-9.71a1.22,1.22,0,0,1,.55-2A21.56,21.56,0,0,1,66.78,57.46a3.23,3.23,0,0,0,.8,3.28,1.45,1.45,0,0,1,0,2.06L58,72.38a1.48,1.48,0,0,1-2.08,0,3.28,3.28,0,0,0-3.29-.8,21.56,21.56,0,0,1-27.36-25.7Zm65.37,21.7a7.43,7.43,0,0,1-9.09,1.08L56,94.23a6.39,6.39,0,0,0-1.31,1.9l-2.75,6.15a4.24,4.24,0,0,1-1.57,1.81l-9.67,6.18a2.53,2.53,0,0,1-3.15-.34L34.62,107a2.54,2.54,0,0,1-.34-3.16l6.21-9.71a4.2,4.2,0,0,1,1.73-1.53l6.16-2.72a6.38,6.38,0,0,0,1.92-1.32L75.89,63A7.41,7.41,0,0,1,77,53.9l19.2-19.2a7.42,7.42,0,0,1,10.45,0l3.24,3.24a7.4,7.4,0,0,1,0,10.45Z"/></svg>