<svg id="Icon" xmlns="http://www.w3.org/2000/svg" viewBox="0 0 140 140"><defs><style>.cls-1{fill:#503291;}</style></defs><path class="cls-1" d="M139.91,69.92A70.08,70.08,0,1,0,89,137.25c.42-.12,2.18-.55,2.62-.68a10.21,10.21,0,0,0-5.54-19.66v0c-.68.13-3.48.46-3.55.47l-1.29.13c-3.17.28-6.88.37-11.17.37-16.74,0-24.71-1.52-25.78-8.93C43.05,100.43,38.74,51,38.74,51s-.4-1.63,1.59-1.63h11.2c1.41,0,1.59,1.62,1.59,1.62l2.75,47.83c.37,7.08,9.32,6.1,9.05-.3L63.31,51.07s.2-1.69,1.61-1.69H75.17c1.42,0,1.61,1.69,1.61,1.69L75.17,98.53c-.26,6.4,8.69,7.38,9,.3L87,51s.18-1.62,1.6-1.62h11.2c2,0,1.58,1.63,1.58,1.63s-3.59,40.24-4.79,53.63c0,.38,0,2.1,0,2.46a15,15,0,0,0,26.6,8.35c.29-.36,1.25-1.64,1.46-1.9A69.65,69.65,0,0,0,139.91,69.92Zm-68-28.21H38.71c-5.08,0-6-9,0-10.31,3.87-.83,19.93-3.61,19.93-3.61.37,0,.46-.75,1-1.89,2.13-4.62,3.29-6.34,7.37-6.34h6.1c4.07,0,5.23,1.72,7.37,6.34.53,1.14.62,1.89,1,1.89,0,0,16.06,2.78,19.94,3.61,6,1.28,5.08,10.31,0,10.31Z"/></svg>