<svg id="Icon" xmlns="http://www.w3.org/2000/svg" viewBox="0 0 140 140"><defs><style>.cls-1{fill:#503291;}</style></defs><path class="cls-1" d="M69.52,87.51a18,18,0,1,0,.11-36.06,18,18,0,1,0-.11,36.06"/><path class="cls-1" d="M139.42,64.6A64.36,64.36,0,0,0,131,36.05C119,15.24,101.24,2.84,77.23,0A66.63,66.63,0,0,0,37.54,7.27,70.36,70.36,0,0,0,5,42.45,68,68,0,0,0-.43,70.11,63.18,63.18,0,0,0,1.82,85.8c1,3.82,3.15,9.39,6,12.31A19.57,19.57,0,0,0,27,103.61c2.87-.81,9.71-3.83,6.85-10.42a1.66,1.66,0,0,1,0-1.31c1.44-2.11,3-4.21,4.59-6.18a1.52,1.52,0,0,0,.44-1.4l-1.47-3.54a1.5,1.5,0,0,0-1.29-.68c-2.5-.27-5.11-.65-7.61-1.11a1.51,1.51,0,0,1-.93-.93,38.11,38.11,0,0,1-.84-8.56,46.23,46.23,0,0,1,.84-8.55,1.48,1.48,0,0,1,.93-.93c2.5-.47,5.11-.84,7.61-1.12a1.48,1.48,0,0,0,1.29-.68l1.47-3.53a1.51,1.51,0,0,0-.44-1.4c-1.57-2-3.15-4.08-4.59-6.18a1.51,1.51,0,0,1,0-1.31,29.91,29.91,0,0,1,5.45-6.65,29.56,29.56,0,0,1,6.63-5.45,1.51,1.51,0,0,1,1.31,0c2.1,1.44,4.2,3,6.17,4.6a1.47,1.47,0,0,0,1.4.43l3.53-1.46A1.53,1.53,0,0,0,59,36c.27-2.5.65-5.11,1.11-7.62A1.53,1.53,0,0,1,61,27.4c1.48-.28,1.55-.84,8.54-.84s7.06.56,8.55.84a1.51,1.51,0,0,1,.92.93c.47,2.51.84,5.12,1.12,7.62a1.51,1.51,0,0,0,.68,1.3l3.53,1.46a1.46,1.46,0,0,0,1.39-.43c2-1.58,4.07-3.16,6.17-4.6a1.53,1.53,0,0,1,1.32,0c1.24.85,2.39,1.21,6.63,5.45s4.59,5.4,5.45,6.65a1.51,1.51,0,0,1,0,1.31c-1.44,2.1-3,4.21-4.6,6.18a1.5,1.5,0,0,0-.43,1.4l1.46,3.53a1.5,1.5,0,0,0,1.29.68c2.51.28,5.11.65,7.62,1.12a1.53,1.53,0,0,1,.93.93c.27,1.49.83,1.79.83,8.55s-.56,7.07-.83,8.56a1.56,1.56,0,0,1-.93.93c-2.51.46-5.11.84-7.62,1.11a1.53,1.53,0,0,0-1.29.68L100.3,84.3a1.51,1.51,0,0,0,.43,1.4c1.58,2,3.16,4.07,4.6,6.18a1.51,1.51,0,0,1,0,1.31,37.71,37.71,0,0,1-5.45,6.64,41.31,41.31,0,0,1-6.63,5.46,1.53,1.53,0,0,1-1.32,0c-2.1-1.45-4.2-3-6.17-4.6a1.5,1.5,0,0,0-1.39-.44l-3.53,1.47a1.48,1.48,0,0,0-.68,1.29c-.28,2.51-.65,5.12-1.12,7.63a1.54,1.54,0,0,1-.92.93,33.49,33.49,0,0,1-8.55.83,39.74,39.74,0,0,1-8.54-.83,1.56,1.56,0,0,1-.93-.93c-.46-2.51-.84-5.12-1.11-7.63a1.5,1.5,0,0,0-.68-1.29l-3.53-1.47a1.51,1.51,0,0,0-1.4.44c-2,1.57-4.07,3.15-6.17,4.6a1.5,1.5,0,0,1-1.31,0c-4-1.22-7.42-1.59-12.29,6.9-4.43,7.73-4,15.86,5.81,20.5a69.64,69.64,0,0,0,42.89,5.62,67.22,67.22,0,0,0,41-23.93c12-14.4,17.27-31.1,16.12-49.78"/></svg>