<svg id="Icon" xmlns="http://www.w3.org/2000/svg" viewBox="0 0 140 140"><defs><style>.cls-1{fill:#503291;}</style></defs><path class="cls-1" d="M139.91,69.92A70,70,0,1,0,29,126.72c.54.39,1.65,1.13,1.65,1.13a12.34,12.34,0,0,0,1.21.83A13.61,13.61,0,0,0,52,121.09c.18-.58.48-3.22.67-5,.09-.83.29-2.59.38-3.2.73-5.56,2.57-17.63,3.64-27.06h-.05c.34-3.09.62-6,.8-8.51,0-.93.06-1.74,0-2.4-.14-4.86-1.13-11.71-1.59-23.3a10.4,10.4,0,0,1,4.83-9.52C68.4,37,83.21,40,82.74,51.63s-1.45,18.44-1.59,23.3C80.93,82.39,85,108,85.79,114.48c.65,5.61-7,6.33-8.31,1.5-1.11-4.23-4.27-26.48-4.66-28.76-.61-3.56-4.59-4.17-6.28-1.38h-.21a4.34,4.34,0,0,0-.5,1.38c-.39,2.28-3.55,24.53-4.66,28.76-.17.64-1.71,6-1.71,8.23a15.59,15.59,0,0,0,15.68,15.58,44.44,44.44,0,0,0,7.12-1A70,70,0,0,0,139.91,69.92ZM76.6,27A7.24,7.24,0,1,1,70,19.13,7.25,7.25,0,0,1,76.6,27Z"/></svg>