<svg id="Icon" xmlns="http://www.w3.org/2000/svg" viewBox="0 0 140 140"><defs><style>.cls-1{fill:#503291;}</style></defs><path class="cls-1" d="M94.53,75v20.6c0,4.82,5.37,4.67,8.49,4.67,18.25,0,37-4.32,37-30.77,0,0,0-2.23-.08-3.33a70,70,0,1,0-32.24,62.34c.49-.31,1-.65,1.46-1,11.38-7.24,11.12-20.18-6.07-20.18-13.84,0-12.18,0-12.18,0H78.69c-4.29,0-4.36-7.1,0-7.1,3.12,0,8.49.15,8.49-4.67V75c0-10.51-24.67-7.82-12-40.1,1-2.41,2-2.83,4.52-2.83H102a4.42,4.42,0,0,1,4.51,2.83C119.2,67.17,94.53,64.48,94.53,75ZM58,100.31c-.45,2.84-2.47,7-10.81,7H44.23c-8.34,0-10.36-4.15-10.81-7-.71-4.54-3.62-29.31-4.52-37A2.07,2.07,0,0,1,31,61H60.44a2.06,2.06,0,0,1,2.05,2.3C61.59,71,58.69,95.77,58,100.31Z"/></svg>