<svg id="Icon" xmlns="http://www.w3.org/2000/svg" viewBox="0 0 140 140"><defs><style>.cls-1{fill:#503291;}</style></defs><path class="cls-1" d="M139.88,68.06a70,70,0,1,0-11,39.56c.36-.56,1.87-3,2.2-3.73A13.69,13.69,0,0,0,118.61,84.6a13.57,13.57,0,0,0-2.87.31,31.57,31.57,0,0,0-4.37,1.73c-.56.28-3.06,1.47-3.27,1.56a32.43,32.43,0,0,1-10.89,2.6c-2.46-6.18-7.58-11-14.75-13.6h0a27,27,0,0,0,3.16-6.08c1.82-4.89,2.06-9.57.75-13.58a3.83,3.83,0,0,1,2.43.46,13.32,13.32,0,0,0,6.61,1.81,12.35,12.35,0,0,0,6.37-1.73,4,4,0,0,1,3.31-.34c5.76,2.09,10.51,6.14,12.32,12.19.16.53.29,1.07.4,1.63,0,0,.25,1,.4,1.44a11.1,11.1,0,0,0,21.55-1.35C139.8,71.27,139.89,68.47,139.88,68.06Zm-59,1.3C74.45,86.44,60,77.58,59.57,62.83,60,45.11,88.46,49.1,80.9,69.36ZM53.36,45.19C46.91,62.27,32.45,53.41,32,38.66,32.5,20.94,60.92,24.93,53.36,45.19ZM43.29,90.87a32.74,32.74,0,0,1-19.72-6.56,5.84,5.84,0,0,1-2.33-4.47h0a65.18,65.18,0,0,1,.08-7.32C22,65,27.14,60.08,33.75,57.7a3.85,3.85,0,0,1,3.18.29,13.33,13.33,0,0,0,6.62,1.81,12.35,12.35,0,0,0,6.37-1.73,4,4,0,0,1,3.3-.34c.65.24,1.28.51,1.9.79a20,20,0,0,0-.55,4.17V63a24.9,24.9,0,0,0,4.82,14.28c-7.11,2.62-12.1,7.42-14.32,13.57C44.48,90.85,43.89,90.87,43.29,90.87Zm50.58,9.61h0c0,.06,0,.12,0,.18,0,.4,0,2.86-.06,3.34h0a5.81,5.81,0,0,1-2.32,4.46,76.62,76.62,0,0,1-7.68,3.9,32.86,32.86,0,0,1-32.69-3.9A5.82,5.82,0,0,1,48.78,104h0a65,65,0,0,1,.08-7.31c.66-7.48,5.82-12.44,12.43-14.82a3.85,3.85,0,0,1,3.18.29A13.33,13.33,0,0,0,71.09,84a12.45,12.45,0,0,0,6.37-1.73,3.91,3.91,0,0,1,3.3-.34C88.36,84.65,94.21,90.8,93.87,100.48ZM105.2,45.19c-6.45,17.08-20.92,8.22-21.34-6.53C84.34,20.94,112.76,24.93,105.2,45.19Z"/></svg>