<svg id="Icon" xmlns="http://www.w3.org/2000/svg" viewBox="0 0 140 140"><defs><style>.cls-1{fill:#503291;}</style></defs><path class="cls-1" d="M79.91,67.72c5.42,1,8.29,6.2,8.29,11.35,0,7.45-5.48,12.17-12.15,17.9-1.38,1.19-2.75,2.47-4.16,3.61s-2,1.38-3.52.18S65.39,98.19,64,97c-6.66-5.73-12.15-10.45-12.15-17.9,0-5.43,3.27-11,9.12-11.45,4.37-.36,6.42,1.89,9.05,4.91,2.71-3.2,5.35-5.62,9.9-4.81"/><path class="cls-1" d="M70,.05A70,70,0,0,0,8,102.53C14.06,113.3,30,116,30,100V61.46a6.05,6.05,0,0,1,6-6h8a2,2,0,0,0,2-2V34.86a5.23,5.23,0,0,1,5.23-5.22h34.9a5.22,5.22,0,0,1,5.22,5.22V45a2,2,0,0,1-2,2H85.24a2,2,0,0,1-2-2V40.26a2,2,0,0,0-2-2H57.14a2,2,0,0,0-2,2V53.42a2,2,0,0,0,2,2h46.92a6,6,0,0,1,6,6v44.05a5.91,5.91,0,0,1-5.91,5.91H47.31c-17.18,0-19.26,16.48-7.6,21.78A70,70,0,1,0,70,.05"/></svg>