<svg id="Icon" xmlns="http://www.w3.org/2000/svg" viewBox="0 0 140 140"><defs><style>.cls-1{fill:#503291;}</style></defs><path class="cls-1" d="M106.67,70.07H79.1l-5.29-10.5a4.15,4.15,0,0,0-2.93-2.27,4,4,0,0,0-4.56,2.87L61.94,75.85l-1.7-3.52a4,4,0,0,0-3.6-2.26H33.39a2,2,0,0,0-1.92,2.58A32.17,32.17,0,0,0,33.2,77,2,2,0,0,0,35,78.07H54.13l5.22,10.79A4,4,0,0,0,63,91.11a3.56,3.56,0,0,0,.65,0,4.13,4.13,0,0,0,3.25-3l4.4-15.77,1.82,3.61a4,4,0,0,0,3.57,2.2h28.43a2,2,0,0,0,1.79-1.1,32.17,32.17,0,0,0,1.73-4.32A2,2,0,0,0,106.67,70.07Z"/><path class="cls-1" d="M130.21,34.1a10.28,10.28,0,0,0-18,9.86c.22.45.74,1.31.74,1.31.26.49.5,1,.73,1.48a34.64,34.64,0,0,1,3.13,14.49c0,19.17-14.11,31.31-31.24,46.06-3.56,3.06-7.08,6.35-10.71,9.29s-5.13,3.56-9.06.46c-3.76-2.94-7.66-6.61-11.28-9.75C37.37,92.55,23.26,80.41,23.26,61.24c0-14,8.4-28.21,23.46-29.45C58,30.87,63.24,36.66,70,44.42,77,36.2,83.77,30,95.46,32.06c.53.1,2.25.61,2.61.72a12,12,0,0,0,11.7-20.12c-.29-.28-1.66-1.41-2.06-1.67a70.08,70.08,0,1,0,24.63,27.28C131.94,37.48,130.56,34.67,130.21,34.1Z"/></svg>