<?xml version="1.0" encoding="utf-8"?>
<!-- Generator: Adobe Illustrator 25.4.1, SVG Export Plug-In . SVG Version: 6.00 Build 0)  -->
<svg version="1.1" id="Icon" xmlns="http://www.w3.org/2000/svg" xmlns:xlink="http://www.w3.org/1999/xlink" x="0px" y="0px"
	 viewBox="0 0 140 140" style="enable-background:new 0 0 140 140;" xml:space="preserve">
<style type="text/css">
	.st0{fill:#503291;}
</style>
<path class="st0" d="M130.2,34.1c-1.8-3-5.1-4.9-8.8-4.9c-5.7,0-10.3,4.6-10.3,10.3c0,1.6,0.4,3.2,1,4.5c0.2,0.5,0.7,1.3,0.7,1.3
	c0.3,0.5,0.5,1,0.7,1.5c2.1,4.5,3.1,9.5,3.1,14.5c0,19.2-14.1,31.3-31.2,46.1c-3.6,3.1-7.1,6.4-10.7,9.3c-3.6,3-5.1,3.6-9.1,0.5
	c-3.8-2.9-7.7-6.6-11.3-9.8C37.4,92.5,23.3,80.4,23.3,61.2c0-14,8.4-28.2,23.5-29.4c11.2-0.9,16.5,4.9,23.3,12.6
	c7-8.2,13.8-14.5,25.5-12.4c0.5,0.1,2.3,0.6,2.6,0.7c1.1,0.3,2.2,0.5,3.4,0.5c6.6,0,12-5.4,12-12c0-3.4-1.4-6.4-3.7-8.6
	c-0.3-0.3-1.7-1.4-2.1-1.7C96.8,4,83.8-0.1,69.9-0.1c-38.7,0-70,31.3-70,70c0,38.7,31.3,70,70,70c38.7,0,70-31.3,70-70
	c0-11.4-2.7-22.1-7.6-31.6C131.9,37.5,130.6,34.7,130.2,34.1z"/>
</svg>
