<svg id="Icon" xmlns="http://www.w3.org/2000/svg" viewBox="0 0 140 140"><defs><style>.cls-1{fill:#503291;}</style></defs><path class="cls-1" d="M139.91,69.92A70.09,70.09,0,1,0,96,134.86c.54-.22,2.59-1,3.07-1.18A14,14,0,0,0,95,106.76c-.42,0-2.21-.06-2.21-.06H85.28a3,3,0,0,1-3-3V75.52a3,3,0,0,0-3-3H62.52a3,3,0,0,0-3,3V103.7a3,3,0,0,1-3,3h-17a3,3,0,0,1-3-3V63.25a3,3,0,0,0-3-3H27a2,2,0,0,1-1.27-3.54L66.25,23.25a6,6,0,0,1,7.64,0l40.49,33.46a2,2,0,0,1-1.28,3.54h-6.5a3,3,0,0,0-3,3V94.38s0,2.4,0,2.76A14.78,14.78,0,0,0,130.87,104a14.1,14.1,0,0,0,.75-1.32,9.64,9.64,0,0,0,.73-1.08A69.65,69.65,0,0,0,139.91,69.92Z"/></svg>