<svg id="Icon" xmlns="http://www.w3.org/2000/svg" viewBox="0 0 140 140"><defs><style>.cls-1{fill:#503291;}</style></defs><path class="cls-1" d="M69.58,79.33a8.93,8.93,0,1,1,8.79-8.93,8.87,8.87,0,0,1-8.79,8.93"/><path class="cls-1" d="M2,87a70.12,70.12,0,0,0,51.31,50.92c.38.09.77.19,1.16.27,1.93.39,3-.36,4.27-1.13,6.14-4.19,5.92-14.68,3.8-17.31l-1.05-1a12.55,12.55,0,0,1,3.31-20.88A2,2,0,0,0,66,96.08V87.63a2,2,0,0,0-1.37-1.89A15.84,15.84,0,0,1,59,82.41a2,2,0,0,0-2.36-.26l-7.17,4.21a2,2,0,0,0-1,2,12.56,12.56,0,0,1-6,12.38A12.16,12.16,0,0,1,25.7,96.13a12.54,12.54,0,0,1-1.23-9.46,12.34,12.34,0,0,1,5.72-7.57A12,12,0,0,1,43.71,80a2,2,0,0,0,2.22.13l7.17-4.2A2,2,0,0,0,54,73.77,16.4,16.4,0,0,1,54,67a2,2,0,0,0-.94-2.13l-7.17-4.21a2,2,0,0,0-2.22.14,12,12,0,0,1-13.52.87,12.4,12.4,0,0,1-5.72-7.57,12.57,12.57,0,0,1,1.23-9.47A12.16,12.16,0,0,1,42.47,40.1a12.55,12.55,0,0,1,6,12.37,2,2,0,0,0,1,2l7.17,4.2A2,2,0,0,0,59,58.39a15.84,15.84,0,0,1,5.66-3.33A2,2,0,0,0,66,53.17V44.71a2,2,0,0,0-1.21-1.83,12.27,12.27,0,1,1,9.52,0,2,2,0,0,0-1.21,1.83v8.46a2,2,0,0,0,1.37,1.89,15.84,15.84,0,0,1,5.66,3.33,2,2,0,0,0,2.36.25l7.17-4.2a2,2,0,0,0,1-2,12.53,12.53,0,0,1,6-12.37,12.16,12.16,0,0,1,16.77,4.56,12.6,12.6,0,0,1-4.49,17,12.07,12.07,0,0,1-13.53-.87,2,2,0,0,0-2.21-.14L86.06,64.9A2,2,0,0,0,85.12,67a16.4,16.4,0,0,1,0,6.74,2,2,0,0,0,.94,2.13l7.17,4.2A2,2,0,0,0,95.44,80,12.07,12.07,0,0,1,109,79.1a12.33,12.33,0,0,1,5.71,7.57,12.57,12.57,0,0,1-1.22,9.47,12.29,12.29,0,0,1-10.64,6.23,12.17,12.17,0,0,1-6.13-1.67,12.53,12.53,0,0,1-6-12.38,2,2,0,0,0-1-2l-7.17-4.21a2,2,0,0,0-2.36.26,15.84,15.84,0,0,1-5.66,3.33,2,2,0,0,0-1.37,1.89v8.45a2,2,0,0,0,1.21,1.83,12.56,12.56,0,0,1,3.45,20.75l-.68.57c-2.13,2.36-4.25,13.21,2.59,17.94,1.19,1.1,5.73,1.27,8.12.42A70.11,70.11,0,0,0,137.8,87h.13A71.85,71.85,0,0,0,121.5,22.52,69.23,69.23,0,0,0,22.6,18,71.8,71.8,0,0,0,1.75,87Z"/></svg>