<svg id="Icon" xmlns="http://www.w3.org/2000/svg" viewBox="0 0 140 140"><defs><style>.cls-1{fill:#503291;}</style></defs><path class="cls-1" d="M69.91-.08A70,70,0,0,0,59.12,139.06c1.54.07,7,.72,9.68-.28a14.09,14.09,0,0,0,1.7-1,11.48,11.48,0,0,0-4-20.67,43,43,0,0,0-7.55-.4,2,2,0,0,1-2-2v-1a2,2,0,0,1,2-2H81.35a2,2,0,0,1,2,2v1a1.94,1.94,0,0,1-.31,1.06c-.06.1-.46,1-.63,1.27a11.92,11.92,0,0,0-1.65,6.07,12.06,12.06,0,0,0,12.06,12.07,11.9,11.9,0,0,0,4.7-1c.18-.08,1-.38,1.23-.48A70,70,0,0,0,69.91-.08Zm-13,94.25V92.65c0-21.22-15.08-27.48-15.08-44.5a28.23,28.23,0,1,1,56.45,0c0,17-15.09,23.28-15.09,44.5v1.52a3,3,0,0,1-3,3H59.9A3,3,0,0,1,56.91,94.17ZM81.35,106.7H58.93a2,2,0,0,1-2-2v-1a2,2,0,0,1,2-2H81.35a2,2,0,0,1,2,2v1A2,2,0,0,1,81.35,106.7Z"/></svg>