<svg id="Icon" xmlns="http://www.w3.org/2000/svg" viewBox="0 0 140 140"><defs><style>.cls-1{fill:#503291;}</style></defs><path class="cls-1" d="M80.07,33.73a24.48,24.48,0,1,0,24.48,24.48A24.51,24.51,0,0,0,80.07,33.73ZM65,47.65a1.45,1.45,0,0,1,1.7-1.16l5.62,1.06a8.34,8.34,0,0,1,7.46-4.65h.47a8.37,8.37,0,0,1,7.47,4.65l5.62-1.06a1.45,1.45,0,0,1,.54,2.85l-5.35,1a8.46,8.46,0,0,1,0,.87.85.85,0,0,1-.85.85H72.28a.85.85,0,0,1-.85-.85,6.35,6.35,0,0,1,0-.87l-5.35-1A1.45,1.45,0,0,1,65,47.65Zm28.88,19.7a1.45,1.45,0,0,1-.27,2.88,1.24,1.24,0,0,1-.27,0l-5.62-1.06a7.74,7.74,0,0,1-3.43,3.79c-1.88.82-6.8.8-8.67-.07a7.64,7.64,0,0,1-3.3-3.72L66.67,70.2a1.24,1.24,0,0,1-.27,0A1.46,1.46,0,0,1,65,69a1.44,1.44,0,0,1,1.16-1.69l5.35-1a6.35,6.35,0,0,1,0-.87v-5.3H66.16a1.45,1.45,0,1,1,0-2.9h5.27V56.06A1.09,1.09,0,0,1,72.52,55H87.46a1.09,1.09,0,0,1,1.09,1.09v1.21h5.32a1.45,1.45,0,0,1,0,2.9H88.55v5.3a8.46,8.46,0,0,1,0,.87Z"/><path class="cls-1" d="M69.91-.08a70,70,0,0,0-66,93.27c.13.38.7,1.8.82,2.12a15.3,15.3,0,0,0,25.62,5c.37-.4,2.29-2.41,2.29-2.41L47.45,83.05a2,2,0,0,1,2.92.12,38.81,38.81,0,0,0,6.27,6,2,2,0,0,1,.2,3L43.62,105.34s-3,2.72-3.65,3.29a16.13,16.13,0,0,0,5,26.69c.49.21,2.5.88,3,1.05A70,70,0,1,0,69.91-.08ZM80.07,92a33.81,33.81,0,1,1,33.81-33.81A33.85,33.85,0,0,1,80.07,92Z"/></svg>