<svg id="Icon" xmlns="http://www.w3.org/2000/svg" viewBox="0 0 140 140"><defs><style>.cls-1{fill:#503291;}</style></defs><path class="cls-1" d="M139.91,69.92a70,70,0,1,0-75.62,69.73l2.43.26a22.52,22.52,0,0,0,2.85,0,10.26,10.26,0,0,0-.25-20.32c-.42,0-2.18-.08-2.18-.08H61.56a2.93,2.93,0,0,1-2.93-2.93V105.1a2.93,2.93,0,0,1,2.93-2.93H79.27a2.93,2.93,0,0,1,2.93,2.93v13.66a14.5,14.5,0,0,0,22.55,12.06c.4-.27,2.45-1.66,3.09-2.07A69.91,69.91,0,0,0,139.91,69.92ZM81.71,90.63a3.12,3.12,0,0,1-3.07,3H62.14a3.12,3.12,0,0,1-3.07-3l-2.9-66.95A2.8,2.8,0,0,1,59,20.73H71.91c1.62,0,12.51-.29,12.76,7.81Z"/></svg>