<svg id="Icon" xmlns="http://www.w3.org/2000/svg" viewBox="0 0 140 140"><defs><style>.cls-1{fill:#503291;}</style></defs><path class="cls-1" d="M139.91,69.92a70,70,0,1,0-73.39,69.87c.28,0,2.65,0,2.93-.06a10.56,10.56,0,0,0,1.19-20.65c-.38-.1-3.16-.38-3.16-.38H61.4a2.9,2.9,0,0,1-2.89-2.89v-65a2.91,2.91,0,0,1,2.89-2.9H79.05a2.91,2.91,0,0,1,2.9,2.9v59.8s0,5.28,0,5.85a17,17,0,0,0,26.57,12.19c.92-.64,4.1-3.33,4.86-3.93A69.86,69.86,0,0,0,139.91,69.92ZM82,37.44c0,1.49-.67,2.24-2,2.24H60.52c-1.34,0-2-.75-2-2.24V23.23c0-1.49.67-2.23,2-2.23h8.22q6.23,0,9.74,3.34T82,33.59Z"/></svg>