<svg id="Icon" xmlns="http://www.w3.org/2000/svg" viewBox="0 0 140 140"><defs><style>.cls-1{fill:#503291;}</style></defs><path class="cls-1" d="M136.47,50.13a14.32,14.32,0,0,0-26.15,6,30.11,30.11,0,0,0,0,3.8v6.8A54.12,54.12,0,0,1,73,118.25l-2.17.71a3,3,0,0,1-1.87,0l-2.18-.71A54.12,54.12,0,0,1,29.41,66.7V42.41a3,3,0,0,1,2.37-2.93l5.52-1.19A71.15,71.15,0,0,0,64.09,26l4-2.84a3,3,0,0,1,3.45,0l4,2.81c6.62,4.62,14.22,9.22,24.94,11.85a47.14,47.14,0,0,0,6.41,1.2,12.8,12.8,0,0,0,7.57-23.14c-.56-.42-2.77-1.85-3.27-2.22a70.14,70.14,0,1,0,28.12,46.73c-.11-.74-.51-3.22-.93-5.26A25.36,25.36,0,0,0,136.47,50.13Z"/><circle class="cls-1" cx="61.2" cy="62.3" r="9.45"/><path class="cls-1" d="M98.77,47.71a79.09,79.09,0,0,1-26-11.57c-.47-.31-1.15-.77-1.72-1.17a2,2,0,0,0-2.27,0c-.47.33-1,.66-1.46,1A79.06,79.06,0,0,1,41,47.71a2,2,0,0,0-1.56,1.94V66.7a44.16,44.16,0,0,0,26.22,40.42c1.05.46,2.13.89,3.23,1.28a3,3,0,0,0,2,0c1.05-.39,2.67-1,3.62-1.44A44.13,44.13,0,0,0,100.33,66.7V49.65A2,2,0,0,0,98.77,47.71ZM63.12,76.93a14.76,14.76,0,1,1,12.7-12.71A14.77,14.77,0,0,1,63.12,76.93ZM82.91,92.85,70.31,78.48a1,1,0,0,1,.2-1.49,17.71,17.71,0,0,0,4.23-3.78,1,1,0,0,1,1.51,0l12.46,14.2a1,1,0,0,1,0,1.29A26.48,26.48,0,0,1,84.26,93,1,1,0,0,1,82.91,92.85Z"/></svg>