<svg id="Icon" xmlns="http://www.w3.org/2000/svg" viewBox="0 0 140 140"><defs><style>.cls-1{fill:#503291;}</style></defs><polygon class="cls-1" points="61.96 47.8 38.17 47.8 38.17 84.6 101.64 84.6 101.65 47.8 77.85 47.8 61.96 47.8"/><path class="cls-1" d="M69.91-.08A69.58,69.58,0,0,0,31,11.75c-.58.38-1.15.78-1.71,1.18l-1.57,1.31a13.05,13.05,0,0,0,5.54,22.57,27,27,0,0,0,4.26.28l1.88.06h67.15a4.8,4.8,0,0,1,4.8,4.81V88.38a4.8,4.8,0,0,1-4.8,4.81H79a2.08,2.08,0,0,0-2.07,2.28l.51,5.28h0a2.09,2.09,0,0,0,1.74,1.58l6.63.75a4.59,4.59,0,0,1,2.59,1.34,5.12,5.12,0,0,1,.83,1,3.29,3.29,0,0,1,.22.43,12.45,12.45,0,0,1,.93,5.95A1.54,1.54,0,0,1,89,113.29H51a1.54,1.54,0,0,1-1.41-1.47,12.45,12.45,0,0,1,.93-5.95,3.29,3.29,0,0,1,.22-.43,5.12,5.12,0,0,1,.83-1,4.59,4.59,0,0,1,2.59-1.34l6.63-.75a2.09,2.09,0,0,0,1.79-1.87l.48-5A2.08,2.08,0,0,0,61,93.19H33.45a4.81,4.81,0,0,1-4.8-4.81V52.72s-.1-4-.29-4.92a12.72,12.72,0,0,0-24-2.57c-.4.87-1.76,5.52-2.13,6.93A70,70,0,1,0,69.91-.08Z"/></svg>