<svg id="Icon" xmlns="http://www.w3.org/2000/svg" viewBox="0 0 140 140"><defs><style>.cls-1{fill:#503291;}</style></defs><path class="cls-1" d="M69.91-.08c-.72,0-1.44,0-2.16,0l-3,.12A11.15,11.15,0,0,0,61.31,21.5l.91.34.68.17a18.34,18.34,0,0,1,8.54,5,1,1,0,0,1-.61,1.66,24.82,24.82,0,0,0-3,.55A1,1,0,0,1,67,29a13.82,13.82,0,0,0-10.95-3c-.35.06-.69.13-1,.21a3.37,3.37,0,0,0-.34.09l-.68.19-.37.13-.62.23-.37.16q-.32.13-.63.3l-.31.15c-.29.16-.58.33-.85.5l-.32.22a6,6,0,0,0-.52.36c-.13.09-.26.2-.39.3l-.39.33c-.14.11-.27.23-.4.35l-.34.32-.39.4c-.09.1-.17.2-.26.29a14.91,14.91,0,0,0-.93,1.17h0l-.38.57-.17.27-.33.57-.15.3c-.11.2-.2.4-.3.6s-.07.18-.11.28-.19.44-.27.66a13.86,13.86,0,0,0,13,18.66c.35,0,.68,0,1,0a3,3,0,0,1,1.06.22,2.44,2.44,0,0,1-1.44,4.37c-.2,0-1.15-.06-1.4-.07A18.41,18.41,0,0,1,40,37.49a18,18,0,0,1,.73-3.29h0c.12-.37.25-.74.39-1.1s.19-.45.29-.67l.27-.59.31-.62c.13-.24.26-.47.4-.7s.17-.31.27-.46c.23-.36.47-.71.72-1.06l.29-.37c.2-.26.4-.51.61-.75l.28-.33c.31-.34.62-.68.95-1s.92-.94,1.07-1.08A10.1,10.1,0,0,0,34.21,9.7L33,10.45A70,70,0,1,0,69.91-.08Zm-.12,79.44a2.52,2.52,0,0,0-1.19,2.16v25.34A5.15,5.15,0,0,1,67.51,110l-6.63,8.46a2.56,2.56,0,0,1-4,0L50.22,110a5.11,5.11,0,0,1-1.09-3.16V81.52a2.53,2.53,0,0,0-1.2-2.16,20.91,20.91,0,0,1-10-18,20.51,20.51,0,0,1,2.42-9.53.91.91,0,0,1,.11-.16,20.79,20.79,0,0,0,1.46,1.93,21.42,21.42,0,0,0,15.42,7.54l.37,0c.43,0,1,0,1.19,0H59a5.41,5.41,0,0,0,5-3.81,5,5,0,0,0-5-6.77c-.26,0-.52,0-.79,0a10.9,10.9,0,0,1-10.16-7,20.66,20.66,0,0,1,11.47-3.09A20.93,20.93,0,0,1,69.79,79.36ZM113,96l-10.67-1.3a5.11,5.11,0,0,1-3-1.46L81.78,75.71c-.92-.74-.64-.9-.1-1.81A26,26,0,0,0,66.75,36.6a1,1,0,0,1,0-1.89A20.92,20.92,0,0,1,94.45,59.18a2.48,2.48,0,0,0,.69,2.35l17.91,17.92a5.12,5.12,0,0,1,1.47,3l1.3,10.68A2.56,2.56,0,0,1,113,96Z"/></svg>