<svg id="Icon" xmlns="http://www.w3.org/2000/svg" viewBox="0 0 140 140"><defs><style>.cls-1{fill:#503291;}</style></defs><path class="cls-1" d="M139.91,69.92a70,70,0,1,0-74.2,69.84c.41,0,2.12.16,2.58.16a10.05,10.05,0,0,0,.79-20.07c-.26,0-1.75,0-2,0h-.25a6,6,0,0,1-5.63-5.58c-.58-8.33-1.17-16.36-1.84-16.45-3.45-.43-7.24-2-7.24-5.56,0-4.07,8.86-18.28,8.86-21.57,0-8.73-3.63-18.32-2.29-22.09.94-2.67,3.16-6.34,11.41-6.34h0c8.24,0,10.46,3.67,11.41,6.34,1.33,3.77-2.29,13.36-2.29,22.09,0,3.29,8.85,17.5,8.85,21.57,0,3.54-3.78,5.13-7.23,5.56-.51.07-1,4.76-1.42,10.68,0,.68-.36,3.93-.36,4.88a18.53,18.53,0,0,0,29.36,15.06L111,126.6A69.87,69.87,0,0,0,139.91,69.92ZM70,35.54a7.78,7.78,0,1,1,7.64-7.78A7.71,7.71,0,0,1,70,35.54Z"/></svg>