<svg id="Icon" xmlns="http://www.w3.org/2000/svg" viewBox="0 0 140 140"><defs><style>.cls-1{fill:#503291;}</style></defs><path class="cls-1" d="M98.34,46.2H41.69a3,3,0,0,0-3,3V85a1,1,0,0,0,1,1H60.18a1,1,0,0,1,1,1v1.28a2,2,0,0,0,2,2H76.85a2,2,0,0,0,2-2V87a1,1,0,0,1,1-1h20.49a1,1,0,0,0,1-1V49.2A3,3,0,0,0,98.34,46.2Z"/><path class="cls-1" d="M136.92,48.93a14.23,14.23,0,0,0-27.38,1.8c-.19.92-.2,6-.2,6V85a1,1,0,0,0,1,1h6.28a2,2,0,0,1,2,2v2.53A5.47,5.47,0,0,1,113.15,96H26.88a5.47,5.47,0,0,1-5.47-5.47V88a2,2,0,0,1,2-2h6.28a1,1,0,0,0,1-1V44.2a6,6,0,0,1,6-6H98.81s7,0,7.76-.09a13.36,13.36,0,0,0,4.94-24.42l0,0a69.91,69.91,0,1,0,27.09,42.87C138.33,55,137.27,50,136.92,48.93Z"/></svg>