<svg id="Icon" xmlns="http://www.w3.org/2000/svg" viewBox="0 0 140 140"><defs><style>.cls-1{fill:#503291;}</style></defs><path class="cls-1" d="M65.39.06A70,70,0,0,0,5.74,97.86c.15.35.87,2,1.11,2.53a13.34,13.34,0,0,0,24.33-1.31c.17-.43.81-2,1-2.37a62.55,62.55,0,0,1,5.59-10.64,1,1,0,0,1,1.54-.15l2.92,2.92A1,1,0,0,1,42.36,90c-.76,1.56-1.41,3.06-2,4.44a1,1,0,0,0,1.3,1.3c1.38-.55,2.88-1.2,4.44-2A1,1,0,0,1,47.3,94l2.91,2.91a1,1,0,0,1-.15,1.55,62.78,62.78,0,0,1-10.19,5.4c-.43.18-2.5,1-3.08,1.27a14.68,14.68,0,0,0-1.13,26c.63.36,3.2,1.59,3.83,1.89a69.57,69.57,0,0,0,31.8,7A70,70,0,1,0,65.39.06Zm40.13,33.81c-2.37,8.2-8.27,24.11-20.86,36.7a124.66,124.66,0,0,1-10,9,4.41,4.41,0,0,0-1.62,2.95L72,92.51a3.2,3.2,0,0,1-.9,1.88L58.12,107.32a1.1,1.1,0,0,1-1.84-1.08l3.59-12.77a2.22,2.22,0,0,0-.57-2.16l-.48-.47a1.1,1.1,0,0,0-1.26-.22c-.88.43-1.73.81-2.56,1.16a2.21,2.21,0,0,1-2.4-.49L44,82.69a2.19,2.19,0,0,1-.48-2.39c.34-.83.73-1.69,1.15-2.56a1.11,1.11,0,0,0-.21-1.27L44,76a2.21,2.21,0,0,0-2.16-.56L29.05,79A1.11,1.11,0,0,1,28,77.17L40.91,64.24a3.06,3.06,0,0,1,1.88-.9l10-1.09a4.43,4.43,0,0,0,3-1.62,123,123,0,0,1,9-10c12.59-12.6,28.49-18.5,36.7-20.87A3.31,3.31,0,0,1,105.52,33.87Z"/></svg>