<svg id="Icon" xmlns="http://www.w3.org/2000/svg" viewBox="0 0 140 140"><defs><style>.cls-1{fill:#503291;}</style></defs><path class="cls-1" d="M86.13,54.23,70.46,62.35A3,3,0,0,0,68.85,65v7.25a2.24,2.24,0,0,0,3.28,2l15.66-8.12a3,3,0,0,0,1.61-2.66V56.22A2.24,2.24,0,0,0,86.13,54.23Z"/><path class="cls-1" d="M123.44,25.4A28.41,28.41,0,0,0,103.29,17c-7,0-21.45,9.1-21.81,9.35l-9.79,6.72L55.92,43.88l0,0-5.22,3.57C46,50.74,52,58.34,59.5,54.45L97,34.58a3,3,0,0,1,4.37,2.66V92.66c0,2.24-1.24,2.53-3.23,3.56L60.36,115.84c-7.83,4-18.94-2.83-18.94-9.58L41.4,55c0-5.24,0-8.85,4.05-11.73l3.75-2.67.12.06L75.53,22.79s4.56-3.25,5-3.61A10.76,10.76,0,0,0,75.12.1C74.68,0,72.86,0,72.45,0c-.84,0-1.69,0-2.54,0a70,70,0,1,0,56.31,28.44C125.89,27.9,124,25.91,123.44,25.4Z"/></svg>