<svg id="Icon" xmlns="http://www.w3.org/2000/svg" viewBox="0 0 140.25 140.25"><defs><style>.cls-1{fill:#503291;}</style></defs><path class="cls-1" d="M140.13,70.12a70,70,0,1,0-102,62.26,26.31,26.31,0,0,0,2.45,1.13c.33.1.68.19,1,.26a11,11,0,0,0,4,0,10.53,10.53,0,0,0,7.18-15.76c-.07-.12-.38-.54-.47-.66-.56-.74-1.1-1.81-.08-2.54l13-13a2.92,2.92,0,0,1,2.32-.82A32,32,0,0,0,73,101a3,3,0,0,1,2.41.9l11,11a3,3,0,0,1-1.2,5,50.15,50.15,0,0,1-9.57,2c-.34,0-1.71.13-2,.16a10.1,10.1,0,0,0,.86,20.16c1,0,4.92-.62,6-.78A70,70,0,0,0,140.13,70.12ZM100.65,30.53a49.18,49.18,0,0,1,4.83,4.24,50.72,50.72,0,0,1,5.48,6.5,3,3,0,0,1-.33,3.87l-9.38,9.37a3,3,0,0,1-4.7-.59,31.29,31.29,0,0,0-4.5-5.72,30.85,30.85,0,0,0-4.21-3.51,3,3,0,0,1-.44-4.61l9.29-9.29A3,3,0,0,1,100.65,30.53ZM29.47,41A50,50,0,0,1,39.84,30.34a3,3,0,0,1,3.95.27L54.88,41.69a1,1,0,0,1-.23,1.58,30.64,30.64,0,0,0-12,12.62,1,1,0,0,1-1.58.23L29.79,44.89A3,3,0,0,1,29.47,41Zm-6.4,46a50.22,50.22,0,0,1-.62-32,3,3,0,0,1,5-1.19l11,11a3,3,0,0,1,.83,2.38,31.09,31.09,0,0,0,.22,7.65,3,3,0,0,1-.8,2.56L28,88.15A3,3,0,0,1,23.07,87.06ZM56.38,99.38,45.14,110.63a3,3,0,0,1-3.87.33,50.72,50.72,0,0,1-6.5-5.48,49.18,49.18,0,0,1-4.24-4.83,3,3,0,0,1,.26-4l11-11a1,1,0,0,1,1.57.18,30.75,30.75,0,0,0,12.75,12A1,1,0,0,1,56.38,99.38Zm19.51-59.7a31.23,31.23,0,0,0-11.16,0,1,1,0,0,1-.87-.27L52.41,27.91a3,3,0,0,1,1.12-5,50.21,50.21,0,0,1,33.52.12A3,3,0,0,1,88.15,28L76.74,39.43A1,1,0,0,1,75.89,39.68Zm34,60.73a50,50,0,0,1-10.68,10.37,3,3,0,0,1-3.87-.32L86,101.09a3,3,0,0,1,.58-4.69,30.45,30.45,0,0,0,5.48-4.35,31.92,31.92,0,0,0,3.67-4.44,3,3,0,0,1,4.61-.46l9.32,9.31A3,3,0,0,1,109.91,100.41Zm2.43-12.57L101.62,77.12a2.91,2.91,0,0,1-.85-2.48,31.1,31.1,0,0,0,.23-7,3,3,0,0,1,.85-2.39l11.06-11.07a3,3,0,0,1,5,1.21,50.27,50.27,0,0,1-.61,31.36A3,3,0,0,1,112.34,87.84Z"/></svg>