<svg id="Icon" xmlns="http://www.w3.org/2000/svg" viewBox="0 0 140.25 140.25"><defs><style>.cls-1{fill:#503291;}</style></defs><path class="cls-1" d="M70.49.13A70,70,0,0,0,35.2,130.76c.53.31,2.24,1.41,2.59,1.62a7,7,0,0,0,3.61,1h.06a7.06,7.06,0,0,0,6.07-3.49c.38-.63,9.54-23.69,9.54-23.69C51.71,103.59,45.55,98,44,92.52H31c-2.56,0-4.64-1.8-4.64-4,0-3-.13-6.73,4.64-6.73H64.89c5.53,0,4.63,4,4.63,6.73,0,2.19-2.08,4-4.63,4H55.82c2.3,4.89,10.14,6.89,16.39,6.89C86,99.41,95.45,90,95.45,76.16c0-8.14-5.18-14.12-9.17-18.57a.08.08,0,0,0,0,0,.66.66,0,0,0-.14-.15,2.69,2.69,0,0,0-1.91-.8,2.72,2.72,0,0,0-1.9.79h0L68,71.63a4.66,4.66,0,0,1-6.56,0l-6.83-6.85a4.64,4.64,0,0,1,0-6.56L66.33,46.56,81.47,31.42a4.66,4.66,0,0,1,6.56,0l.14.15,2.74-2.73c1.89-1.89,3.28-2.24,4.35-1.93.45.26.91.53,1.35.81.68.64,1.2,1.45,1.65,1.9,1.23,1.23.77,3.73-1.05,5.52l-2.73,2.73.38.38a4.66,4.66,0,0,1,0,6.56l-2,2h0s0,0,0,0l0,0a2.67,2.67,0,0,0-.8,1.92,2.64,2.64,0,0,0,.88,2,0,0,0,0,1,0,0c5.54,5.94,11.66,14.26,11.66,25.38a33.27,33.27,0,0,1-17.59,29.33l5,7a2,2,0,0,1-.79,3q-2.31,1.06-4.73,1.91a2,2,0,0,1-2.3-.79l-3.71-5.56-2-3a34.73,34.73,0,0,1-11.65.2l-4.45,11.07-.05.12h0s-4.92,12-4.92,13v.06A7.26,7.26,0,0,0,62,139.36a22,22,0,0,0,2.59.54c1.83.15,3.68.22,5.55.22a70,70,0,0,0,.36-140Z"/></svg>