<svg id="Icon" xmlns="http://www.w3.org/2000/svg" viewBox="0 0 140.25 140.25"><defs><style>.cls-1{fill:#503291;}</style></defs><path class="cls-1" d="M69.54,68.63a4,4,0,1,0,4,4A4,4,0,0,0,69.54,68.63Z"/><path class="cls-1" d="M140.13,70.13a70.06,70.06,0,1,0-60.76,69.38,28.36,28.36,0,0,0,3.51-1,13.08,13.08,0,0,0-1.42-24.76c-.45-.12-5.37-.44-5.37-.44a1.84,1.84,0,0,1-1-1.56c-.23-5.27-.53-13.48-.4-15.33A104.36,104.36,0,0,0,76,85.71c.28-3.8-3.06-5.67-6.46-5.66s-6.74,1.86-6.47,5.66a102.6,102.6,0,0,0,1.39,10.72c.13,1.85-.17,10.06-.41,15.33a1.83,1.83,0,0,1-1,1.56H50.8a6,6,0,0,1-6-6V64.56a6,6,0,0,1,6-6H88.31a6,6,0,0,1,6,6V100.3s-.06,9.92.56,11.64a16.25,16.25,0,0,0,15.21,10.68,16.06,16.06,0,0,0,10.9-4.26c.51-.47,2.07-2.28,2.56-2.92l1.73-2.23A69.65,69.65,0,0,0,140.13,70.13Zm-59.6-28.6-8.91,8.91a3,3,0,0,1-4.14,0l-8.91-8.91c-1.14-1.14-.75-2.07.86-2.07H79.67C81.28,39.46,81.67,40.39,80.53,41.53Zm-.86-9.43H59.43c-1.61,0-2-.93-.86-2.07l8.91-8.91a2.93,2.93,0,0,1,4.14,0L80.53,30C81.67,31.17,81.28,32.1,79.67,32.1Z"/></svg>