<svg id="Icon" xmlns="http://www.w3.org/2000/svg" viewBox="0 0 140.25 140.25"><defs><style>.cls-1{fill:#503291;}</style></defs><path class="cls-1" d="M140.13,70.13A70,70,0,1,0,67,140c.34,0,3.23.09,3.67,0A10.72,10.72,0,0,0,80,129.47h0a10.7,10.7,0,0,0-9.52-10.6,18,18,0,0,0-2.2,0H56.56a2,2,0,0,1-2-2.12L59.1,53.08h-.17a2,2,0,0,1-2-2V49.82a2,2,0,0,1,2-2h21a2,2,0,0,1,2,2v1.26a2,2,0,0,1-2,2h-.08l5.3,62s.28,3.73.46,4.63a14.8,14.8,0,0,0,14.49,12,14.62,14.62,0,0,0,8.31-2.59c.79-.54,4.18-3.29,5.14-4.05A69.83,69.83,0,0,0,140.13,70.13ZM54.21,42.85,32.07,48.56a1,1,0,0,1-1.22-1.19l1.33-5.83a1,1,0,0,1,.87-.77l20.73-2.19a1,1,0,0,1,1.11,1v1.26a6.84,6.84,0,0,0,.06.91A1,1,0,0,1,54.21,42.85ZM55,33.36,38.2,31.65a50.06,50.06,0,0,1,8.55-5.73l9.16,4.25A12.78,12.78,0,0,0,55,33.36Zm24.9,7.47a2,2,0,0,1-2,2h-16a2,2,0,0,1-2-2V35.16a7.67,7.67,0,0,1,7.67-7.67h4.66a7.66,7.66,0,0,1,7.67,7.67Zm28.22.71,1.34,5.83a1,1,0,0,1-1.23,1.19L86.12,42.85a1,1,0,0,1-.74-1.11,6.84,6.84,0,0,0,.07-.91V39.57a1,1,0,0,1,1.1-1l20.73,2.19A1,1,0,0,1,108.15,41.54ZM84.42,30.17l9.16-4.25a50.06,50.06,0,0,1,8.55,5.73L85.3,33.36A12.78,12.78,0,0,0,84.42,30.17Z"/></svg>