<svg id="Icon" xmlns="http://www.w3.org/2000/svg" viewBox="0 0 140.25 140.25"><defs><style>.cls-1{fill:#503291;}</style></defs><path class="cls-1" d="M70.12.12A70,70,0,0,0,6.28,98.86c.22.48,1.06,2.16,1.25,2.52a10.27,10.27,0,0,0,19.35-4.82,10.49,10.49,0,0,0-.28-2.39c-.13-.51-.83-2.81-.94-3.48a18.57,18.57,0,0,1,7.53-18.36L53.55,58a18.19,18.19,0,0,1,10.51-3.33h0a18.07,18.07,0,0,1,3.27.29,18.29,18.29,0,0,1,11.9,7.61l.83,1.19a4.53,4.53,0,0,1-.94,6.3,4.2,4.2,0,0,1-2.43.77,4.6,4.6,0,0,1-3.77-2l-.85-1.21a9.58,9.58,0,0,0-6.27-4A10.06,10.06,0,0,0,64,63.46a9.38,9.38,0,0,0-5.47,1.7L38.22,79.51a9.82,9.82,0,0,0-2.37,13.57l.9,1.29a10,10,0,0,0,8.1,4.39,8.17,8.17,0,0,0,4.76-1.49l12.88-9.1h0a4.68,4.68,0,0,1,2.55-.77,4.31,4.31,0,0,1,3.55,1.82,4.52,4.52,0,0,1-1.06,6.12h0l-.06,0-.11.08-.06,0-12.68,9a16.93,16.93,0,0,1-9.76,3.06,18.46,18.46,0,0,1-4.45-.56,22.34,22.34,0,0,0-5-.94,11.43,11.43,0,0,0-6.65,20.74c.53.38,3,1.91,3.71,2.34A70,70,0,1,0,70.12.12Zm36.43,67.63L86.19,82.06a18.1,18.1,0,0,1-10.5,3.34h0a19.1,19.1,0,0,1-3.27-.29,18.29,18.29,0,0,1-11.9-7.61l-.83-1.2A4.51,4.51,0,0,1,60.62,70a4.2,4.2,0,0,1,2.43-.77,4.6,4.6,0,0,1,3.77,2l.85,1.21a9.66,9.66,0,0,0,6.27,4,10.06,10.06,0,0,0,1.81.16,9.45,9.45,0,0,0,5.47-1.7l20.3-14.35A9.82,9.82,0,0,0,103.89,47l-.9-1.29a10,10,0,0,0-8.1-4.39,8.23,8.23,0,0,0-4.76,1.48L77.25,51.91h0a4.67,4.67,0,0,1-2.55.76,4.34,4.34,0,0,1-3.55-1.81,4.52,4.52,0,0,1,1.06-6.12h0l.06-.05.11-.07.06,0,12.68-9a16.93,16.93,0,0,1,9.76-3.06,18.71,18.71,0,0,1,15.29,8.14l.89,1.28A18.64,18.64,0,0,1,106.55,67.75Z"/></svg>