<svg id="Icon" xmlns="http://www.w3.org/2000/svg" viewBox="0 0 140.25 140.25"><defs><style>.cls-1{fill:#503291;}</style></defs><path class="cls-1" d="M70.13.13A70,70,0,0,0,2.84,50.8c-.24.82-.6,2.52-.6,2.52a8.91,8.91,0,0,0-.4,1.13,10.18,10.18,0,0,0-.36,2.67A9.87,9.87,0,0,0,11.35,67c4,0,7.11-2.57,9-5.89a6,6,0,0,1,4.9-2.57H36.49a6,6,0,0,1,6,6v3h2a1,1,0,0,0,1-1V39.19a1.84,1.84,0,0,1,1.84-1.84H68.15L60.31,31c-.26-.21-.31-.43-.12-.66l1-1.14a2.71,2.71,0,0,1,4.1-.37l9.92,8.11a3.47,3.47,0,0,1,1.31,3A3.51,3.51,0,0,1,75.18,43c-.55.49-9.92,8.1-9.92,8.1a2.71,2.71,0,0,1-4.1-.37l-1-1.14c-.19-.24-.14-.45.12-.66l7.84-6.4H51.49a1,1,0,0,0-1,1v23a1,1,0,0,0,1,1H68.15l-7.84-6.41c-.26-.2-.31-.42-.12-.65l1-1.14a2.71,2.71,0,0,1,4.1-.37l9.92,8.11a4.19,4.19,0,0,1,0,6.09c-.55.5-9.92,8.11-9.92,8.11a2.72,2.72,0,0,1-4.1-.37l-1-1.14c-.19-.24-.14-.45.12-.66l7.84-6.41H51.49a1,1,0,0,0-1,1v24.2a1,1,0,0,0,1,1H68.15l-7.84-6.41c-.26-.2-.31-.42-.12-.65l1-1.15a2.88,2.88,0,0,1,2-1.12,2.91,2.91,0,0,1,2.14.75l9.92,8.12a4.19,4.19,0,0,1,0,6.09c-.55.5-9.92,8.11-9.92,8.11a2.91,2.91,0,0,1-2.14.75,2.88,2.88,0,0,1-2-1.12l-1-1.14c-.19-.24-.14-.45.12-.66l7.84-6.41H47.33a1.83,1.83,0,0,1-1.84-1.83V73.75a1,1,0,0,0-1-1h-2v3a6,6,0,0,1-6,6H25.28A6,6,0,0,1,20,78.58h0a9.67,9.67,0,0,0-18.29,2A18.87,18.87,0,0,0,1.63,84s.13,1.2.26,1.78A70,70,0,1,0,70.13.13ZM105.7,106.88a6,6,0,0,1-6,6H88.49a6,6,0,0,1-6-6V95.66a6,6,0,0,1,6-6H99.7a6,6,0,0,1,6,6Zm0-31a6,6,0,0,1-6,6H88.49a6,6,0,0,1-6-6V64.64a6,6,0,0,1,6-6H99.7a6,6,0,0,1,6,6Zm0-30.9a6,6,0,0,1-6,6H88.49a6,6,0,0,1-6-6V33.74a6,6,0,0,1,6-6H99.7a6,6,0,0,1,6,6Z"/></svg>