<svg id="Icon" xmlns="http://www.w3.org/2000/svg" viewBox="0 0 140.25 140.25"><defs><style>.cls-1{fill:#503291;}</style></defs><path class="cls-1" d="M66.34,42.51A14.3,14.3,0,1,0,83.54,59.7,14.19,14.19,0,0,0,66.34,42.51Z"/><path class="cls-1" d="M109.11,12A12.2,12.2,0,0,0,91,22.69a11.55,11.55,0,0,0,2.42,7c.84,1.13,4.12,4.45,4.65,5.14a35.59,35.59,0,0,1,7.26,21.58c0,29.34-24.11,53.86-32.71,61.68a4.45,4.45,0,0,1-6,0,127.57,127.57,0,0,1-14.72-16C43.29,89.85,35,76.06,34.08,60.8,32.4,40,48,21.11,68.93,20.72c.93,0,1.85,0,2.76.07.65,0,3.34.39,4.08.39A10.42,10.42,0,0,0,76.63.38L73.21.21c-1,0-2-.09-3.08-.09a70.08,70.08,0,1,0,43.49,15.19C112.79,14.65,109.82,12.41,109.11,12Z"/></svg>