<svg id="Icon" xmlns="http://www.w3.org/2000/svg" viewBox="0 0 140.25 140.25"><defs><style>.cls-1{fill:#503291;}</style></defs><path class="cls-1" d="M33.52,58.93c-1.63,0-3.69,1.6-4.56,3.55a18.59,18.59,0,0,0,0,14.77c.87,2,2.93,3.54,4.56,3.54s3-1.73,3-3.84V62.77C36.51,60.66,35.17,58.93,33.52,58.93Z"/><path class="cls-1" d="M70.13.12a70,70,0,0,0-70,70c0,.4,0,1.82,0,2.15a9.27,9.27,0,1,0,18.54,0c0-.19,0-.38,0-.57h0c0-.55-.07-1.09-.07-1.65A23,23,0,0,1,63,62.29h43.76a17.11,17.11,0,0,1,9.14,2.22c.35.21.69.42,1,.66l4.14,2.72a1,1,0,0,1,.16,1.53c-1.64,1.68-5.3,5.21-7.28,6.81a2.42,2.42,0,0,1-2.34,0c-1.9-2.37-3.59-1.43-5.37,0-.81.66-1.65,1.31-2.56.58-.13-.1-1.05-.6-1.28-.71-2-.95-4.52-.94-5.89.09l-1.3,1.06a3.89,3.89,0,0,1-4.48.1l-1-.72C88.48,75.74,87.41,75,86.2,75s-2.3.79-3.52,1.75l-.82.65a2.9,2.9,0,0,1-4-.33l-2.21-2.6a2.31,2.31,0,0,0-3.59,0L71,75.65a6.21,6.21,0,0,1-3.9,2c-1.14,0-2.93,0-4,0h0A23,23,0,0,1,29.81,89.46c-.33-.19-1.61-1.13-1.95-1.36a12.68,12.68,0,0,0-7.42-2.39A12.82,12.82,0,0,0,7.63,98.53a12.64,12.64,0,0,0,1.81,6.54c.16.28.92,1.47,1.12,1.8A70,70,0,1,0,70.13.12Z"/></svg>