<svg id="Icon" xmlns="http://www.w3.org/2000/svg" viewBox="0 0 140.25 140.25"><defs><style>.cls-1{fill:#503291;}</style></defs><path class="cls-1" d="M70.13.12a70.7,70.7,0,0,0-12.94,1.2l-1.14.22-1.12.29a10.37,10.37,0,0,0,1.76,20.29c.36,0,2.26,0,2.47,0,8.87-.83,16.71,2.83,8.37,13.55-22.24,28.61-4.25,38.74,10.24,31.5,11.77-5.89,22.42,11.89,20,14.71C81.38,101,25.32,97.46,43.53,31.63c.09-.34,1-3,1.17-3.4a11.25,11.25,0,0,0,.72-4,11.55,11.55,0,0,0-18.77-9c-.3.24-1.8,1.54-2.25,1.94A70,70,0,1,0,70.13.12ZM90.34,114.25a55,55,0,0,0-15-3.52v.09a35.34,35.34,0,0,0-5.06-.36,55.55,55.55,0,0,0-20.61,3.79c-3.61,1.29-6.16-3.09-2.44-4.93,8.87-4.36,17.32-4.76,18.41-6.13a.43.43,0,0,0,0-.11c0-.24,0-2.75,0-3a2,2,0,0,1,2-2.33,3.88,3.88,0,0,1,.48,0h3.71a4,4,0,0,1,.49,0,2,2,0,0,1,2,2.33v3a.29.29,0,0,0,0,.1c1.07,1.38,9.53,1.78,18.4,6.14C96.51,111.16,94,115.54,90.34,114.25Z"/></svg>