<svg id="Icon" xmlns="http://www.w3.org/2000/svg" viewBox="0 0 140.25 140.25"><defs><style>.cls-1{fill:#503291;}</style></defs><path class="cls-1" d="M122.07,23.21a9.85,9.85,0,0,0-.94-1A10.11,10.11,0,0,0,106,35.47c.51.72,2.78,3.09,3.25,3.69a49.33,49.33,0,0,1,10.49,27.45,3,3,0,0,1-3,3.15H88.83a5.47,5.47,0,0,1,0,1c-.07.44-.08.51,0,.2l-.09.77c0,.38-.09.77-.12,1.16-.07.77-.12,1.55-.15,2.33a50,50,0,0,0,0,5.05A42.71,42.71,0,0,0,90,89.64a47,47,0,0,0,8.55,17,3.68,3.68,0,0,1,0,5.09c-1.27,1.27-3.86,1.51-5.09,0A55,55,0,0,1,81.73,69.76H70.82a5.47,5.47,0,0,1,0,1c-.07.44-.08.51,0,.2l-.09.77c-.05.38-.09.77-.12,1.16-.07.77-.12,1.55-.15,2.33a50,50,0,0,0,.05,5.05A43.28,43.28,0,0,0,72,89.64a47.18,47.18,0,0,0,8.56,17,3.68,3.68,0,0,1,0,5.09c-1.27,1.27-3.86,1.51-5.09,0A55,55,0,0,1,63.72,69.76H52.81a5.47,5.47,0,0,1,0,1c-.07.44-.08.51,0,.2l-.09.77c0,.38-.09.77-.12,1.16-.07.77-.12,1.55-.15,2.33a50,50,0,0,0,.05,5.05A43.28,43.28,0,0,0,54,89.64a47.18,47.18,0,0,0,8.56,17,3.68,3.68,0,0,1,0,5.09c-1.27,1.27-3.86,1.51-5.09,0A55,55,0,0,1,45.71,69.76H23.65a3,3,0,0,1-3-3.15A49.64,49.64,0,0,1,86.6,22.91c.6.21,1.19.43,1.78.66h0a20.18,20.18,0,0,0,4,.84A10,10,0,0,0,97.84,6a46,46,0,0,0-5.21-2.12,70,70,0,1,0,30.52,20.57Z"/></svg>