<svg id="Icon" xmlns="http://www.w3.org/2000/svg" viewBox="0 0 140.25 140.25"><defs><style>.cls-1{fill:#503291;}</style></defs><circle class="cls-1" cx="70.13" cy="32.76" r="4"/><circle class="cls-1" cx="70.13" cy="106.77" r="4"/><path class="cls-1" d="M87.33,68.27a.91.91,0,0,0-.73-.78l-1.86-.29a15,15,0,0,0-1.29-4l1.32-1.34a.91.91,0,0,0,.14-1.06s-.39-.65-.82-1.24-1-1.24-1-1.24A.93.93,0,0,0,82,58.18l-1.67.87a14.5,14.5,0,0,0-3.18-2.3l.31-1.92a.93.93,0,0,0-.51-.94s-.77-.34-1.5-.58S74,52.92,74,52.92a.93.93,0,0,0-1,.46l-.88,1.75h0a14,14,0,0,0-2-.14,16.39,16.39,0,0,0-2,.13,0,0,0,0,1,0,0l-.88-1.75a.91.91,0,0,0-1-.46s-.74.16-1.43.38-1.51.58-1.51.58a.91.91,0,0,0-.51.93l.3,1.92v0a15,15,0,0,0-3.29,2.4h0l-1.75-.89a.92.92,0,0,0-1,.2s-.5.56-.92,1.15S55.31,61,55.31,61A.93.93,0,0,0,55.46,62l1.38,1.36s0,0,0,0a15,15,0,0,0-1.21,3.76h-.07l-1.92.3a.91.91,0,0,0-.74.77s-.09.84-.09,1.61.07,1.48.07,1.48a.94.94,0,0,0,.73.78l1.94.3a.22.22,0,0,0,.08,0,14.44,14.44,0,0,0,1.26,3.86l-.08,0-1.37,1.38a.92.92,0,0,0-.13,1.06s.43.72.88,1.35.94,1.15.94,1.15a.93.93,0,0,0,1.05.19l1.74-.9.06-.06a15.06,15.06,0,0,0,3.17,2.31s0,0,0,0l-.31,1.93a.92.92,0,0,0,.51.94s.69.3,1.38.53,1.56.41,1.56.41a.91.91,0,0,0,1-.46l.88-1.73s0,0,0,0a13.43,13.43,0,0,0,2,.15,15.86,15.86,0,0,0,2-.13h0L73,86.16a.93.93,0,0,0,1,.46s.82-.17,1.56-.41,1.38-.52,1.38-.52a.93.93,0,0,0,.52-.94l-.31-1.93a14.72,14.72,0,0,0,3.3-2.39l1.73.88a.92.92,0,0,0,1-.2s.56-.63,1-1.25.8-1.25.8-1.25a.91.91,0,0,0-.14-1.06L83.5,76.19a14.6,14.6,0,0,0,1.22-3.77l1.89-.29a.89.89,0,0,0,.73-.77s.08-.75.08-1.48S87.33,68.27,87.33,68.27ZM77.25,72.08a7.45,7.45,0,1,1-4.78-9.39A7.46,7.46,0,0,1,77.25,72.08Z"/><path class="cls-1" d="M68.47.14A70,70,0,0,0,18.61,117.48c.32.34,1.53,1.72,1.83,2a13.48,13.48,0,0,0,23.21-7.64c.06-.52.09-3.22.09-3.22v-7.9a2,2,0,0,1,2-2H94.51a2,2,0,0,1,2,2v8a6,6,0,0,1-6,6h-31s-2.35,0-2.76.07a12.13,12.13,0,0,0-.85,24c.62.11,6,.79,7,.9a70.86,70.86,0,0,0,7.18.37A70,70,0,1,0,68.47.14Zm26,93.63H45.74a2,2,0,0,1-2-2v-44a2,2,0,0,1,2-2H94.51a2,2,0,0,1,2,2v44A2,2,0,0,1,94.51,93.77Zm0-53H45.74a2,2,0,0,1-2-2v-8a6,6,0,0,1,6-6H90.51a6,6,0,0,1,6,6v8A2,2,0,0,1,94.51,40.76Z"/></svg>