<svg id="Icon" xmlns="http://www.w3.org/2000/svg" viewBox="0 0 140.25 140.25"><defs><style>.cls-1{fill:#503291;}</style></defs><path class="cls-1" d="M70.13.12a70,70,0,0,0-16.77,138c.29.07.59.15.89.21,0,0,.86.22,1.31.28a19.57,19.57,0,0,0,3.14,0,9.82,9.82,0,0,0,.24-19.27l-.89-.18c-.48-.1-1-.2-1.43-.32-16.73-4.11-28.1-22.54-23.09-38.6C35,66.79,36.69,56.77,28.74,45.52a7.87,7.87,0,0,1,2.5-9.4c9.66-8.67,18.88,14.12,21.38,21.66L57.5,52.9l1.29-1.28h0L69.53,40.87s9.81-9.91,11-11.18c6-6.48,12.37-13.4,17.17-8.64,4.51,4.48.22,8.47-5.4,14.1C89,38.41,77.66,49.93,76.77,50.92a2.24,2.24,0,0,0,0,2.81,2.1,2.1,0,0,0,2.49.41c1.57-1.44,2-2.13,3-3,2.37-2.47,6.28-1.66,8.65.54,2.92,2.88,2.23,7.33-.69,9.92l-2.09,2.09a2,2,0,0,0,2.81,2.81l1.67-1.67c4.4-5.9,15.34,2.81,8.93,9.29-1.66,1.61-.79.9-2.45,2.48-1.85,1.83,1.08,4.63,2.84,2.8,0,0,2.23-2.93,5.36-2.06a5.74,5.74,0,0,1,4.53,3.82,3.12,3.12,0,0,1,.34,1.89,15.41,15.41,0,0,1-3.57,6.72c-2.34,2.79-13.56,12.81-14.85,14a76,76,0,0,1-14.27,10.38,29.62,29.62,0,0,0-2.78,1.72,12.61,12.61,0,0,0,7.95,22.4,36.78,36.78,0,0,0,5.71-1.05A70,70,0,0,0,70.13.12Z"/></svg>