<svg id="Icon" xmlns="http://www.w3.org/2000/svg" viewBox="0 0 140.25 140.25"><defs><style>.cls-1{fill:#503291;}</style></defs><path class="cls-1" d="M71.48,52h-30a2.5,2.5,0,0,1,0-5h30a2.5,2.5,0,0,1,0,5Z"/><path class="cls-1" d="M62.48,62.48h-21a2.5,2.5,0,0,1,0-5h21a2.5,2.5,0,1,1,0,5Z"/><path class="cls-1" d="M58.48,73h-17a2.5,2.5,0,0,1,0-5h17a2.5,2.5,0,1,1,0,5Z"/><path class="cls-1" d="M70.13.12a70,70,0,0,0-67,90.22c.32,1.06,1.51,5,1.89,5.86a12.72,12.72,0,0,0,24.17-3.08c.08-.45.19-2.32.19-2.32v-48a5.57,5.57,0,0,1,5.55-5.55H90.38a5.56,5.56,0,0,1,5.54,5.55V98.21a5.56,5.56,0,0,1-5.54,5.55H43.69s-2.46,0-2.86,0a14.44,14.44,0,0,0-5.66,27.08c.42.23,2,1,2.41,1.22A70,70,0,1,0,70.13.12Zm44.13,85.25a3.29,3.29,0,0,1-.39,1.57l-4,7.48a1.11,1.11,0,0,1-1.94,0L103.61,87a3.3,3.3,0,0,1-.44-1.66V49.6a3.33,3.33,0,0,1,3.33-3.33h4.43a3.33,3.33,0,0,1,3.33,3.33Z"/></svg>