<svg id="Icon" xmlns="http://www.w3.org/2000/svg" viewBox="0 0 140.25 140.25"><defs><style>.cls-1{fill:#503291;}</style></defs><path class="cls-1" d="M134.61,42.84a70,70,0,1,0-91.42,91.87c.86.36,4.46,2,5.47,2.31a13.06,13.06,0,0,0,12.8-22c-.21-.19-1.2-1.18-1.46-1.5a13.65,13.65,0,0,1-3.3-8.67,13.35,13.35,0,1,1,26.7,0,13.11,13.11,0,0,1-2.74,7.86,23.44,23.44,0,0,1-1.94,1.92,13.05,13.05,0,0,0,8.54,22.93,12.88,12.88,0,0,0,3.9-.6c.59-.19,2.9-1.09,3.47-1.3A70.11,70.11,0,0,0,138.54,85a72,72,0,0,0-3.93-42.11Zm-78.67,42a1.85,1.85,0,0,1-2.47.13L48.7,80.13c-.63-.62-.28-2,.84-3a31.48,31.48,0,0,1,41,0c1.13,1,1.47,2.35.85,3L86.63,85a1.85,1.85,0,0,1-2.47-.13A21.68,21.68,0,0,0,55.94,84.83Zm48.41-20.62-4,4A2.47,2.47,0,0,1,97,68a40.38,40.38,0,0,0-54,0,2.48,2.48,0,0,1-3.36.2l-4-4c-.85-.84-.54-2.57.75-3.72a50.19,50.19,0,0,1,67.1,0C104.89,61.64,105.2,63.37,104.35,64.21Zm13.72-15.63-3.29,3.33a3,3,0,0,1-4.08-.26,60.08,60.08,0,0,0-81.3,0,3,3,0,0,1-4.09.26L22,48.58c-1-1-.74-3,.72-4.38a69.87,69.87,0,0,1,94.59,0C118.8,45.53,119.1,47.55,118.07,48.58Z"/></svg>