<svg id="Icon" xmlns="http://www.w3.org/2000/svg" viewBox="0 0 140.25 140.25"><defs><style>.cls-1{fill:#503291;}</style></defs><path class="cls-1" d="M140.12,70.12a70,70,0,1,0-36.85,61.66c.79-.43,2.34-1.36,2.34-1.36a10.94,10.94,0,0,0,1.41-.91,11.74,11.74,0,0,0-7-21.15,11.46,11.46,0,0,0-4.24.8c-.62.24-3.32,1.77-4.12,2.19A46.4,46.4,0,0,1,54,113.72a1.08,1.08,0,0,1-.45-1.7,14.36,14.36,0,0,0,1.64-2.68,1.06,1.06,0,0,1,1.34-.52A41,41,0,1,0,67.37,29.19C48.58,30.42,31.1,47.35,29.29,66.09a40.87,40.87,0,0,0,5.62,25.06,1.06,1.06,0,0,1-.25,1.42,13.71,13.71,0,0,0-2.3,2.14,1.09,1.09,0,0,1-1.75-.11,46.49,46.49,0,1,1,85.84-20.42A45.81,45.81,0,0,1,111.67,91c-.41.81-.84,1.6-1.29,2.38,0,0-.48,1.5-.69,2.26a11.73,11.73,0,0,0,20.87,9.86c.54-.76,2.31-4.32,2.77-5.28A69.63,69.63,0,0,0,140.12,70.12ZM86.54,41.4a6.84,6.84,0,1,1-6.84,6.84A6.85,6.85,0,0,1,86.54,41.4ZM83.8,70.12A13.68,13.68,0,1,1,70.12,56.45,13.69,13.69,0,0,1,83.8,70.12ZM70.12,40a29.19,29.19,0,0,1,3.52.21,1.08,1.08,0,0,1,.82,1.59,13.62,13.62,0,0,0-1.14,2.92,1.12,1.12,0,0,1-1.17.84c-.66-.06-1.34-.09-2-.09a24.64,24.64,0,1,0,23,15.78A1.11,1.11,0,0,1,93.57,60,13.28,13.28,0,0,0,96.06,58a1.08,1.08,0,0,1,1.76.35,29.77,29.77,0,0,1,2.39,11.73A30.09,30.09,0,1,1,70.12,40ZM42.77,96.72a6.84,6.84,0,1,1-6.84,6.84A6.85,6.85,0,0,1,42.77,96.72Z"/></svg>