<svg id="Icon" xmlns="http://www.w3.org/2000/svg" viewBox="0 0 140.25 140.25"><defs><style>.cls-1{fill:#503291;}</style></defs><path class="cls-1" d="M68.48,63.9c-2-.84-3.79-1.68-5.47-2.52-3.51,1.4-4.91,3.36-4.91,5.33,0,4.35,9,7.43,13.19,9.26,2,.84,3.79,1.68,5.47,2.52,3.51-1.4,4.91-3.36,4.91-5.33C81.67,68.81,72.69,65.73,68.48,63.9Z"/><path class="cls-1" d="M140.27,70.09A70,70,0,1,0,38.43,132.42h0A10.14,10.14,0,1,0,48,114.55a36.75,36.75,0,0,1-5.45-3.68,1.79,1.79,0,0,1-.42-2.52l4.63-6.6c3.09-4.35,6.18-3,9.55-1.12,2.66,1.4,5.89,3.51,10.8,3.51,2.67,0,5-1.27,5-3.79,0-8.7-35.08-10.24-35.08-31,0-7.16,2.53-12.77,11.51-17.54-3.37-3.65-4.63-7.58-4.63-12.63,0-11.37,10-18.52,27.78-18.52,10.1,0,18.24,2.1,25.82,8.28A1.79,1.79,0,0,1,98,31.45l-4.63,6.6c-3.09,4.35-6.17,2.94-9.54,1.12-2.67-1.4-5.9-3.51-10.81-3.51-2.66,0-5,1.27-5,3.79,0,8.7,35.08,10.24,35.08,31,0,7.16-2.52,12.77-11.5,17.54,3.36,3.65,4.63,7.58,4.63,12.63,0,9.76-7.35,16.4-20.71,18.09-1,.13-2.1.25-3.21.3-7.16.33-12.71,2.48-13.11,10.56A10.24,10.24,0,0,0,68.26,140c.38,0,3.9,0,4.15,0A70,70,0,0,0,140.27,70.09Z"/></svg>