<svg id="Icon" xmlns="http://www.w3.org/2000/svg" viewBox="0 0 140.25 140.25"><defs><style>.cls-1{fill:#503291;}</style></defs><path class="cls-1" d="M66.47,75.06c.49.13,1.32-.24,2.36-1.2a.51.51,0,0,0-.16-.85A4.6,4.6,0,0,0,67,72.69a4.76,4.76,0,0,0-1.64.29.52.52,0,0,0-.25.76C65.61,74.57,66.1,75,66.47,75.06Z"/><path class="cls-1" d="M85.66,33.29a3.52,3.52,0,0,0,1.63-2.12,3.46,3.46,0,0,0-.35-2.65,3.52,3.52,0,0,0-2.12-1.64,3.63,3.63,0,0,0-.92-.12,3.5,3.5,0,1,0,1.76,6.53Z"/><path class="cls-1" d="M71,78.54a7.45,7.45,0,0,1-4.31,1.55,5.94,5.94,0,0,1-1.39-.17,6.42,6.42,0,0,1-2.23-1,.49.49,0,0,0-.75.57,5,5,0,0,0,9.46-.35A.5.5,0,0,0,71,78.54Z"/><path class="cls-1" d="M140.12,70.12a70,70,0,1,0-83.91,68.59c.84.17,3.88.89,4.58,1a11.92,11.92,0,0,0,2.17.19,12.35,12.35,0,0,0,6-23.13c-.76-.43-4.79-2.11-4.79-2.11l-19.65-8.85-3.83-1.72-7.53-3.4L31.63,100a6.15,6.15,0,0,1-3-8.14l8.71-19.38c1.4-3.1,3.83-3.21,5.4-.24L54.26,94a8.3,8.3,0,0,0,3.56,3.37l.38.19.39.16a8.32,8.32,0,0,0,4.88.43l24-5.82c3.26-.79,4.79,1.1,3.39,4.21l-5.24,11.64s-1.72,3.2-2.1,4a14.81,14.81,0,0,0,20.32,19.4c.68-.36,3.61-2.24,4.41-2.76A69.9,69.9,0,0,0,140.12,70.12ZM66.57,91.64a14.43,14.43,0,0,1-3.54.51,8.46,8.46,0,0,1-1.13-.09c-.15,0-.29-.08-.43-.12a4,4,0,0,1-.61-.2,3.82,3.82,0,0,1-.54-.32l-.43-.28a6,6,0,0,1-.68-.66l-.09-.08a15.12,15.12,0,0,1-2-3L44.35,63c-.8-1.56-.29-2.41.37-2.88a2.25,2.25,0,0,1,2.51,0l8.39,3.77a1,1,0,0,0,1.41-1c-.26-3.09-.72-9.26-.72-9.26a1,1,0,0,1,1.88-.55l2.93,5.29a4,4,0,0,1,.48,1.46L61.86,62c.2,1.51.42,2.85.65,4.05a2,2,0,0,0,1.14,1.45l6.87,3.1a1,1,0,0,0,1.18-.26c6.6-7.86,10.7-21.16,11-30.42,0-.17,0-.33,0-.5,0-.62.17-.64-.42-.82-.17-.05-.36-.07-.55-.12a8.5,8.5,0,1,1,6.72-1l-.27.15c-.44.29-.44.29-.5.78,0,.14,0,.28,0,.43,0,9.89-4,24-10.93,33.2a1,1,0,0,0,.38,1.52L93.6,81c1.22.55,1.58,1.15,1.66,1.89s-.21,1.75-1.91,2.18Z"/></svg>