<svg id="Icon" xmlns="http://www.w3.org/2000/svg" viewBox="0 0 140.25 140.25"><defs><style>.cls-1{fill:#503291;}</style></defs><path class="cls-1" d="M70.23-.1a70,70,0,0,0-55,113.29h0c18,19.59,52.59-6.71,46.16-14.52l-.08-.11A124.18,124.18,0,0,1,50.17,86.43h0c-7.23-9.44-12.51-19.63-14.23-24-2.58-6.58-5.24-14.8-4.32-23.47a11.09,11.09,0,0,1,3.71-7h0A82.79,82.79,0,0,1,43,25.34c1.19-.89,2.83-2.12,4.65-.94a13.66,13.66,0,0,1,2.08,2.37c3.91,4.85,7.8,9.64,11.77,14.56.92,1.13,2.13,2,2.18,3.65.09,2.26-2.54,3.83-3.93,5-1,.8-5.83,4.83-5.78,4.82h0c-2,1.81-.67,5.21.36,7.32,2.49,5.08,16,22.34,20.32,26,1.8,1.51,4.79,3.58,7,2.12,0,0,4.79-3.48,6.09-4.44,1.47-1.07,3.63-3.23,5.8-2.6,1.57.45,2.14,1.83,3,3,3.81,5,7.52,10,11.28,14.95a13.73,13.73,0,0,1,1.8,2.59c.7,2-.89,3.34-2,4.29a85.78,85.78,0,0,1-8.27,5.89h0a11,11,0,0,1-7.69,1.9,35.6,35.6,0,0,1-6.44-1.54l-.06,0c-17.72-4-43.33,22-22.54,25.26A70,70,0,1,0,70.23-.1Z"/></svg>