<svg id="Icon" xmlns="http://www.w3.org/2000/svg" viewBox="0 0 140.25 140.25"><defs><style>.cls-1{fill:#503291;fill-rule:evenodd;}</style></defs><path class="cls-1" d="M137.52,51.82c-4.41-16.86-14.22-30.22-28.69-40A65.72,65.72,0,0,0,77,.52,72.52,72.52,0,0,0,53,2.13a68.61,68.61,0,0,0-31,17A68.38,68.38,0,0,0,.19,72.52,80.05,80.05,0,0,0,1.45,82c.72,4,1.85,8.39,4.63,11.56,5.28,6,21,9.5,22.07-2.37V51.29a3.7,3.7,0,0,1,3.68-3.69H44.48a3.69,3.69,0,0,0,3.68-3.68V40.35a3.68,3.68,0,0,1,3.68-3.68H89.31A3.69,3.69,0,0,1,93,40.35v3.57a3.69,3.69,0,0,0,3.68,3.68h11.72a3.69,3.69,0,0,1,3.68,3.69V99.91a3.7,3.7,0,0,1-3.68,3.7l-66.78.1c-19.12.17-16.44,17.47-12.2,22.26a31.49,31.49,0,0,0,9.68,6.92,67.5,67.5,0,0,0,45.25,5.67,69.11,69.11,0,0,0,42.53-27.78C139.79,92.87,143.06,73,137.52,51.82Z"/><path class="cls-1" d="M70.11,55A19.86,19.86,0,1,0,90,74.84,19.87,19.87,0,0,0,70.11,55Zm0,32.27A12.41,12.41,0,1,1,82.53,74.84,12.41,12.41,0,0,1,70.11,87.25Z"/></svg>