<svg id="Icon" xmlns="http://www.w3.org/2000/svg" viewBox="0 0 140.25 140.25"><defs><style>.cls-1{fill:#503291;}</style></defs><path class="cls-1" d="M69.8,0A70,70,0,1,0,127,110.38c.34-.48.7-1,1-1.47,6.18-10.08.15-18.56-11.24-16.77l-18,2.79s-4.47,7.65-8.49,7.65H48.39c-4,0-8.49-7.65-8.49-7.65L27.52,91.78c-4.21-.84-4.08-6.77-.95-6.77h98.64c13.22,0,14.39-6.47,14.56-13.18,0-.61,0-1.23,0-1.85A70,70,0,0,0,69.8,0ZM25.86,40.91l42.48-4.76,42.48-4.75c1.71-.2,2.71,1.5,2.59,3.28a3.92,3.92,0,0,1-2.79,3.55c-4.19,1.35-12,4.5-12,4.5s-3.59,8.11-7.58,8.56l-20.8,2.32L49.5,55.94c-4,.45-9.3-6.66-9.3-6.66s-8.26-1.36-12.64-1.74S22.75,41.26,25.86,40.91Zm88.57,24a3.94,3.94,0,0,1-3.16,3.23C107,69,98.9,71.3,98.9,71.3S94.45,79,90.43,79L69.51,79l-20.93.06c-4,0-8.51-7.63-8.51-7.63S32,69.21,27.68,68.35s-4.09-6.76-1-6.77l42.75-.11,42.75-.12C113.93,61.35,114.74,63.14,114.43,64.9Z"/></svg>