<svg id="Icon" xmlns="http://www.w3.org/2000/svg" viewBox="0 0 140.25 140.25"><defs><style>.cls-1{fill:#503291;}</style></defs><path class="cls-1" d="M65.65.24a70,70,0,0,0-54.86,107c3.63,5.09,8.47,4.24,14.74-.41.84-.62,2.06-1.69,3.57-3.09a6.61,6.61,0,0,0,1.19-8.35,47.31,47.31,0,1,1,16.89,15.93,6.58,6.58,0,0,0-8,1.32,81.77,81.77,0,0,0-6.38,7.42c-2.43,3.62-4.09,6.26,1.17,10A70,70,0,1,0,65.65.24"/><path class="cls-1" d="M58.22,98A6.42,6.42,0,0,0,61.53,97L96.65,75.79a6.42,6.42,0,0,0,0-11L61.53,43.55a6.43,6.43,0,0,0-9.74,5.5V91.54A6.41,6.41,0,0,0,58.22,98"/></svg>