<svg id="Icon" xmlns="http://www.w3.org/2000/svg" viewBox="0 0 140.25 140.25"><defs><style>.cls-1{fill:#503291;}</style></defs><path class="cls-1" d="M138.64,83.22c0-10.06-8.16-17.79-18.21-18.21a29.22,29.22,0,0,0-7.68,1.11C101.13,69.05,99.87,79.5,99.87,91c0,19.15-13.73,29.16-27.3,29.16-12.81,0-25.76-9-27-26.19a2.58,2.58,0,0,1,2.56-2.79h3.73a2.52,2.52,0,0,1,2.55,2.26c.94,12.37,9.59,17.93,18.18,17.93C81.45,111.33,91,105,91,91c0-8.61.31-30.25,22.27-33.91a26,26,0,0,1,2.67-.24c1.3,0,3.22,0,3.47,0a14.39,14.39,0,0,0,11.13-22,70,70,0,1,0,6,57.29C137.59,89.41,138.74,86.27,138.64,83.22Zm-95-3.06V74.94c-16.89-4-17-23.52-17-23.52a5.9,5.9,0,0,1,6-7.09h3.7a1.28,1.28,0,0,0,1.29-1.28V33.29a3.87,3.87,0,0,1,7.73,0v9.76a1.28,1.28,0,0,0,1.29,1.28h6.42a1.28,1.28,0,0,0,1.28-1.28V33.29a3.87,3.87,0,0,1,7.73,0v9.76a1.28,1.28,0,0,0,1.29,1.28h3.7a5.89,5.89,0,0,1,6,7.09s-.07,19.56-17,23.51v5.23a3.63,3.63,0,0,1-3.63,3.6H47.22A3.63,3.63,0,0,1,43.59,80.16Z"/></svg>