<svg id="Icon" xmlns="http://www.w3.org/2000/svg" viewBox="0 0 140.25 140.25"><defs><style>.cls-1{fill:#503291;}</style></defs><path class="cls-1" d="M69.91-.08A70,70,0,0,0,5.13,96.45c.19.47.67,1.36.67,1.36A11.51,11.51,0,0,0,6.54,99a12.74,12.74,0,0,0,23.11-5.6c0-.23,0-2.69,0-4.82,0-1.67,0-9.65,0-9.65V60.66c0-2.72,3-4.95,6.66-4.95H103c3.67,0,6.67,2.23,6.67,4.95V96.31c0,2.72-3,5-6.67,5H97.15V92.68a7,7,0,0,0-7-7h-41a7,7,0,0,0-7,7v8.63l-1,0A15.86,15.86,0,0,0,32.65,129a23.84,23.84,0,0,0,3.08,2c2.41,1.23,6.7,3.27,8.11,3.84A70,70,0,1,0,69.91-.08ZM92.15,48.61a2,2,0,0,1-2,2h-41a2,2,0,0,1-2-2V31a6.2,6.2,0,0,1,6.19-6.2H86a6.2,6.2,0,0,1,6.2,6.2Zm0,61.67a6.19,6.19,0,0,1-6.2,6.19H53.3a6.19,6.19,0,0,1-6.19-6.19V92.68a2,2,0,0,1,2-2h41a2,2,0,0,1,2,2Z"/><path class="cls-1" d="M82.92,100.43H55.56a2.5,2.5,0,0,1,0-5H82.92a2.5,2.5,0,1,1,0,5Z"/><path class="cls-1" d="M82.92,110.43H55.56a2.5,2.5,0,0,1,0-5H82.92a2.5,2.5,0,1,1,0,5Z"/></svg>