<?xml version="1.0" encoding="utf-8"?>
<!-- Generator: Adobe Illustrator 25.4.1, SVG Export Plug-In . SVG Version: 6.00 Build 0)  -->
<svg version="1.1" id="Icon" xmlns="http://www.w3.org/2000/svg" xmlns:xlink="http://www.w3.org/1999/xlink" x="0px" y="0px"
	 viewBox="0 0 140.2 140.2" style="enable-background:new 0 0 140.2 140.2;" xml:space="preserve">
<style type="text/css">
	.st0{fill:#503291;}
</style>
<g>
	<path class="st0" d="M-50.9,97.2c-0.1-0.7-0.5-3.2-0.9-5.3c-0.2-1.1-1.5-4.3-2-5c-2.6-3.9-7-6.4-12-6.4c-7.3,0-13.3,5.4-14.2,12.4
		c-0.1,0.6-0.1,3.2,0,3.8v6.8c0,2.3-0.2,4.7-0.4,6.9c-2.9-1.3-6-2.1-9.4-2.1c-0.2,0-0.3,0-0.5,0c0.2-1.6,0.3-3.2,0.3-4.9v-17
		c0-0.9-0.7-1.7-1.6-1.9c-11.1-2.6-19.3-7.1-26-11.6c-0.5-0.3-1.1-0.8-1.7-1.2c-0.7-0.5-1.6-0.5-2.3,0c-0.5,0.3-1,0.7-1.5,1
		c-6.4,4.3-14.9,9-26.3,11.7c-0.9,0.2-1.6,1-1.6,1.9v17c0,17.7,10.4,33.4,26.2,40.4c1.1,0.5,2.1,0.9,3.2,1.3c0.7,0.2,1.4,0.2,2,0
		c1-0.4,2.7-1,3.6-1.4c2.1-0.9,4-2,5.9-3.3c1.5,3.1,3.6,5.7,6.3,7.8c-4.2,2.8-8.8,5.1-13.7,6.7l-2.2,0.7c-0.6,0.2-1.3,0.2-1.9,0
		l-2.2-0.7c-22.3-7.3-37.3-28-37.3-51.6V79.2c0-1.4,1-2.6,2.4-2.9l5.5-1.2c12.1-2.6,20.7-7.9,26.8-12.3l4-2.8c1-0.7,2.4-0.7,3.4,0
		l4,2.8c6.6,4.6,14.2,9.2,24.9,11.9c0.6,0.2,5,1.2,6.4,1.2c7.1,0,12.8-5.7,12.8-12.8c0-4.2-2.1-8-5.2-10.3c-0.6-0.4-2.8-1.9-3.3-2.2
		c-11.6-8.4-25.8-13.4-41.2-13.4c-38.7,0-70,31.3-70,70c0,38.7,31.3,70,70,70c38.7,0,70-31.3,70-70
		C-50.2,103.7-50.5,100.4-50.9,97.2z M-111.9,95.8c-5.4,13.7-17.4,6.6-17.7-5.3C-129.3,76.3-105.6,79.5-111.9,95.8z M-112.1,131.4
		c-2.6,0.8-5.3,1.2-8.1,1.2h-0.1c-6.2,0-11.8-2-16.4-5.3c-1.2-0.9-1.9-2.2-1.9-3.6l0,0c-0.1-2.3-0.1-4.4,0.1-5.9
		c0.6-6,4.8-10,10.3-11.9c0.9-0.3,1.8-0.2,2.6,0.2c1.6,0.9,3.4,1.4,5.3,1.4c1.9,0,3.7-0.5,5.3-1.4c0.8-0.4,1.8-0.5,2.6-0.2
		c3.9,1.3,7.1,3.7,8.9,7.1c-5.3,4.1-8.8,10.5-8.8,17.8C-112.2,131-112.1,131.2-112.1,131.4z M-89.8,147.3c-3.3,0-6.4-1-9-2.7
		c-2.8-1.9-5.1-4.5-6.4-7.7c-0.8-1.9-1.2-3.9-1.2-6.1c0-0.7,0.1-1.3,0.1-2c0.4-3.6,2-6.8,4.3-9.3c2.7-2.9,6.4-4.8,10.5-5.2
		c0.5,0,1-0.1,1.6-0.1c3,0,5.8,0.8,8.2,2.2c4.9,2.9,8.3,8.2,8.3,14.3C-73.3,139.9-80.7,147.3-89.8,147.3z"/>
	<path class="st0" d="M-91.8,136.7l-3.9-6.3c0,0-0.1-0.2-0.3-0.2c-0.1,0-0.2,0.1-0.3,0.1c0,0-1.4,1.1-1.4,2c0,0.4,0.1,0.8,0.4,1.2
		l3.6,5.9c0,0,0,0,0,0c0.3,0.4,0.7,0.7,1.2,0.8c0.9,0.3,2,0,2.6-0.9l8.1-12.3c0.2-0.4,0.4-0.8,0.3-1.2c0-0.9-1.4-2-1.4-2
		c-0.1-0.1-0.2-0.1-0.3-0.1c-0.2,0-0.3,0.2-0.3,0.2l-1.7,2.5"/>
</g>
</svg>
