<svg id="Icon" xmlns="http://www.w3.org/2000/svg" viewBox="0 0 140.25 140.25"><defs><style>.cls-1{fill:#503291;}</style></defs><path class="cls-1" d="M70.13.13a70,70,0,0,0-55,113.29c.18.22,2,2.67,2.5,3.2a11.49,11.49,0,0,0,19.49-8.25c0-.82-.43-3.87-.43-3.87L33,85.23a3.21,3.21,0,0,0-3.76-2.54,5.33,5.33,0,0,1-6.26-4.22L20,63.52a5.34,5.34,0,0,1,4.23-6.26l18.3-3.56a5.88,5.88,0,0,0,3.76-1.89l31.5-27.38c2.36-2.06,4.79-1.22,5.39,1.86L95,86.83c.86,4.45-1.94,6.88-6.22,5.4L50.53,79.07c-1.66-.59-2.29-.08-1.67,1.55l4.5,23.19a7.17,7.17,0,0,1-3.77,7.75l-2.3,1.13a13.2,13.2,0,0,0,2.31,24.45c.45.13,2,.49,2.3.58A70,70,0,1,0,70.13.13ZM93.4,42l11.3-10.29a2.37,2.37,0,1,1,3.2,3.51L96.6,45.47a2.36,2.36,0,0,1-3.35-.16A2.36,2.36,0,0,1,93.4,42Zm23.65,32.51a2.39,2.39,0,0,1-2.35,2,2.31,2.31,0,0,1-.37,0l-15.1-2.39a2.37,2.37,0,0,1,.75-4.69l15.09,2.38A2.39,2.39,0,0,1,117.05,74.47Zm.36-18.36L97.2,60a2.3,2.3,0,0,1-.45,0,2.38,2.38,0,0,1-.45-4.71l20.2-3.93a2.38,2.38,0,0,1,.91,4.67Z"/></svg>