<svg id="Icon" xmlns="http://www.w3.org/2000/svg" viewBox="0 0 140.25 140.25"><defs><style>.cls-1{fill:#503291;}</style></defs><path class="cls-1" d="M125.49,70.43a17.63,17.63,0,0,0-2.83-.35c-2.55,0-6.55.11-6.55.11h-7.89a3.11,3.11,0,0,1-3.16-2.84,3,3,0,0,1,3-3.16h9.06c.79.11,6.56-.22,8.41-1a16.06,16.06,0,0,0,10-14.89q0-.69-.06-1.35a25.88,25.88,0,0,0-.78-3.78,15.79,15.79,0,0,0-1.11-2.52,70,70,0,1,0,.11,58.64c.5-1.09,2.47-5.11,2.87-6.09a17,17,0,0,0-11.11-22.8ZM103.33,50.35l8.76-3.19a3,3,0,0,1,4,2.37,3.08,3.08,0,0,1-2,3.31L105.24,56a3.1,3.1,0,0,1-1,.18,3,3,0,0,1-2.9-2.25A3.09,3.09,0,0,1,103.33,50.35ZM19.73,67a3.1,3.1,0,0,1,3.16-2.84H32A3.1,3.1,0,0,1,35.19,67a3,3,0,0,1-3,3.16H22.73A3,3,0,0,1,19.73,67ZM37,84l-8.79,3.2a2.83,2.83,0,0,1-1,.19,3,3,0,0,1-2.91-2.25,3.11,3.11,0,0,1,2-3.63L35,78.34a3,3,0,0,1,4,2.37A3.08,3.08,0,0,1,37,84Zm2-30A3,3,0,0,1,36,56.22,3.1,3.1,0,0,1,35,56l-8.79-3.2a3.08,3.08,0,0,1-2-3.31,3,3,0,0,1,4-2.37l8.76,3.19A3.09,3.09,0,0,1,38.94,54ZM78.82,90.7a5.25,5.25,0,0,1-5.36,5.11H56.72a5.36,5.36,0,0,1-4.9-3.1,1,1,0,0,1,.8-1.39,9.4,9.4,0,0,0,5.21-2.51A1.91,1.91,0,0,1,60,88.48a9.46,9.46,0,0,0,4.07.93A9.35,9.35,0,0,0,66.82,89h.12l.75-.31a9.44,9.44,0,0,0,2.84-1.86,2,2,0,0,1,2.24-.28,9.35,9.35,0,0,0,2.37.74,9.61,9.61,0,0,0,1.6.14h0a1.86,1.86,0,0,1,1.84,1.21,4.89,4.89,0,0,1,.23,1.49Zm16-14.88a5.53,5.53,0,0,1-4.37,5.49,5.39,5.39,0,0,1-4.88-1.53,1.92,1.92,0,0,1-.54-1.34V65.69a2.07,2.07,0,0,0-1.66-2.08,2,2,0,0,0-2.34,2V80.52a1.93,1.93,0,0,1-.58,1.38,5.4,5.4,0,0,1-4.66,1.43,5.22,5.22,0,0,1-3-1.73,1.9,1.9,0,0,1-.47-1.27V65.69a2.08,2.08,0,0,0-1.67-2.08,2,2,0,0,0-2.33,2v17A2,2,0,0,1,67.68,84a5.16,5.16,0,0,1-1.55,1h0a5.32,5.32,0,0,1-5.93-1.2,1.93,1.93,0,0,1-.54-1.38V65.69A2.08,2.08,0,0,0,58,63.61a2,2,0,0,0-2.33,2V83.73c0,.07,0,.42,0,.76a1.93,1.93,0,0,1-.56,1.4,5.41,5.41,0,0,1-4.83,1.41A5.53,5.53,0,0,1,46,81.83V57.74a5.55,5.55,0,0,1,4.56-5.55,5.37,5.37,0,0,1,4.72,1.6,3.21,3.21,0,0,0,2.29,1h.35a3.17,3.17,0,0,0,2.28-.93,5.37,5.37,0,0,1,7.8,0,3.16,3.16,0,0,0,2.28.93h.33a3.16,3.16,0,0,0,2.28-.93,5.37,5.37,0,0,1,7.8,0,3.17,3.17,0,0,0,2.28.93h.34a3.2,3.2,0,0,0,2.31-1,5.37,5.37,0,0,1,4.71-1.58,5.8,5.8,0,0,1,4.56,5.55ZM116,85.15a3,3,0,0,1-2.91,2.25,2.83,2.83,0,0,1-1-.19l-8.8-3.2a3.07,3.07,0,0,1-2.05-3.3,3,3,0,0,1,4-2.37L114,81.52A3.11,3.11,0,0,1,116,85.15Z"/></svg>