<svg id="Icon" xmlns="http://www.w3.org/2000/svg" viewBox="0 0 140.25 140.25"><defs><style>.cls-1{fill:#503291;}</style></defs><path class="cls-1" d="M139.26,59.16s-.28-1.22-.46-1.81a11.57,11.57,0,0,0-22.43.93c-.16.76-.22,6.07-.22,6.07V85.64A7.18,7.18,0,0,1,109,92.8h-6.85A1.18,1.18,0,0,1,101,91.36a8.83,8.83,0,0,0,.26-2.14,8.95,8.95,0,1,0-17.65,2.06,1.21,1.21,0,0,1-1.15,1.52H75.59a7.18,7.18,0,0,1-7.16-7.16V78.79a1.18,1.18,0,0,1,1.44-1.16A9,9,0,1,0,70,60.24a1.21,1.21,0,0,1-1.52-1.15V52.24a7.18,7.18,0,0,1,7.16-7.16h6.86a1.18,1.18,0,0,1,1.16,1.44A9,9,0,1,0,101,50.68a9.19,9.19,0,0,0,0-4.08,1.2,1.2,0,0,1,1.14-1.52h6s3.86,0,4.33,0a13.73,13.73,0,0,0,8.76-22.85c-.47-.52-2.89-2.79-3.59-3.44a69.75,69.75,0,1,0,22,43.39C139.55,61.14,139.42,60.14,139.26,59.16ZM65.66,78.79v6.85a4.18,4.18,0,0,1-4.18,4.18H54.63A4.16,4.16,0,0,0,50.57,95a5.64,5.64,0,0,1,.18,1.42A6,6,0,0,1,39,97.75,6.18,6.18,0,0,1,39,95a4.23,4.23,0,0,0-.79-3.62,4.12,4.12,0,0,0-3.25-1.57H28.08a4.18,4.18,0,0,1-4.17-4.18V52.24a4.17,4.17,0,0,1,4.17-4.17h6.85a4.17,4.17,0,0,0,3.3-1.61A4.09,4.09,0,0,0,39,42.93a6.22,6.22,0,0,1-.17-1.43,6,6,0,0,1,11.77-1.36,6,6,0,0,1,0,2.74,4.18,4.18,0,0,0,.79,3.61,4.12,4.12,0,0,0,3.25,1.58h6.85a4.18,4.18,0,0,1,4.18,4.17v6.85a4.13,4.13,0,0,0,1.57,3.26,4.26,4.26,0,0,0,3.62.79,6,6,0,0,1,2.74,0h0a6,6,0,0,1,3.22,9.62,6,6,0,0,1-6,2,4.16,4.16,0,0,0-5.14,4.06Z"/></svg>