<svg id="Icon" xmlns="http://www.w3.org/2000/svg" viewBox="0 0 140.25 140.25"><defs><style>.cls-1{fill:#503291;}</style></defs><path class="cls-1" d="M135.18,96a10.78,10.78,0,0,0,.6-1.62,70.11,70.11,0,1,0-25.69,33.18c1-.71,4.81-3.22,5.61-3.88a13.24,13.24,0,0,0-6.63-23.4c-.57-.08-2.25-.14-2.25-.14H25.74a3,3,0,0,1-3-3v-4a3,3,0,0,1,3-3h88.41c1.26,0,2.74.89,2.65,2.26a9.66,9.66,0,0,0,18.35,3.65h0A.14.14,0,0,1,135.18,96ZM60.79,48.27c-7.26,19.22-23.54,9.25-24-7.35C37.31,21,69.3,25.47,60.79,48.27Zm14.6,34.66a1.85,1.85,0,0,1-1.85,1.81h-47a2,2,0,0,1-2-2c0-1.4.06-2.65.15-3.71.75-8.46,6.61-14,14.1-16.71a4.19,4.19,0,0,1,3.47.35,15,15,0,0,0,7.45,2,14,14,0,0,0,7.16-1.94,4.55,4.55,0,0,1,3.84-.35c8.29,3,14.71,9.69,14.65,20.08Zm37.11,1.81H94.13a1,1,0,0,1-1-1.12A10.27,10.27,0,0,1,100.47,75a1,1,0,0,0,.76-1h0a1,1,0,0,0-1-1c-.45,0-.8-.12-.86-.56v-.69a1,1,0,0,1,1-1h5.79a1,1,0,0,1,1,1v.57c.08.53-.26.67-.86.68a1,1,0,0,0-.95,1h0a1,1,0,0,0,.76,1,10.26,10.26,0,0,1,7.34,8.63A1,1,0,0,1,112.5,84.74Z"/></svg>