<svg id="Icon" xmlns="http://www.w3.org/2000/svg" viewBox="0 0 140.25 140.25"><defs><style>.cls-1{fill:#503291;}</style></defs><path class="cls-1" d="M56,49.22a2.5,2.5,0,0,1-2.5-2.5V35.54a2.5,2.5,0,0,1,5,0V46.72A2.5,2.5,0,0,1,56,49.22Z"/><path class="cls-1" d="M56,99.73a2.5,2.5,0,0,1-2.5-2.5V70.32a2.5,2.5,0,0,1,5,0V97.23A2.5,2.5,0,0,1,56,99.73Z"/><path class="cls-1" d="M140.12,70.12A69.94,69.94,0,1,0,83,138.93c1-.19,5-1,6-1.37a12.62,12.62,0,0,0-2.73-24.28c-.59-.08-5.57,0-5.57,0H49a3,3,0,0,1-3-3V64a3,3,0,0,1,3-3H92.16a3,3,0,0,1,3,3V97.23l.06,3.06a18.61,18.61,0,0,0,.29,2.26,18.36,18.36,0,0,0,34.06,5.53c.64-1.14,2.92-6.15,3.55-7.45A69.59,69.59,0,0,0,140.12,70.12Zm-48-15.38H49a3,3,0,0,1-3-3V29.57a3,3,0,0,1,3-3H92.16a3,3,0,0,1,3,3V51.74A3,3,0,0,1,92.16,54.74Z"/></svg>