<svg id="Icon" xmlns="http://www.w3.org/2000/svg" viewBox="0 0 140 140"><defs><style>.cls-1{fill:#503291;}</style></defs><path class="cls-1" d="M69.89-.17A70,70,0,0,0,15,113.26c.29.37,1.58,2,1.94,2.44a12.08,12.08,0,0,0,21-5,56.27,56.27,0,0,0,.12-5.83V34.77a6,6,0,0,1,6-6h51a6,6,0,0,1,6,5.42c-.24.19,0,70.7,0,70.7a6,6,0,0,1-6,6H52.59l-1.2,0a10.55,10.55,0,0,0-1.13.12,12.94,12.94,0,0,0-3.37,24.63c.31.13,1.65.83,2,1A70,70,0,1,0,69.89-.17Z"/><path class="cls-1" d="M87.72,34.39a4.66,4.66,0,0,0-3.55,5.52,1.51,1.51,0,0,1-.38,1.39L73,52.31a1.53,1.53,0,0,1-1.29.44,3.44,3.44,0,0,0-.46,0,4.37,4.37,0,0,0-1.15.15,1.49,1.49,0,0,1-1.44-.35l-4.26-4A1.54,1.54,0,0,1,64,47.12a4.25,4.25,0,0,0-1.07-3.45,4.53,4.53,0,0,0-8.17,2.82,4.26,4.26,0,0,0,.08.8,1.47,1.47,0,0,1-.4,1.34l-3.76,3.76a1.58,1.58,0,0,1-1.39.4,4.23,4.23,0,0,0-3.14.67A4.73,4.73,0,0,0,43.86,57a4.66,4.66,0,0,0,5,5,4.73,4.73,0,0,0,3.52-2.25,4.16,4.16,0,0,0,.67-3.13,1.57,1.57,0,0,1,.41-1.4l3.75-3.75a1.5,1.5,0,0,1,1.34-.41,4.26,4.26,0,0,0,.8.08,4.43,4.43,0,0,0,.9-.09,1.53,1.53,0,0,1,1.39.36l4.52,4.28a1.56,1.56,0,0,1,.45,1.3c-.11,1.1.21,2.32,1.79,3.83A4.73,4.73,0,0,0,71.28,62a4.64,4.64,0,0,0,4.61-4.64,4.26,4.26,0,0,0-.14-1.08,1.54,1.54,0,0,1,.38-1.45L86.79,44a1.56,1.56,0,0,1,1.35-.43,4.33,4.33,0,0,0,3.77-1.46,4.36,4.36,0,0,0,1.44-3.19A4.65,4.65,0,0,0,87.72,34.39Z"/><path class="cls-1" d="M93.45,75.18H45.94a2.5,2.5,0,0,1,0-5H93.45a2.5,2.5,0,0,1,0,5Z"/><path class="cls-1" d="M93.45,88.18H45.94a2.5,2.5,0,0,1,0-5H93.45a2.5,2.5,0,0,1,0,5Z"/><path class="cls-1" d="M93.45,101.18H45.94a2.5,2.5,0,0,1,0-5H93.45a2.5,2.5,0,0,1,0,5Z"/></svg>