<svg id="Icon" xmlns="http://www.w3.org/2000/svg" viewBox="0 0 140.25 140.25"><defs><style>.cls-1{fill:#503291;}</style></defs><path class="cls-1" d="M70.12.12a70,70,0,0,0-45,123.59c.61.51,1.87,1.51,1.87,1.51a14.09,14.09,0,0,0,1.32,1,12.6,12.6,0,0,0,19-7.23,34.93,34.93,0,0,0,.27-5.33c.11-8.49.37-24,.37-24.91,0-4-9.5-5.77-9.5-13.75,0-11.06,1.16-35.73,1.16-35.73a3.34,3.34,0,0,1,3-3.41c1.55,0,2.81,1.53,2.81,3.41V69.36c0,1.88,1.27,3.42,2.79,3.42S51,71.24,51,69.36V39.25a3.06,3.06,0,1,1,6.08,0V69.36c0,1.88,1.26,3.42,2.79,3.42s2.79-1.54,2.79-3.42V39.25c0-1.88,1.26-3.41,2.81-3.41s2.88,1.53,3,3.41c0,0,1.16,24.67,1.16,35.73,0,8-9.5,9.75-9.5,13.75,0,.84.17,13.19.29,21.83,0,2.36-.23,11.78-.19,12.32A18.16,18.16,0,0,0,78.28,139.4c.37,0,4.39-.41,4.94-.52A70,70,0,0,0,70.12.12Zm20.61,84c0,1.55,1.2,21.77,1.4,27.28s-11.37,10.18-11.37,2,0-79.59,0-83.24c0-3.94.31-7.72,4.77-7.72,5.51,0,15.93,16.63,15.93,43.79C101.48,81.14,90.73,75.81,90.73,84.09Z"/></svg>