<svg id="Icon" xmlns="http://www.w3.org/2000/svg" viewBox="0 0 140.25 140.25"><defs><style>.cls-1{fill:#503291;}</style></defs><circle class="cls-1" cx="89.38" cy="50.66" r="5.7"/><path class="cls-1" d="M140.13,70.12A70,70,0,1,0,25.86,124.33c.4.33,2,1.79,2.45,2.15a12.63,12.63,0,0,0,17.8-17.79c-.46-.55-3.91-3.79-3.91-3.79L24.35,87.05a6,6,0,0,1,0-8.49L62.41,40.5a12,12,0,0,1,6.88-3.41l31.35-4.22a5,5,0,0,1,5.63,5.51l-3.6,32.41a12,12,0,0,1-3.44,7.15L64.59,112.59s-1.93,1.88-2.24,2.17a14.64,14.64,0,0,0-4.54,10.61c0,7.6,5.73,14.18,13.15,14.61,1.33.07,4.17-.07,4.6-.11A70,70,0,0,0,140.13,70.12Z"/></svg>