<svg id="Icon" xmlns="http://www.w3.org/2000/svg" viewBox="0 0 140.25 140.25"><defs><style>.cls-1{fill:#503291;}</style></defs><path class="cls-1" d="M140.12,70.12a70,70,0,1,0-23.54,52.34c.65-.58,4.34-4,4.73-4.47a11,11,0,0,0-15.15-15.92c-.81.68-3.48,3.73-3.48,3.73a3,3,0,0,1-4.24,0L94.61,102a3,3,0,0,1,0-4.24l11.45-11.44a3,3,0,0,1,4.24,0l3.55,3.46A26.66,26.66,0,0,0,118.18,94a13.58,13.58,0,0,0,20.1-7.56c.31-1,1-5.47,1.16-6.64A68.9,68.9,0,0,0,140.12,70.12ZM34.5,37.62,46,26.18a3,3,0,0,1,4.24,0L54,30a3,3,0,0,1,0,4.24L42.57,45.69a3,3,0,0,1-4.24,0L34.5,41.86A3,3,0,0,1,34.5,37.62Zm68.87,46L91.93,95a3,3,0,0,1-4.25,0l-3.82-3.82a3,3,0,0,1,0-4.24l2.08-2.08a2,2,0,0,0,0-2.83l-1.35-1.34a2,2,0,0,0-2.82,0l-3,3A15.58,15.58,0,0,1,60,86.22a2,2,0,0,0-2.42.3h0a1.64,1.64,0,0,0-.27,2,15.6,15.6,0,0,1-.07,16.13,2,2,0,0,1-3.11.34l-7.51-7.52-4.23,4.23a2.5,2.5,0,0,1-3.71-.19,2.61,2.61,0,0,1,.27-3.45L43,94l-7.52-7.52a2,2,0,0,1,.34-3.11A15.6,15.6,0,0,1,52,83.25,1.65,1.65,0,0,0,54,83a2,2,0,0,0,.3-2.43A15.58,15.58,0,0,1,56.75,61.8l3-3a2,2,0,0,0,0-2.82l-1.57-1.57a2,2,0,0,0-2.83,0l-2.08,2.08a3,3,0,0,1-4.24,0l-3.82-3.82a3,3,0,0,1,0-4.25L56.7,36.93a3,3,0,0,1,4.24,0l3.82,3.82a3,3,0,0,1,0,4.24l-3,3a2,2,0,0,0,0,2.83l1.57,1.57a2,2,0,0,0,2.83,0l3.68-3.68a15.8,15.8,0,0,1,20.84-1.55A15.57,15.57,0,0,1,92.1,70.39l-4,4a2,2,0,0,0,0,2.83l1.35,1.35a2,2,0,0,0,2.83,0l3-3a3,3,0,0,1,4.24,0l3.82,3.83A3,3,0,0,1,103.37,83.6Z"/></svg>