<svg id="Icon" xmlns="http://www.w3.org/2000/svg" viewBox="0 0 140.25 140.25"><defs><style>.cls-1{fill:#503291;}</style></defs><polygon class="cls-1" points="33.38 61.18 44.97 61.18 39.22 49.93 33.38 61.18"/><polygon class="cls-1" points="95.65 61.18 107.24 61.18 101.48 49.93 95.65 61.18"/><path class="cls-1" d="M128,109.47a69.95,69.95,0,1,0-38,27.77c.8-.24,1.6-.49,2.39-.76,0,0,1.52-.45,2.24-.76a12.61,12.61,0,0,0-3.47-24.06c-.53-.07-4.1-.1-4.78-.1H44.12a4.66,4.66,0,0,1-4.65-4.64v-4.8a4.64,4.64,0,0,1,4.21-4.6l19,0V46H44.55l7.67,15.19h.12s4.85-.38,5.35,2.58A23,23,0,0,1,58,67.68a18.92,18.92,0,0,1-37.83,0,14.51,14.51,0,0,1,.42-4c.75-2.6,4.94-2.55,5.49-2.53l10-19.59h0a3.33,3.33,0,0,1,3.13-2.22H62.73V28.78a4.65,4.65,0,0,1,4.64-4.65h4.8a4.66,4.66,0,0,1,4.64,4.65V39.36H101a3.33,3.33,0,0,1,3.16,2.31h0L114,61.18h.12s5.51-.53,6,2.43a19.34,19.34,0,0,1-.09,3.94c-.38,10.54-8.71,19-19.15,19A18.91,18.91,0,0,1,82,67.68a14.51,14.51,0,0,1,.42-4c.75-2.6,4.94-2.55,5.49-2.53L95.7,46H76.81V97.48H96.6a4.65,4.65,0,0,1,4.27,2.83c.24.55.45,4.69.55,5.31A13.92,13.92,0,0,0,125,113.39C125.4,113,127.64,110,128,109.47Z"/></svg>