<svg id="Icon" xmlns="http://www.w3.org/2000/svg" viewBox="0 0 140.25 140.25"><defs><style>.cls-1{fill:#503291;}</style></defs><path class="cls-1" d="M31.77,52A7,7,0,1,0,40,60.19,6.93,6.93,0,0,0,31.77,52Z"/><path class="cls-1" d="M48.09,107a7,7,0,1,0,8.18-8.2A6.92,6.92,0,0,0,48.09,107Z"/><path class="cls-1" d="M140.13,70.12C141.46-20.7-1.2-20.7.13,70.12c-.35,23.73,9.13,41.24,23.3,52.57.22.18,1,.9,1.69,1.49.34.3,1.49,1.19,1.84,1.41a12.14,12.14,0,0,0,6.53,1.89A12.31,12.31,0,0,0,45.38,112c-.07-.24-.14-.47-.22-.71,0,0-.16-.52-.27-.76l-.3-.65a10.91,10.91,0,0,1-.83-3.44l0-.61c0-.06,0-.13,0-.19v-.12a11.51,11.51,0,0,1,.06-1.18C44.32,97.14,52.39,93.37,56,88a29.28,29.28,0,0,0,4.56-10.94A3,3,0,0,0,59,73.84a29.7,29.7,0,0,0-11.47-4c-4-.43-8.61.28-12.83.28l-1.67,0A11.22,11.22,0,0,1,21.79,59.24a11.23,11.23,0,1,1,22.45-.36,11.62,11.62,0,0,1-.41,3,1.64,1.64,0,0,0,1.23,1.95c5.44,1.36,11.57.86,17.14,1.87a3,3,0,0,0,3.11-1.41C70.15,56,75.65,46.69,80.74,37.8c2.93-5.1,7.83-10.57,14.81-9.9.22,0,1.87,0,1.29.83-.06.08-.31.48-.37.58C89.62,41.42,83.15,53.66,76.26,65.76a2,2,0,0,0,1.31,2.94c13.62,2.93,27.34,5.57,41.06,8.23L119,77c.31.06.32.34.19.53,0,0-.15.17-.18.22-7.18,8.81-20.39,5.18-28.55,3.73-6.79-1.2-13-2.27-18.6-3.36a3,3,0,0,0-3.11,1.34C66.49,83,64.16,86.52,61.3,90.39c-.55.75-1.46,2-2.17,2.89-.92,1.2,0,1.77.24,1.89A11.29,11.29,0,0,1,61,115c-.29.19-1.63.81-2,1a11.59,11.59,0,0,0,3.15,21.92c.59.09,3.33.19,3.89.22C102.69,139.94,140.81,117.28,140.13,70.12Z"/></svg>