<svg id="Icon" xmlns="http://www.w3.org/2000/svg" viewBox="0 0 140 140"><defs><style>.cls-1{fill:#503291;}</style></defs><path class="cls-1" d="M80.21,33.78a24.48,24.48,0,1,0,24.48,24.48A24.51,24.51,0,0,0,80.21,33.78Z"/><path class="cls-1" d="M70.05,0A70,70,0,0,0,4,93.24c.14.38.7,1.8.82,2.12a15.3,15.3,0,0,0,25.62,5c.37-.4,2.29-2.41,2.29-2.41L47.59,83.09a2,2,0,0,1,2.93.12,39.24,39.24,0,0,0,6.26,6,2,2,0,0,1,.2,3L43.76,105.39s-3,2.71-3.65,3.29a16.14,16.14,0,0,0,5,26.69c.49.2,2.5.88,3,1A70,70,0,1,0,70.05,0Zm10.16,92.1A33.81,33.81,0,1,1,114,58.26,33.85,33.85,0,0,1,80.21,92.07Z"/></svg>