<svg id="Icon" xmlns="http://www.w3.org/2000/svg" viewBox="0 0 140.25 140.25"><defs><style>.cls-1{fill:#503291;}</style></defs><path class="cls-1" d="M79,72.79a8.67,8.67,0,1,0-13.27,7.32V93.67a4.61,4.61,0,1,0,9.21,0V80.11A8.62,8.62,0,0,0,79,72.79"/><path class="cls-1" d="M70.38-.29A70,70,0,0,0,4.55,93.57c8.06,17.57,28,8.05,28-.4V58.08a5.9,5.9,0,0,1,5.88-5.88h9.53V40.54A22.49,22.49,0,0,1,70.37,18.09c12.39,0,22.45,9.09,22.45,21.47a4.94,4.94,0,0,1-9.88,0C82.94,32.62,77.31,28,70.37,28A12.59,12.59,0,0,0,57.79,40.54V52.2h44.57a5.9,5.9,0,0,1,5.88,5.88v46.58a5.9,5.9,0,0,1-5.88,5.88H28.19c-8.33,0-9.21,6.66-4.26,11.53A70,70,0,1,0,70.38-.29"/></svg>