<svg id="Icon" xmlns="http://www.w3.org/2000/svg" viewBox="0 0 140.25 140.25"><defs><style>.cls-1{fill:#503291;}</style></defs><path class="cls-1" d="M79.83,79.56l-1.58,1.58a.5.5,0,0,0,.35.85h2.93c.5,0,.63-.17.73-.53v-.89A1.42,1.42,0,0,0,79.83,79.56Z"/><path class="cls-1" d="M80.56,64.69,64,81.25a1.75,1.75,0,0,1-1.79.74,6,6,0,0,1-3.37-1,1,1,0,0,1-.11-1.51L79.92,58.26a1,1,0,0,0-.14-1.53,5.9,5.9,0,0,0-3.52-1.16,1.41,1.41,0,0,0-1.14.41l-17.2,17.2a1,1,0,0,1-1.71-.7V68.23a1,1,0,0,1,.3-.7L66.76,57.27a1,1,0,0,0-.71-1.7H62A1.46,1.46,0,0,0,61,56l-4.17,4.17a1.42,1.42,0,0,1-1,.42H38.6A1.43,1.43,0,0,0,37.18,62V99.24a1.43,1.43,0,0,0,1.42,1.43H75.84a1.43,1.43,0,0,0,1.42-1.43V83a1,1,0,0,0-1-1H72.74A1,1,0,0,1,72,80.28l9.82-9.81a1.46,1.46,0,0,0,.41-1V65.4A1,1,0,0,0,80.56,64.69Z"/><path class="cls-1" d="M70.13.12a70,70,0,0,0-65.4,95c.32.84,1.65,4.35,2.12,5.2a13.59,13.59,0,0,0,25.1-3c.28-1.09.23-8.83.23-8.83V61.57a6,6,0,0,1,6-6H54.79a1.43,1.43,0,0,0,1.42-1.43V37.89a6,6,0,0,1,6-6H100.3a6,6,0,0,1,6,6V76a6,6,0,0,1-6,6H85a2.49,2.49,0,0,0-2.76,2.6V99.67a6,6,0,0,1-6,6H49.84a30.69,30.69,0,0,0-5.35.23A15.11,15.11,0,0,0,42,134.55c1,.41,6.14,2,7.7,2.52A70,70,0,1,0,70.13.12Z"/></svg>