<svg id="Icon" xmlns="http://www.w3.org/2000/svg" viewBox="0 0 140.25 140.25"><defs><style>.cls-1{fill:#503291;}</style></defs><circle class="cls-1" cx="38.69" cy="45.03" r="5"/><circle class="cls-1" cx="38.69" cy="70.7" r="5"/><circle class="cls-1" cx="38.69" cy="96.6" r="5"/><path class="cls-1" d="M85.75,2A61.44,61.44,0,0,0,70,.2a70.09,70.09,0,0,0-68.6,84c.2.94.94,4.18,1.11,4.87a45.81,45.81,0,0,0,1.81,5.59c1.74,3,2.91,5.68,7.22,7,3.56,1.06,9.64,0,14.27-4.13a6.16,6.16,0,0,0,2-3.24,9,9,0,0,1,8.59-7.14H79v2.31a28.15,28.15,0,0,0,5.63,16.89H36.33c-.25,0-3.39,0-4.51,0-8.58.45-10.84,6.1-10.84,6.1-1.8,4.29.23,8.58,4.74,12,.68.68,1.36,1.13,2,1.81H28l.22.22a70.92,70.92,0,0,0,26.18,12c37.47,8.59,75.16-14.9,83.73-52.4A69.82,69.82,0,0,0,85.75,2ZM27.53,44.54a9,9,0,0,1,8.8-9h67.48a9.06,9.06,0,0,1,9,9v1.35a9,9,0,0,1-9,8.81H36.33a9,9,0,0,1-8.8-8.81ZM79.08,80.42H36.33a9,9,0,0,1-8.8-8.81V70.25a9,9,0,0,1,8.8-9h67.48a9.05,9.05,0,0,1,9,9v1.36c0,.3,0,.6,0,.9A32.33,32.33,0,0,1,105.9,69l-.72-.49a8.07,8.07,0,0,0-9.16,0l-.6.41a30.57,30.57,0,0,1-10.18,4.56A8.06,8.06,0,0,0,79.08,80.42Zm36,9a21,21,0,0,1-12.26,19.11c-.46.21-1.22.5-1.72.69a1.44,1.44,0,0,1-1,0c-.52-.19-1-.39-1.53-.61a21,21,0,0,1-12.46-19.2V81.33a1,1,0,0,1,.74-.93,37.37,37.37,0,0,0,12.5-5.57c.24-.15.47-.31.69-.47a1,1,0,0,1,1.08,0l.82.55a37.42,37.42,0,0,0,12.36,5.49.94.94,0,0,1,.74.93Z"/><path class="cls-1" d="M98,99a2.6,2.6,0,0,1-1.61-.74l-3.84-3.84a2.26,2.26,0,0,1,0-3.44,2.3,2.3,0,0,1,1.61-.63,2.27,2.27,0,0,1,1.61.63L98,93.2l9-8.78a2.39,2.39,0,0,1,3.22,0l.06.07.06.08a2.7,2.7,0,0,1,0,3.14l-.06.08L99.76,98.36l-.15.07-.27.15A2.41,2.41,0,0,1,98,99Z"/></svg>