<svg id="Icon" xmlns="http://www.w3.org/2000/svg" viewBox="0 0 140.25 140.25"><defs><style>.cls-1,.cls-2{fill:#503291;}.cls-2{fill-rule:evenodd;}</style></defs><circle class="cls-1" cx="38.69" cy="45.03" r="5"/><circle class="cls-1" cx="38.69" cy="70.7" r="5"/><circle class="cls-1" cx="38.69" cy="96.6" r="5"/><path class="cls-2" d="M85.75,2A61.44,61.44,0,0,0,70,.2a70.09,70.09,0,0,0-68.6,84c.2.94.94,4.18,1.11,4.87a45.81,45.81,0,0,0,1.81,5.59c1.74,3,2.91,5.68,7.22,7,3.56,1.06,9.64,0,14.27-4.13a6.16,6.16,0,0,0,2-3.24,9,9,0,0,1,8.59-7.14h67.48a9.05,9.05,0,0,1,9,9V97.5a9,9,0,0,1-9,8.81H36.33c-.25,0-3.39,0-4.51,0-8.58.45-10.84,6.1-10.84,6.1-1.8,4.29.23,8.58,4.74,12,.68.68,1.36,1.13,2,1.81H28l.22.22a70.92,70.92,0,0,0,26.18,12c37.47,8.59,75.16-14.9,83.73-52.4A69.82,69.82,0,0,0,85.75,2Zm27.09,69.6a9,9,0,0,1-9,8.81H36.33a9,9,0,0,1-8.8-8.81V70.25a9,9,0,0,1,8.8-9h67.48a9.05,9.05,0,0,1,9,9Zm0-25.72a9,9,0,0,1-9,8.81H36.33a9,9,0,0,1-8.8-8.81V44.54a9,9,0,0,1,8.8-9h67.48a9.06,9.06,0,0,1,9,9Z"/></svg>