<svg id="Icon" xmlns="http://www.w3.org/2000/svg" viewBox="0 0 140.25 140.25"><defs><style>.cls-1{fill:#503291;fill-rule:evenodd;}</style></defs><path class="cls-1" d="M140.13,70.12a70,70,0,1,0-70,70,87.22,87.22,0,0,0,10.71-.82l.22,0v-.05a11.85,11.85,0,0,0-.43-22.6,19.09,19.09,0,0,1-8.25-5.34c-3.75-4.53-4.45-8.46-3.9-12a4.69,4.69,0,0,0-2.08-4.66l-16-10.49A4.81,4.81,0,0,0,45.3,84a15.79,15.79,0,0,1-8.18,2.29,16,16,0,0,1-12.56-6.05s0,0-.07-.07a15.94,15.94,0,0,1,5-23.67h0a16.06,16.06,0,0,1,7.66-1.93,15.7,15.7,0,0,1,8.08,2.23,4.76,4.76,0,0,0,5-.24L66.45,45.64a4.76,4.76,0,0,0,2-4.71c-.56-3.42,0-7.19,3.16-11.43A15.76,15.76,0,0,1,81.7,23a15.87,15.87,0,1,1-5.43,29.3,4.77,4.77,0,0,0-5,.22L54.15,64a3.22,3.22,0,0,0-1.35,3.36,14.43,14.43,0,0,1,.34,3,13.94,13.94,0,0,1-.3,2.83,3.22,3.22,0,0,0,1.38,3.37L71.06,87.65a4.77,4.77,0,0,0,5,.17,15.81,15.81,0,0,1,10.8-2.1,16,16,0,0,1,13.21,13,15.75,15.75,0,0,1-2.84,12h0a11,11,0,0,0,16.41,14.52c.49-.44,2.14-2.11,2.54-2.45A69.84,69.84,0,0,0,140.13,70.12Z"/></svg>