<svg id="Icon" xmlns="http://www.w3.org/2000/svg" viewBox="0 0 140.25 140.25"><defs><style>.cls-1{fill:#503291;}</style></defs><path class="cls-1" d="M78.29,81.11l-.06,0-.4-.07-.3-.05a4,4,0,0,0-.7,0A3.49,3.49,0,0,0,74,83.41a4,4,0,0,0-.15.78l-1.25,17.94a3.49,3.49,0,0,0,3.24,3.72h0a3.54,3.54,0,0,0,3.67-3.23l1.25-17.94A3.47,3.47,0,0,0,78.29,81.11Z"/><path class="cls-1" d="M51.92,84.05a3.48,3.48,0,0,0-3.87-3h0a3.47,3.47,0,0,0-2.32,1.32A3.42,3.42,0,0,0,45,84.9l2.19,17.85a3.47,3.47,0,0,0,3.45,3.06,3.4,3.4,0,0,0,.45,0l.23,0a3.45,3.45,0,0,0,2.78-3.83Z"/><path class="cls-1" d="M65.81,83.41A3.48,3.48,0,0,0,63,81a4.13,4.13,0,0,0-.71,0L62,81l-.4.07-.06,0A3.49,3.49,0,0,0,59,84.68l1.26,17.94a3.54,3.54,0,0,0,3.66,3.23h0a3.5,3.5,0,0,0,3.24-3.72L66,84.19A3.37,3.37,0,0,0,65.81,83.41Z"/><path class="cls-1" d="M91.75,81h0a3.48,3.48,0,0,0-3.87,3L85.68,101.9a3.42,3.42,0,0,0,.35,2,3.49,3.49,0,0,0,2.42,1.82l.24,0a3.25,3.25,0,0,0,.44,0,3.48,3.48,0,0,0,3.46-3.06L94.78,84.9a3.42,3.42,0,0,0-.71-2.56A3.47,3.47,0,0,0,91.75,81Z"/><path class="cls-1" d="M70.12.12a70,70,0,0,0-50.92,118c.52.55,2.45,2.61,2.95,3A11.4,11.4,0,0,0,41,112.52a49.77,49.77,0,0,0-1.11-6L33.73,76.37h-.46a3,3,0,0,1-3-3V69.1a3,3,0,0,1,2.5-2.95H107a3,3,0,0,1,2.5,2.95v4.27a3,3,0,0,1-3,3h-.46l-6.83,33.31a3.53,3.53,0,0,1-3.46,2.89h-36s-3,0-3.54,0a13.17,13.17,0,0,0-.86,26c.41.08,1.9.3,2.23.36A70,70,0,1,0,70.12.12Zm8.79,31.81,3.41-2.09a3,3,0,0,1,4.12,1L104,59.63a1,1,0,0,1-.85,1.52H94.36a2,2,0,0,1-1.7-.95L77.91,36.05A3,3,0,0,1,78.91,31.93ZM58.26,29.84l3.41,2.09a3,3,0,0,1,1,4.12L47.92,60.2a2,2,0,0,1-1.71.95H37.4a1,1,0,0,1-.85-1.52L54.13,30.84A3,3,0,0,1,58.26,29.84Z"/></svg>