<svg id="Icon" xmlns="http://www.w3.org/2000/svg" viewBox="0 0 140.25 140.25"><defs><style>.cls-1{fill:#503291;}</style></defs><path class="cls-1" d="M70.12.12A70,70,0,0,0,3.37,91.21c.24.75.49,1.5.75,2.23,0,0,.5.89.77,1.32a10.65,10.65,0,0,0,19.49-3.65c.1-.54.22-2.88.22-3.61,0-4.24,0-11.13,0-11.13V56.06c0-.16,0-.33,0-.49A26.41,26.41,0,0,1,65.74,35a1.26,1.26,0,0,0,1.59-.15l6.39-6.47a15.72,15.72,0,0,1,20.53-1.67,2.05,2.05,0,0,1,.25,3.2L55.75,69.16a2,2,0,0,1-3.2-.22A15.7,15.7,0,0,1,54,48.4l5.62-5.69a1.27,1.27,0,0,0-.32-2A18.23,18.23,0,0,0,32.8,56l.07,39.32v3.32c.08,3.28-3,1.92-6,2.16a9.59,9.59,0,0,0-1.86.38,10.95,10.95,0,0,0-6.66,15.42,26.87,26.87,0,0,0,1.88,2.66,10.34,10.34,0,0,0,1,.9A70,70,0,1,0,70.12.12Zm33,53a4.55,4.55,0,1,1-6.43,0A4.56,4.56,0,0,1,103.08,53.14ZM89,42a4.55,4.55,0,1,1,0,6.43A4.56,4.56,0,0,1,89,42ZM78.33,54.31a4.55,4.55,0,1,1,0,6.43A4.54,4.54,0,0,1,78.33,54.31ZM65.75,64.92a4.55,4.55,0,1,1,0,6.43A4.56,4.56,0,0,1,65.75,64.92Zm4.06,19.59a4.54,4.54,0,1,1,6.43,0A4.53,4.53,0,0,1,69.81,84.51Zm4.06,6.74a4.55,4.55,0,1,1,0,6.43A4.55,4.55,0,0,1,73.87,91.25Zm10.49,19.6a4.55,4.55,0,1,1,0-6.44A4.56,4.56,0,0,1,84.36,110.85Zm.51-36.7a4.55,4.55,0,1,1,6.43,0A4.55,4.55,0,0,1,84.87,74.15Zm6.53,13.4a4.55,4.55,0,1,1,6.43,0A4.56,4.56,0,0,1,91.4,87.55Zm13,13.41a4.55,4.55,0,1,1,0-6.43A4.55,4.55,0,0,1,104.37,101Zm-.07-30.24a4.55,4.55,0,1,1,6.43,0A4.56,4.56,0,0,1,104.3,70.72Zm14.08,11.15a4.55,4.55,0,1,1,0-6.43A4.56,4.56,0,0,1,118.38,81.87Z"/></svg>