<svg id="Icon" xmlns="http://www.w3.org/2000/svg" viewBox="0 0 140.25 140.25"><defs><style>.cls-1{fill:#503291;}</style></defs><path class="cls-1" d="M70.12.12a70,70,0,0,0-59.6,106.72c.55.89,1.83,2.57,1.83,2.57a12.6,12.6,0,0,0,1.45,2,12.09,12.09,0,0,0,20.91-5.55,12.31,12.31,0,0,0,.24-2.44,12.48,12.48,0,0,0-.37-3c-2.44-14.34-8.64-50.7-8.64-50.7-.34-1.64,0-4.83,4.19-5.17l14.78-1.53c2-.33,2.89.7,3,2C48,48.64,48,54.51,56.11,55c4.43.24.17,5.1,3.6,8.44,2.39,2.31,6,1.95,8.11,1.64,0,0,2.46.25,2.46,2.15s1.87,31.53,2.17,34.57c.63,6.4-4.78,7.47-4.78,7.47l-18.24,2.2s-3.35.52-4,.72a12.07,12.07,0,0,0-3,21.88c.66.41,3,1.58,3.48,1.76A70,70,0,1,0,70.12.12Zm45.41,61.55a24.75,24.75,0,0,0-6.59,8.69c-1.37,4.08-5.91,5.66-7.75,1.57a31.89,31.89,0,0,1-2.8-9.73c-5.28,2.15-12.81.76-19.16-4.05s-9.7-11.68-9.06-17.36A31.43,31.43,0,0,1,60,40.72c-4.43-.66-4.14-5.46-.57-7.87a25,25,0,0,0,6.59-8.7c1.37-4.08,5.91-5.66,7.74-1.57a31.33,31.33,0,0,1,2.8,9.73c5.29-2.14,12.81-.76,19.16,4.06s9.71,11.67,9.06,17.35a31.49,31.49,0,0,1,10.14.07C119.39,54.45,119.09,59.25,115.53,61.67Z"/></svg>