<svg id="Icon" xmlns="http://www.w3.org/2000/svg" viewBox="0 0 140.25 140.25"><defs><style>.cls-1{fill:#503291;}</style></defs><path class="cls-1" d="M140.13,70.13a70,70,0,1,0-34.56,60.35c.36-.22,1.89-1,2.28-1.28a12.95,12.95,0,0,0-5.15-24,24.83,24.83,0,0,0-2.86,0H92c-2.31,0-4.43-1.35-4.72-3l-1.53-9c-.27-1.65,1.15-3,3.16-3h11A5.45,5.45,0,0,1,103.75,92a7.58,7.58,0,0,1,.8,1.58,16.51,16.51,0,0,0,31.54.15c.1-.31.51-1.65.62-2A69.62,69.62,0,0,0,140.13,70.13ZM64.41,43.63l5.18-5.18A2.5,2.5,0,0,1,73.13,42L68,47.16a2.5,2.5,0,0,1-3.54-3.53ZM74,70.2a3.41,3.41,0,0,1,3.3,3l.92,9a2.9,2.9,0,0,1-3.17,3H64.62a3,3,0,0,1-3.3-3l.54-9a3.24,3.24,0,0,1,3.18-3ZM49.84,33.79a2.5,2.5,0,1,1,5,0v7.32a2.5,2.5,0,0,1-5,0Zm2.22,15.39A12.49,12.49,0,0,1,64.55,61.45c0,.12,0,.23,0,.23a.35.35,0,0,1-.1.21.47.47,0,0,1-.25,0H39.86c-.22,0-.35,0-.3-.25A12.5,12.5,0,0,1,52.06,49.18ZM30.71,38.45a2.5,2.5,0,0,1,3.54,0l5.18,5.18a2.5,2.5,0,1,1-3.54,3.53L30.71,42A2.5,2.5,0,0,1,30.71,38.45ZM24.43,62.16a2.5,2.5,0,0,1,0-5h7.32a2.5,2.5,0,0,1,0,5Zm28.79,40c-.21,1.65-2.27,3-4.57,3H36.07c-2.3,0-3.77-1.35-3.26-3l2.73-9a4.87,4.87,0,0,1,4.55-3h11c2,0,3.49,1.35,3.29,3Zm3.48-29-1,9a3.78,3.78,0,0,1-3.84,3H41.37c-1.92,0-3.11-1.35-2.64-3l2.5-9a4.22,4.22,0,0,1,3.81-3h9A2.63,2.63,0,0,1,56.7,73.2Zm19.88,32H64c-2.3,0-4.1-1.35-4-3l.6-9c.11-1.65,1.84-3,3.85-3h11c2,0,3.8,1.35,4,3l1,9C80.62,103.85,78.89,105.2,76.58,105.2Zm2.83-43H72.09a2.5,2.5,0,0,1,0-5h7.32a2.5,2.5,0,0,1,0,5Zm18.93,23H87.88a4,4,0,0,1-4-3l-1.42-9a2.53,2.53,0,0,1,2.55-3h9a4.45,4.45,0,0,1,3.93,3l2.88,9C101.38,83.85,100.26,85.2,98.34,85.2Z"/></svg>