<svg id="Icon" xmlns="http://www.w3.org/2000/svg" viewBox="0 0 140.25 140.25"><defs><style>.cls-1{fill:#503291;}</style></defs><path class="cls-1" d="M69.8.32A70,70,0,0,0,31.49,128.91c.56.37,1.71,1.09,1.71,1.09,5.39,3.84,10.4,1.41,10.4-3.32,0-.47,3.68-32.25,3.69-32.46,0-2,0-3.86.05-5.8a9.38,9.38,0,0,0-3.3-6.8l-.21-.2C38.3,75.86,31.92,68.13,31.77,57.51c-.19-15.38,8-28,18.31-28.18h.19c10.19,0,18.65,12.39,18.85,27.61.13,10.69-6.16,18.71-11.65,24.5a9.67,9.67,0,0,0-3.1,6.3V88c.06,2.12.14,4.21.22,6.28L59,131.89c.72,6.08,3.27,8.31,9.61,8.42H69.8a70,70,0,1,0,0-140ZM93.86,76c.06,1.88.13,3.72.2,5.55L97.5,108s.17,2.59.17,4.18a6.71,6.71,0,1,1-13.41,0c0-1.6.09-4.23.09-4.23s3.26-26.21,3.27-26.44c0-1.73,0-3.4,0-5.12a8.27,8.27,0,0,0-2.92-6l-.18-.18c-4.88-4.9-10.51-11.72-10.64-21.09C73.76,35.53,81,24.38,90.08,24.25h.17c9,0,16.45,10.92,16.62,24.35C107,58,101.44,65.1,96.6,70.2a8.6,8.6,0,0,0-2.74,5.56V76Z"/></svg>