<svg id="Icon" xmlns="http://www.w3.org/2000/svg" viewBox="0 0 140.25 140.25"><defs><style>.cls-1{fill:#503291;}</style></defs><path class="cls-1" d="M70.13.13A70,70,0,0,0,1,59c-.1.67-.71,4.41-.71,4.92A10.19,10.19,0,0,0,20.7,64a6.31,6.31,0,0,1,1.11-2.39l1.66-2.32a1.66,1.66,0,0,0-.11-2.07c-1.18-1.39-2.1-3.6,1.53-3.4,2.26.55,10,.78,13.67-1a75.16,75.16,0,0,1,9.07-4.28,40.55,40.55,0,0,1,17-1.93c6.73.71,12.45,4.4,21.86,11.15h0s3.93.17,14.82,2.16c9.82,1.8,15.62,5.64,17.91,7.45,2.08,1.2.7,8.21,1,10.08-.18,3.1-4.25,4-6.72,4.47A1.23,1.23,0,0,1,112,80.49a12.64,12.64,0,0,0,.24-2.48A13.14,13.14,0,0,0,99,64.89,13.28,13.28,0,0,0,86.15,76.32a12.9,12.9,0,0,0,.25,4.74A1.52,1.52,0,0,1,85,82.94h-.18l-29.77-.17a1.86,1.86,0,0,1-1.79-2.28,13.35,13.35,0,0,0,.3-2.77,13.13,13.13,0,1,0-26.24.54,1.37,1.37,0,0,1-1.84,1.35s-1.13-.4-1.32-.48A14.18,14.18,0,0,0,5.51,97.19c.26.7,1.45,3.12,1.71,3.66A70,70,0,1,0,70.13.13ZM40.47,86.84a9.13,9.13,0,1,1,9.13-9.13A9.13,9.13,0,0,1,40.47,86.84Zm58.69.3A9.13,9.13,0,1,1,108.28,78,9.12,9.12,0,0,1,99.16,87.14Z"/></svg>