<svg id="Icon" xmlns="http://www.w3.org/2000/svg" viewBox="0 0 140.25 140.25"><defs><style>.cls-1{fill:#503291;}</style></defs><path class="cls-1" d="M70.13.12A70,70,0,0,0,6,98.21c.28.64,1.29,3.11,1.57,3.68a12,12,0,0,0,22.8-5.31,11.84,11.84,0,0,0-.75-4.19c-.18-.48-.48-1.45-.48-1.45-.26-.5-.5-1-.74-1.5a45.44,45.44,0,0,1-4.25-17.56A46,46,0,0,1,53.09,27.4a3,3,0,0,1,4.1,2.79v4.36a3,3,0,0,1-1.75,2.72,36,36,0,1,0,33.15,2,3,3,0,0,1-1.4-2.54V32.1a3,3,0,0,1,4.37-2.67,46,46,0,0,1-23.23,86.66,45.51,45.51,0,0,1-22.17-6.76l0,0A12.07,12.07,0,1,0,33.42,129.8c.38.2,2.57,1.44,3.31,1.84A70,70,0,1,0,70.13.12Zm7.06,55.41a3,3,0,0,1-3,3h-4a3,3,0,0,1-3-3V22a3,3,0,0,1,3-3h4a3,3,0,0,1,3,3Z"/></svg>