<svg id="Icon" xmlns="http://www.w3.org/2000/svg" viewBox="0 0 140.25 140.25"><defs><style>.cls-1{fill:#503291;}</style></defs><path class="cls-1" d="M50.18,95.12a31.85,31.85,0,0,0,16.29,6.79,1,1,0,0,0,1.1-1V83.14a1,1,0,0,0-.75-1A12.11,12.11,0,0,1,63.88,81a1,1,0,0,0-1.22.14L50.11,93.64A1,1,0,0,0,50.18,95.12Z"/><path class="cls-1" d="M90,45.09a31.88,31.88,0,0,0-16.35-6.76,1,1,0,0,0-1.11,1V57.07a1,1,0,0,0,.78,1,12.3,12.3,0,0,1,3,1.22,1,1,0,0,0,1.23-.14L90.1,46.58A1,1,0,0,0,90,45.09Z"/><path class="cls-1" d="M63.86,59.31a12.8,12.8,0,0,1,3-1.24,1,1,0,0,0,.76-1V39.34a1,1,0,0,0-1.1-1,31.77,31.77,0,0,0-16.3,6.8,1,1,0,0,0-.07,1.48L62.64,59.17A1,1,0,0,0,63.86,59.31Z"/><path class="cls-1" d="M59.12,62.72,46.57,50.17a1,1,0,0,0-1.49.07,31.82,31.82,0,0,0-6.74,16.3,1,1,0,0,0,1,1.1H57.09a1,1,0,0,0,1-.77,12.59,12.59,0,0,1,1.22-2.93A1,1,0,0,0,59.12,62.72Z"/><path class="cls-1" d="M57.1,72.64H39.33a1,1,0,0,0-1,1.1A31.92,31.92,0,0,0,45.09,90a1,1,0,0,0,1.49.07L59.13,77.54a1,1,0,0,0,.15-1.21,12.18,12.18,0,0,1-1.22-2.93A1,1,0,0,0,57.1,72.64Z"/><path class="cls-1" d="M81,63.89a11.87,11.87,0,0,1,1.24,3,1,1,0,0,0,1,.77h17.76a1,1,0,0,0,1-1.1,31.76,31.76,0,0,0-6.79-16.36,1,1,0,0,0-1.48-.07L81.1,62.65A1,1,0,0,0,81,63.89Z"/><path class="cls-1" d="M72.57,83.18v17.74a1,1,0,0,0,1.11,1A31.85,31.85,0,0,0,90,95.17a1,1,0,0,0,.07-1.49L77.53,81.13A1,1,0,0,0,76.3,81a12.54,12.54,0,0,1-3,1.21A1,1,0,0,0,72.57,83.18Z"/><path class="cls-1" d="M81.09,77.61,93.63,90.15a1,1,0,0,0,1.48-.07,31.79,31.79,0,0,0,6.8-16.34,1,1,0,0,0-1-1.1H83.16a1,1,0,0,0-1,.76,12.66,12.66,0,0,1-1.24,3A1,1,0,0,0,81.09,77.61Z"/><path class="cls-1" d="M140.12,70.12A70,70,0,1,0,99.7,133.58c.39-.18,1.84-1,2.17-1.17A15.91,15.91,0,0,0,105.66,109c-.77-.95-6.53-6.41-8.48-8.25a1,1,0,0,0-1.32,0A39.82,39.82,0,0,1,73.5,110a1,1,0,0,0-.93,1v6.59a2.59,2.59,0,0,1-2.24,2.62,2.5,2.5,0,0,1-2.76-2.48V111a1,1,0,0,0-.91-1,39.83,39.83,0,0,1-22.3-9.28,1,1,0,0,0-1.35,0l-4.79,4.79a2.5,2.5,0,0,1-3.67-.15,2.6,2.6,0,0,1,.25-3.5l4.68-4.68a1,1,0,0,0,.05-1.35,39.79,39.79,0,0,1-9.25-22.29,1,1,0,0,0-1-.92H22.67A2.6,2.6,0,0,1,20,70.4a2.5,2.5,0,0,1,2.48-2.76h6.77a1,1,0,0,0,1-.92,39.77,39.77,0,0,1,9.24-22.31,1,1,0,0,0-.05-1.34l-4.68-4.68a2.6,2.6,0,0,1-.28-3.45,2.49,2.49,0,0,1,3.71-.19L43,39.53a1,1,0,0,0,1.35,0,39.84,39.84,0,0,1,22.31-9.29,1,1,0,0,0,.91-1V22.73a2.6,2.6,0,0,1,2.25-2.63,2.5,2.5,0,0,1,2.75,2.49v6.7a1,1,0,0,0,.93,1,39.82,39.82,0,0,1,22.35,9.26,1,1,0,0,0,1.35-.05l4.63-4.63a2.6,2.6,0,0,1,3.44-.28,2.5,2.5,0,0,1,.2,3.71L100.74,43a1,1,0,0,0,0,1.35A39.84,39.84,0,0,1,110,66.72a1,1,0,0,0,1,.92h6.52a2.6,2.6,0,0,1,2.63,2.24,2.5,2.5,0,0,1-2.49,2.76H111a1,1,0,0,0-1,.92,39.77,39.77,0,0,1-9.32,22.37,1,1,0,0,0,0,1.32c1.89,2,7.65,8.2,8.94,9.14a15.76,15.76,0,0,0,9.37,3.06,15.92,15.92,0,0,0,14.31-8.93c.31-.64,1.5-3.58,1.82-4.38A69.64,69.64,0,0,0,140.12,70.12Z"/></svg>