<svg id="Icon" xmlns="http://www.w3.org/2000/svg" viewBox="0 0 140.25 140.25"><defs><style>.cls-1{fill:#503291;}</style></defs><path class="cls-1" d="M78,70.06H62.75a3.59,3.59,0,0,0,0,7.17H78a3.59,3.59,0,0,0,3.58-3.58h0A3.59,3.59,0,0,0,78,70.06Z"/><path class="cls-1" d="M140.12,70.12A70.07,70.07,0,1,0,94.81,135.6c.76-.28,3.55-1.28,4.16-1.55a12.19,12.19,0,0,0-3-23.19c-.64-.11-2-.26-2-.26H42.11A3.07,3.07,0,0,1,39,107.54V62.33a3.07,3.07,0,0,1,3.07-3.06H98.65a3.06,3.06,0,0,1,3.06,3.06V93.2s-.06,6.55,0,7.21a15.42,15.42,0,0,0,28.19,6.44c.62-.95,2.73-5.26,3.28-6.39A69.72,69.72,0,0,0,140.12,70.12ZM42.68,37.29a2,2,0,0,1-1.41-2.39L43,28.34a2,2,0,0,1,2.39-1.41l61.21,15.82A2,2,0,0,1,108,45.14l-1.69,6.56a2,2,0,0,1-2.4,1.41Z"/></svg>