<svg id="Icon" xmlns="http://www.w3.org/2000/svg" viewBox="0 0 140.25 140.25"><defs><style>.cls-1{fill:#503291;}</style></defs><path class="cls-1" d="M70.13.12a70,70,0,0,0-16.66,138c.7.17,3.48.77,4.19.91a12.71,12.71,0,0,0,2.64.28,13,13,0,0,0,1.63-26c-.53-.06-4.57-.16-4.57-.16H45.56a2,2,0,0,1-2-2v-6.55a8.37,8.37,0,0,1,4.66-7.51,2.07,2.07,0,0,0,1.12-1.62c1-8.11,14.59-19.63,21.41-26.16a2,2,0,0,0-1.39-3.45C63.51,66,56.7,67.11,52.67,71A5.5,5.5,0,0,1,46.6,72a13.44,13.44,0,0,1-5.73-5.28A6.44,6.44,0,0,1,42,58.94L57.08,44.17a2,2,0,0,0,.35-.47c.72-1.3,4.08-7.19,8-10,.81-1.18-1-10.66,2.76-8.1A14.35,14.35,0,0,1,72,30.22c.28.64,1,2.9,1.65,3,6.07.81,12.68,3.91,17.68,12,10.28,16.75,5.06,35.5-.64,50.17a2,2,0,0,0,.68,2.34,8.35,8.35,0,0,1,3.59,6.87v6.55a2,2,0,0,1-1.48,1.92,21,21,0,0,0-4.66.11,11.6,11.6,0,0,0,2.34,23,10.86,10.86,0,0,0,1.28-.07,26.21,26.21,0,0,0,3.12-.75A70,70,0,0,0,70.13.12Z"/></svg>