<svg id="Icon" xmlns="http://www.w3.org/2000/svg" viewBox="0 0 140.25 140.25"><defs><style>.cls-1{fill:#503291;}</style></defs><path class="cls-1" d="M70.12.11a70,70,0,1,0,47.26,121.62c10.43-10.21-4.56-20-11.51-20H94.62a7.11,7.11,0,0,0-4.65,2.1L80,115.16c-1,1.16-1.85.85-1.85-.69v-9.94a2.81,2.81,0,0,0-2.8-2.8H61.84a2.81,2.81,0,0,1-2.8-2.8V76.29a2.8,2.8,0,0,1,2.8-2.79h45.44A2.72,2.72,0,0,1,110,76.3v9.5c0,15.5,24.17,17,29-3.27A70.05,70.05,0,0,0,70.12.11m12.5,36.11V61.44a2.8,2.8,0,0,1-2.8,2.8H59.13a7.85,7.85,0,0,0-4.78,2l-11,11c-1.09,1.09-2,.72-2-.82V66.67a2.81,2.81,0,0,0-2.8-2.8H31.35a2.81,2.81,0,0,1-2.8-2.8V36.22a2.81,2.81,0,0,1,2.8-2.8H79.82a2.81,2.81,0,0,1,2.8,2.8"/></svg>