<svg id="Icon" xmlns="http://www.w3.org/2000/svg" viewBox="0 0 140.25 140.25"><defs><style>.cls-1{fill:#503291;}</style></defs><path class="cls-1" d="M70.12.12A70,70,0,0,0,5,95.79c.32.82,1.56,3.72,1.87,4.34A10.19,10.19,0,0,0,25.52,92c-.11-.29-.66-1.72-.84-2.14A49.56,49.56,0,0,1,95.27,27.33a5.22,5.22,0,0,0-.43.39L87,35.65A8,8,0,0,0,85.86,37,36.63,36.63,0,1,0,103.22,54.5a7.56,7.56,0,0,0,1.45-1.15l8-8c.1-.1.19-.23.29-.34a49.56,49.56,0,0,1-71.38,65.5,34.41,34.41,0,0,0-4.47-2.69,13.3,13.3,0,0,0-3.92-1,10.31,10.31,0,0,0-6.41,18.38c.48.38,4.3,3,4.76,3.28A70,70,0,1,0,70.12.12Zm.35,94.69A24.78,24.78,0,1,1,81.58,47.89L66.17,63.1A7.67,7.67,0,0,0,66.11,74,7.68,7.68,0,0,0,77,74L92.49,58.68a24.77,24.77,0,0,1-22,36.13Zm38.6-53-7.95,8a2.88,2.88,0,0,1-2.07.86l-5.61,0-20,19.75a2.64,2.64,0,0,1-1.88.77,2.67,2.67,0,0,1-1.87-4.57L89.55,47l.09-5.82a2.89,2.89,0,0,1,.86-2l7.89-7.94a1.7,1.7,0,0,1,1.23-.51,1.68,1.68,0,0,1,.63.12,1.76,1.76,0,0,1,1.11,1.56l.18,4.8a1.34,1.34,0,0,0,1.23,1.29l5.19.37a1.74,1.74,0,0,1,1.11,3Z"/></svg>