<svg id="Icon" xmlns="http://www.w3.org/2000/svg" viewBox="0 0 140.25 140.25"><defs><style>.cls-1{fill:#503291;}</style></defs><path class="cls-1" d="M70.12.12A70,70,0,1,0,84,138.74c.28-.06.83-.21.83-.21.25-.05.49-.12.73-.19a13,13,0,0,0,9.27-12.41h0a13,13,0,0,0-6.39-11.14,5.31,5.31,0,0,1-1.25-3.41V93.76a5.24,5.24,0,0,1,1.49-3.67l11-8.33a5.29,5.29,0,0,0,1.48-3.67V62.4a5.16,5.16,0,0,0-2.13-4.12,12,12,0,0,1-4.84-9.83,12,12,0,0,1,24,.23,11.91,11.91,0,0,1-4.81,9.57,5.25,5.25,0,0,0-2.17,4.16V82.12a5.32,5.32,0,0,1-1.48,3.68l-11,8.32a5.28,5.28,0,0,0-1.49,3.68v13.79c0,.21,0,1.38,0,1.76h0A11.88,11.88,0,0,0,109,125.19h0a11.79,11.79,0,0,0,5.89-1.58c.28-.17,1.6-1,1.93-1.35A70,70,0,0,0,70.12.12ZM54,111.59a5,5,0,0,1-5.49,5A5.15,5.15,0,0,1,44,111.38V97.8a5.28,5.28,0,0,0-1.49-3.68l-11-8.32A5.32,5.32,0,0,1,30,82.12V62.41a5.25,5.25,0,0,0-2.17-4.16,12,12,0,0,1,7.66-21.54A12.09,12.09,0,0,1,46.93,48.45a12,12,0,0,1-4.84,9.83A5.16,5.16,0,0,0,40,62.4V78.09a5.29,5.29,0,0,0,1.48,3.67l11,8.33A5.24,5.24,0,0,1,54,93.76Zm11.27-.21v-49a5.16,5.16,0,0,0-2.13-4.12,12,12,0,0,1-4.84-9.83,12,12,0,0,1,23.95.23,11.91,11.91,0,0,1-4.81,9.57,5.25,5.25,0,0,0-2.17,4.16v49.18a5,5,0,0,1-5.49,5A5.15,5.15,0,0,1,65.23,111.38Z"/></svg>