<svg id="Icon" xmlns="http://www.w3.org/2000/svg" viewBox="0 0 140.25 140.25"><defs><style>.cls-1{fill:#503291;}</style></defs><path class="cls-1" d="M70.13.13a70,70,0,0,0,0,140c1,0,3.32-.06,3.51-.06a10,10,0,1,0,0-19.9c-.41,0-1.94,0-2.31,0A22,22,0,0,1,55.19,82.27a5.78,5.78,0,0,0,1.86-4.18V32.68a13,13,0,0,1,13.66-13A13.24,13.24,0,0,1,83.05,33.06V77.59a5.51,5.51,0,0,0,1.8,4.13,21.91,21.91,0,0,1,5.89,24.68c-.16.4-.62,1.41-.68,1.52l-.33.65-.48.85a14.46,14.46,0,0,0-1.34,6.09A14.62,14.62,0,0,0,113,125.7c.32-.34,1.77-1.68,2.17-2A70,70,0,0,0,70.13.13Z"/><path class="cls-1" d="M76.05,81.9V51.82a3,3,0,0,0-2.26-2.91,16.38,16.38,0,0,0-3.55-.52,13.82,13.82,0,0,0-4,.5,3,3,0,0,0-2.19,2.89V82.25a3.92,3.92,0,0,1-1.77,3.32,15,15,0,0,0-7,13A15,15,0,1,0,78,85.3,3.93,3.93,0,0,1,76.05,81.9Z"/></svg>