<svg id="Icon" xmlns="http://www.w3.org/2000/svg" viewBox="0 0 140.25 140.25"><defs><style>.cls-1{fill:#503291;}</style></defs><rect class="cls-1" x="86.21" y="56.36" width="4" height="10.92" rx="1.37" transform="translate(-17.88 80.48) rotate(-45)"/><rect class="cls-1" x="75.36" y="45.51" width="4" height="10.92" rx="1.37" transform="translate(-13.38 69.64) rotate(-45)"/><path class="cls-1" d="M.26,66s0,1.51.13,2.18A15,15,0,0,0,24.57,77.9c.34-.26,2.05-1.76,2.05-1.76L38.47,64.29,51.64,51.12l.14-.14L62.45,40.31a1,1,0,0,1,1.42,0L68,44.48a1.38,1.38,0,0,0,1.94,0l.89-.9a1.37,1.37,0,0,0,0-1.93L66.7,37.48a1,1,0,0,1,0-1.42L79.76,23A3,3,0,0,1,84,23l2.47,2.47,3.88,3.88a3,3,0,0,1,.84,1.32,1.71,1.71,0,0,1-.5,1.45l-.15.2-.15.2a11.61,11.61,0,0,0,16.09,16.26l.38-.29.38-.29a1.48,1.48,0,0,1,1.55-.15A4.47,4.47,0,0,1,110,49l3.74,3.74,2.33,2.32a3,3,0,0,1,0,4.25L103,72.41a1,1,0,0,1-1.41,0l-4.1-4.1a1.37,1.37,0,0,0-1.93,0l-.9.89a1.38,1.38,0,0,0,0,1.94l4.1,4.09a1,1,0,0,1,0,1.42L88.12,87.33l-.14.13L74.81,100.63,60,115.44a3,3,0,0,1-4.24,0l-2.33-2.32-3.74-3.74a4.55,4.55,0,0,1-1-1.25,1.48,1.48,0,0,1,.15-1.54l.29-.39c.1-.12.2-.25.29-.38A11.61,11.61,0,0,0,33.18,89.74l-.2.14a1.56,1.56,0,0,0-.2.16,1.73,1.73,0,0,1-1.45.49,1.92,1.92,0,0,1-.77-.36c-.17-.13-1.42-1-1.87-1.33A13.77,13.77,0,0,0,9.87,108c.54.82,2.67,3.39,3.08,3.94,34.79,45.68,128.24,31.74,127.16-41.86C141.42-18.44,5.8-20.64.28,63.51.22,64.31.26,66,.26,66Z"/></svg>