<svg id="Icon" xmlns="http://www.w3.org/2000/svg" viewBox="0 0 140.25 140.25"><defs><style>.cls-1{fill:#503291;}</style></defs><path class="cls-1" d="M140.18,67.82a62.4,62.4,0,0,0-1.69-12.67c-.07-.31-.29-1.22-.49-2a17.83,17.83,0,0,0-1.08-2.73,9,9,0,0,0-14.9-.82c-.51.67-4.13,6.56-4.13,6.56L79.7,113.7c-5.5,8.24-18.3,8.39-23.8.15L33.19,76.75C31.8,74.12,30.91,72,31,69.29c.14-5.5,8.57-12.4,8.81-12.58A3.36,3.36,0,0,1,41.51,56a2.42,2.42,0,0,1,1.8,1.11l25.1,40.2L108.08,37.8s3.79-5.57,4.12-6.09A15.11,15.11,0,0,0,108,11.14c-.47-.32-1.72-1-2.84-1.61l-3.68-1.95A68.08,68.08,0,0,0,68.28-.23a70,70,0,1,0,71.9,68.05Z"/></svg>