<svg id="Icon" xmlns="http://www.w3.org/2000/svg" viewBox="0 0 140.25 140.25"><defs><style>.cls-1{fill:#503291;}</style></defs><path class="cls-1" d="M63,33.62h0a11.21,11.21,0,0,0-10.79,11v8.19a1.35,1.35,0,0,0,1.35,1.34H72.4a1.34,1.34,0,0,0,1.35-1.34V44.71A11.28,11.28,0,0,0,63,33.62Z"/><path class="cls-1" d="M64.34,64.42a7.42,7.42,0,0,0-8.81,7.23,7.32,7.32,0,0,0,3.29,6.1.43.43,0,0,1,.2.35V89.38a4,4,0,0,0,5.23,3.71,4,4,0,0,0,2.66-3.87V78.1a.42.42,0,0,1,.19-.35,7.31,7.31,0,0,0,3.15-7.55A7.42,7.42,0,0,0,64.34,64.42Z"/><path class="cls-1" d="M70.12.12A70,70,0,0,0,3.53,91.65c.29.92,1.35,4.16,1.64,4.84A13.29,13.29,0,0,0,30.23,94.7a37.49,37.49,0,0,0,.26-5.65V59.17a5,5,0,0,1,5-5H42.8a.9.9,0,0,0,.9-.9v-9c0-.21,0-.41,0-.62s0-.14,0-.22c0-10.47,8.58-18.16,19.15-18.21h.2c10.58.05,19.15,7.74,19.15,18.21,0,.08,0,.15,0,.22s0,.41,0,.62v9a.9.9,0,0,0,.9.9h7.27a5,5,0,0,1,5,5V76h15.34l-8.6-7c-.28-.23-.34-.47-.13-.73L103.1,67a3.23,3.23,0,0,1,2.16-1.24,3.17,3.17,0,0,1,2.34.84l10.89,8.9a4.61,4.61,0,0,1,0,6.69c-.61.54-10.89,8.89-10.89,8.89a3,3,0,0,1-4.5-.41L102,89.38c-.21-.26-.15-.49.13-.72l8.6-7H95.43V98.71a5,5,0,0,1-3.8,4.82H51.3s-7.58-.07-8.15,0a15.33,15.33,0,0,0-5.36,28.83c.7.36,4,1.75,4.84,2.13A70,70,0,1,0,70.12.12Z"/></svg>