<svg id="Icon" xmlns="http://www.w3.org/2000/svg" viewBox="0 0 140.25 140.25"><defs><style>.cls-1{fill:#503291;}</style></defs><path class="cls-1" d="M70.12.12a70,70,0,0,0-68.58,84c.16.77.77,4,1,4.76A11,11,0,0,0,24,86.21c-.28-3.68-2.42-11.7-3.33-15.26a2,2,0,0,1,1.48-2.48l3.41-.86a2,2,0,0,1,2.06.66l4.25,5.55a3.09,3.09,0,0,0,3.4,1.05L67.1,64.33a3.06,3.06,0,0,0,1.57-4.64c-3.55-5.17-10.36-15.08-14.32-20.86-1.77-2.59-1.57-3.09,1.51-3.82,8.25-1.95,6.11-2.32,12.35,3.12q10,8.73,19.92,17.58a5.12,5.12,0,0,0,4.71,1.13l11.6-3.07c6.65-1.68,13,.57,14.17,5.39s-3.27,9.8-9.92,11.47L97.5,73.32A5.08,5.08,0,0,0,94,76.25C91.68,81.62,85.86,95,82.55,102.44s-1.58,6.33-9.89,8c-3.1.63-3.49.26-3-2.83,1.14-6.82,3.13-18.69,4.19-25a3.06,3.06,0,0,0-3.55-3.52L37.75,84.86a3.07,3.07,0,0,0-2.5,2.53l-1.11,6.9a2.06,2.06,0,0,1-1.5,1.56s-3.88.9-4.37,1a14.39,14.39,0,0,0-6.1,24.46c.63.59,3.43,2.77,4.14,3.34A70,70,0,1,0,70.12.12Z"/></svg>