<svg id="Icon" xmlns="http://www.w3.org/2000/svg" viewBox="0 0 140.25 140.25"><defs><style>.cls-1{fill:#503291;}</style></defs><path class="cls-1" d="M70.12.12a69.87,69.87,0,0,0-23.37,4l0,0a13.17,13.17,0,0,0,4.65,25.49,39.54,39.54,0,0,0,6.18-1.18l2.92-.71a44.45,44.45,0,0,1,20.73.61,5.79,5.79,0,0,1,2.63,1.38A4.24,4.24,0,0,1,85,31.24,4.86,4.86,0,0,1,85,35l-.76,2a1.35,1.35,0,0,1-1.86.75l-.81-.3A35.56,35.56,0,1,0,100.25,53L97,65.75a1.33,1.33,0,0,1-1.31,1.14,1.64,1.64,0,0,1-.37,0l-2.08-.54a4.83,4.83,0,0,1-3.1-2.16,4.77,4.77,0,0,1-.37-3.75l4.59-17.7a6.23,6.23,0,0,1,3.62-4.28c1.69-.79,2.45-1,4.92-.08l17,7.84a4.53,4.53,0,0,1,2.34,6.45l-.9,1.93a1.28,1.28,0,0,1-1.19.79,1.68,1.68,0,0,1-.73-.17l-11-5.12a44.13,44.13,0,0,1-29.41,64c-7.34,1.6-17.83,1-25.16-1.89A44.11,44.11,0,0,1,34.37,44.47c.31-.42,1.57-2.06,1.87-2.48A13.07,13.07,0,0,0,15,26.8c-.36.49-1.79,2.65-2.18,3.21A70,70,0,1,0,70.12.12Z"/></svg>