<svg id="Icon" xmlns="http://www.w3.org/2000/svg" viewBox="0 0 140.25 140.25"><defs><style>.cls-1{fill:#503291;}</style></defs><path class="cls-1" d="M140.12,70.12a70,70,0,1,0-33.25,59.58c.26-.16,1.45-1,1.79-1.27a11.09,11.09,0,0,0,5-9.25c0-7.54-6.62-11.47-13.31-11.44h-33a1,1,0,0,1-.67-1.74c3.75-3.35,11.71-9.89,19.38-13.67a1,1,0,0,0,.17-1.68L63.42,73a.5.5,0,0,0-.75.62l2.52,5.18a5,5,0,0,1,.12,4.09l-8.92,21A2,2,0,0,1,54.05,105l-1.13-.29a2,2,0,0,1-1.44-2.41l5-20.71c.38-1.24.1-2.2-1.14-3.32L50,72.53c-1.66-1.17-3,.07-3.62,2,0,0-8.67,23.58-11.09,29.75A2,2,0,0,1,33,105.5l-1.67-.38a2,2,0,0,1-1.5-2.39c1.49-6.51,6.7-27.93,9.7-41.78a6.22,6.22,0,0,1,1.8-3.68,1,1,0,0,0,0-1.54L32,48.58a2.6,2.6,0,0,1-.69-3.39A2.5,2.5,0,0,1,35,44.54l6.48,5A1,1,0,0,0,43.06,49c1-3.66,2-7.35,2.26-7.9A12.18,12.18,0,0,1,46,40.07a4.63,4.63,0,0,1,2.29-1.7A17.32,17.32,0,0,1,50,37.78c21.79-5,30.71,1.38,23.16,11.88-2.72,3.77-8.63,10.38-11.9,14a1,1,0,0,0,.13,1.46L92.47,89.2a2,2,0,0,0,1.56.4A8.68,8.68,0,0,1,100.9,91a54.47,54.47,0,0,1,5.3,4.13c.52.46,2.43,2.28,3.4,3.24a25.4,25.4,0,0,0,5.16,4.28,15.4,15.4,0,0,0,20.86-7.5c.26-.58.73-2.09,1.15-3.54.38-1.28,1.44-5.23,1.69-6.36A69.37,69.37,0,0,0,140.12,70.12ZM79.84,36.27a6.74,6.74,0,1,1,6.77-6.73A6.76,6.76,0,0,1,79.84,36.27Z"/></svg>