<svg id="Icon" xmlns="http://www.w3.org/2000/svg" viewBox="0 0 140.25 140.25"><defs><style>.cls-1{fill:#503291;}</style></defs><path class="cls-1" d="M70.12,1.12A70,70,0,0,0,5.85,98.86c.43,1,2.26,5.35,3,6.39A12.32,12.32,0,0,0,31,101.61a11.49,11.49,0,0,0,.17-1.14c.05-.6.2-1.45.91-1.44h76.3a1,1,0,0,1,1,1v1.7a6,6,0,0,1-6,6H44.65s-1,0-1.37.07-1.21.11-1.43.15a13.51,13.51,0,0,0-3.14,25.89c.46.18,2.47,1,3,1.22a70,70,0,1,0,28.41-134ZM97.3,52.6a6.56,6.56,0,0,1-2.56,4.46l-2.6,2.2c-.53.44-1,.32-1.5-.26L76.08,41.17V79.49h0v2.89c0,1,0,2.5,0,4.62a3.42,3.42,0,0,1-3.43,3.46h-5A3.42,3.42,0,0,1,64.25,87c.06-3.53.07-5.36.07-5.92V79.49h0V41.17L49.77,59c-.47.58-1,.7-1.49.26l-2.6-2.2a6.17,6.17,0,0,1-.84-9.32L63.29,25.17c1.82-2.21,3.73-2.92,6.92-3a8,8,0,0,1,6.94,3c1.13,1.27,18.43,22.57,18.43,22.57A6.61,6.61,0,0,1,97.3,52.6Z"/></svg>