<svg id="Icon" xmlns="http://www.w3.org/2000/svg" viewBox="0 0 140.25 140.25"><defs><style>.cls-1{fill:#503291;}</style></defs><path class="cls-1" d="M65.9,76.09c-.41-1.35-.86-2.55-2.52-3L57.92,71.7a2.55,2.55,0,0,0-3.05,1.78S49.57,90.8,49,92.81a3.75,3.75,0,0,0,3.43,5h4a3.74,3.74,0,0,0,3.74-3.72V90.21a3.74,3.74,0,0,1,3.74-3.72h2c1.94,0,1.75-1.1,1.65-1.77C67.35,83.25,65.9,76.09,65.9,76.09Z"/><path class="cls-1" d="M138.09,85.11a13.42,13.42,0,0,0-13.42-13.43c-2.93.16-9.51,1.17-9.9,4.52v3.92A3.75,3.75,0,0,1,111,83.84H96.73A3.74,3.74,0,0,0,93,87.56v3.91a3.74,3.74,0,0,1-3.74,3.72H72.34a3.74,3.74,0,0,0-3.74,3.72v3.91a3.74,3.74,0,0,1-3.74,3.72H37.23a3.75,3.75,0,0,1-3.75-3.72v-2.37a3.76,3.76,0,0,1,3.76-3.72h2.33a1.71,1.71,0,0,0,1.94-1.59l3.73-25.49c.14-1,.26-2.33.32-3.53a5.91,5.91,0,0,0-.44-2.29c-1.07-2-3.62-6.84-5.13-10a5.54,5.54,0,0,1,1.14-5.68C42.57,46.58,46.9,41.1,49,39c1.22-1.25,3.94-3,8.45-1,4.9,2.14,3.44,9.3,3.14,10.83L58.25,59.23A3,3,0,0,0,60,62.57L69.75,67a4.61,4.61,0,0,1,2.5,3.77s.3,7.56.62,10.49A4.34,4.34,0,0,0,77,85.4l3,0a3.74,3.74,0,0,0,3.74-3.72V77.75A3.74,3.74,0,0,1,87.54,74h14.29a3.75,3.75,0,0,0,3.75-3.72V66.39c0-2,1-3.7,4.5-3.65.69,0,4.54,0,7,0l2.53,0A15.52,15.52,0,0,0,134.15,42c-.1-.26-.74-1.76-1-2.23a70,70,0,1,0,4.61,48.32A23.94,23.94,0,0,0,138.09,85.11ZM59.23,21.29a5.87,5.87,0,1,1-5.9,5.87A5.89,5.89,0,0,1,59.23,21.29Z"/></svg>