<svg id="Icon" xmlns="http://www.w3.org/2000/svg" viewBox="0 0 140.25 140.25"><defs><style>.cls-1{fill:#503291;}</style></defs><path class="cls-1" d="M70.12.12a70,70,0,0,0-70,70c0,38.66,31.35,69.66,70,70a64.1,64.1,0,0,0,29.48-6.9l2.14-1.1A9.73,9.73,0,0,0,95,114c-.77.19-4.15,1.62-5.13,2a50,50,0,0,1-49.63-5.92,8.86,8.86,0,0,1-3.53-6.78h0a97.89,97.89,0,0,1,.11-11.1c1-11.36,8.85-18.89,18.88-22.5a5.82,5.82,0,0,1,4.82.43,20.16,20.16,0,0,0,10,2.75,18.81,18.81,0,0,0,9.67-2.62,5.93,5.93,0,0,1,5-.51C96.78,74,105.69,83.39,105.1,98.16c0,.78,0,3.64,0,4.31a11.76,11.76,0,0,0,11.82,11.83c8.89-.13,12.28-6.43,12.51-6.78,6.8-10.72,10.29-23.68,10.73-37.4C141.36,32.26,108.78.12,70.12.12Zm15.3,50.66C75.63,76.7,53.67,63.26,53,40.86,53.75,14,96.9,20,85.42,50.78Z"/></svg>