<svg id="Icon" xmlns="http://www.w3.org/2000/svg" viewBox="0 0 140.25 140.25"><defs><style>.cls-1{fill:#503291;}</style></defs><path class="cls-1" d="M70.12.12a70,70,0,0,0-70,70c0,38.66,31.35,69.66,70,70a64.1,64.1,0,0,0,29.48-6.9l2.14-1.1A9.73,9.73,0,0,0,95,114c-.77.19-4.15,1.62-5.13,2a50,50,0,0,1-49.63-5.92,8.86,8.86,0,0,1-3.53-6.78h0a97.89,97.89,0,0,1,.11-11.1c1-11.36,8.85-18.89,18.88-22.5a5.82,5.82,0,0,1,4.82.43,20.16,20.16,0,0,0,10,2.75,18.81,18.81,0,0,0,9.67-2.62,5.93,5.93,0,0,1,5-.51C96.78,74,105.69,83.39,105.1,98.16c0,.78,0,3.64,0,4.31a11.76,11.76,0,0,0,11.82,11.83c8.89-.13,12.28-6.43,12.51-6.78,6.8-10.72,10.29-23.68,10.73-37.4C141.36,32.26,108.78.12,70.12.12ZM93.49,59.44a1.78,1.78,0,0,1-.64,1.28,14.33,14.33,0,0,1-1.21.79c-2.51,1.48-6.42,1-9.25,1.23a1.18,1.18,0,0,1-1-2,30.16,30.16,0,0,0,6.29-11.85,2.88,2.88,0,0,1,.78-1.22c2-1.91,3.6-7.63.19-7.12-.44.08-1.13.95-1.65.69-1.5-2.47-5-2.47-6.13-5.41-1-4.68-4.08-11.67-9.85-7.36-1.64,1.14-5,3.53-7.42,3.53C55.46,29.3,58.46,40.73,52,40.63c-3.35-.25-1.89,5.48.33,7a2.62,2.62,0,0,1,1,1.39c1.38,4.35,3.32,8.81,6.21,12.1,1.88,3.6-8,1.47-9.07,1.27a4.24,4.24,0,0,1-2.89-2.23,1.3,1.3,0,0,1-.14-.61V34.93c.13-9.79,8.06-17.69,18.56-18.42a18.41,18.41,0,0,1,13.16,4.34h0a14.85,14.85,0,0,1,14.3,14.64h0Z"/></svg>