<svg id="Icon" xmlns="http://www.w3.org/2000/svg" viewBox="0 0 140.25 140.25"><defs><style>.cls-1{fill:#503291;}</style></defs><path class="cls-1" d="M58,63.76a3.26,3.26,0,0,0-2.59-.92H53.31a.5.5,0,0,0-.47.46v6.22a4.5,4.5,0,0,1-.47,2.08l-1.88,3a2.74,2.74,0,0,1-2.58,1.62,1.76,1.76,0,0,1-1.42-.46,2.79,2.79,0,0,1-1.17-1.16l-1.88-3.22a2.61,2.61,0,0,1-.71-1.85V66.07a2.63,2.63,0,0,0-.94-2.31,2.75,2.75,0,0,0-2.35-.92H37.32c-.47,0-.7.23-.7.46v4.84a14.12,14.12,0,0,0,2.58,7.61l4.47,6.91a3.65,3.65,0,0,0,1.65,1.61,4.28,4.28,0,0,0,2.59.69,3.56,3.56,0,0,0,2.35-.69,4.18,4.18,0,0,0,1.88-1.61l4.23-6.91a10.91,10.91,0,0,0,1.88-3.69A10.59,10.59,0,0,0,59,68.14V66.07A2.66,2.66,0,0,0,58,63.76Z"/><path class="cls-1" d="M71.12,62.84H65.05c-.23,0-.46,0-.46.46v4.61a.49.49,0,0,0,.46.46,1.23,1.23,0,0,1,1.4,1.38V79h-1.4c-.23,0-.46,0-.46.46v1.85a2.65,2.65,0,0,0,.93,2.3,2.73,2.73,0,0,0,2.33.92h6.08c.46,0,.46-.23.46-.46V79.42c0-.46,0-.46-.46-.46H72.52V69.75a1.23,1.23,0,0,1,1.41-1.38c.46,0,.46-.23.46-.46V66.06a3.38,3.38,0,0,0-.7-2.3A3.54,3.54,0,0,0,71.12,62.84Z"/><path class="cls-1" d="M101.61,68.14a12.73,12.73,0,0,0-4.69-3.92,16.29,16.29,0,0,0-6.79-1.38H81.69c-.47,0-.71,0-.71.46v18a3.48,3.48,0,0,0,.94,2.3,3.56,3.56,0,0,0,2.58.92h2.11c.47,0,.47-.23.47-.46V79a6.83,6.83,0,0,0,3.28,1.85,11.88,11.88,0,0,0,3.75.69,9.92,9.92,0,0,0,4.69-.93,10.35,10.35,0,0,0,3.52-2.76,7.87,7.87,0,0,0,1.17-4.15A9.2,9.2,0,0,0,101.61,68.14Zm-5.39,7.14a3.14,3.14,0,0,1-2.34.69,8.22,8.22,0,0,1-3-.69,7.18,7.18,0,0,1-2.58-2.08,3.65,3.65,0,0,1-1.17-2.3A2,2,0,0,1,88,69.06a4,4,0,0,1,2.34-.69,6.61,6.61,0,0,1,3,.69,8.41,8.41,0,0,1,2.81,1.84,4.26,4.26,0,0,1,.94,2.53A1.87,1.87,0,0,1,96.22,75.28Z"/><path class="cls-1" d="M70.12.12A70,70,0,0,0,2,86.36c.24,1,1.08,4.4,1.31,5.07A11.94,11.94,0,0,0,26.27,90c.19-.84.28-5.54.28-5.54V48.15A6.16,6.16,0,0,1,32.7,42H55.54a2,2,0,0,1,2,2v2.16A6.52,6.52,0,0,0,64,52.77h12.2a6.51,6.51,0,0,0,6.41-6.61V44a2,2,0,0,1,2-2H107.4a6.15,6.15,0,0,1,6.15,6.15V92.88A6.15,6.15,0,0,1,107.4,99H37.7s-5.09,0-5.68.11a14,14,0,0,0-7.21,24.5c.56.47,3.51,2.63,4.4,3.27A70,70,0,1,0,70.12.12Zm7.44,46a1.55,1.55,0,0,1-1.41,1.61H64a1.55,1.55,0,0,1-1.41-1.61V37.39a7.51,7.51,0,0,1,15,0Z"/></svg>