<svg id="Icon" xmlns="http://www.w3.org/2000/svg" viewBox="0 0 140 140"><defs><style>.cls-1{fill:#503291;}</style></defs><path class="cls-1" d="M61.13,87.26a2.4,2.4,0,0,0-1.9-.67H57.67a.37.37,0,0,0-.34.34V91.5A3.38,3.38,0,0,1,57,93l-1.38,2.2a2,2,0,0,1-1.91,1.19,1.3,1.3,0,0,1-1-.34,2.07,2.07,0,0,1-.86-.85l-1.38-2.37a1.9,1.9,0,0,1-.52-1.36V89a2,2,0,0,0-.7-1.7,2,2,0,0,0-1.73-.67H45.91c-.35,0-.52.17-.52.34v3.56a10.33,10.33,0,0,0,1.9,5.59l3.29,5.09a2.67,2.67,0,0,0,1.21,1.19,3.22,3.22,0,0,0,1.9.5,2.64,2.64,0,0,0,1.73-.5,3.09,3.09,0,0,0,1.39-1.19l3.11-5.09a8.22,8.22,0,0,0,1.39-2.71,7.93,7.93,0,0,0,.52-2.88V89A2,2,0,0,0,61.13,87.26Z"/><path class="cls-1" d="M70.77,86.59H66.31c-.17,0-.35,0-.35.34v3.38a.38.38,0,0,0,.35.34.9.9,0,0,1,1,1v6.78h-1c-.17,0-.35,0-.35.34v1.35a2,2,0,0,0,.69,1.7,2,2,0,0,0,1.72.68h4.47c.34,0,.34-.17.34-.34V98.79c0-.34,0-.34-.34-.34h-1V91.67a.9.9,0,0,1,1-1c.34,0,.34-.17.34-.34V89a2.49,2.49,0,0,0-.52-1.7A2.62,2.62,0,0,0,70.77,86.59Z"/><path class="cls-1" d="M93.21,90.48a9.61,9.61,0,0,0-3.45-2.88,12.15,12.15,0,0,0-5-1h-6.2c-.35,0-.52,0-.52.34v13.21a2.55,2.55,0,0,0,.69,1.7,2.63,2.63,0,0,0,1.9.68h1.55c.34,0,.34-.17.34-.34V98.45a4.9,4.9,0,0,0,2.42,1.35,8.63,8.63,0,0,0,2.76.51,7.37,7.37,0,0,0,3.45-.68,7.49,7.49,0,0,0,2.58-2,5.75,5.75,0,0,0,.87-3A6.86,6.86,0,0,0,93.21,90.48Zm-4,5.26a2.32,2.32,0,0,1-1.73.51,6,6,0,0,1-2.24-.51,5.41,5.41,0,0,1-1.9-1.53,2.7,2.7,0,0,1-.86-1.69,1.52,1.52,0,0,1,.69-1.36,3,3,0,0,1,1.73-.51,4.83,4.83,0,0,1,2.24.51,6.26,6.26,0,0,1,2.07,1.36,3.09,3.09,0,0,1,.69,1.86A1.37,1.37,0,0,1,89.24,95.74Z"/><path class="cls-1" d="M70,0A70,70,0,0,0,0,70c0,38.66,31.34,69.65,70,70a64.16,64.16,0,0,0,29.47-6.91l2.14-1.1a9.72,9.72,0,0,0-4.49-18.35,9.57,9.57,0,0,0-2.29.27c-.78.19-4.16,1.62-5.13,2A49.94,49.94,0,0,1,40,110a8.82,8.82,0,0,1-3.52-6.78h0a98.22,98.22,0,0,1,.1-11.1c1-11.36,8.85-18.89,18.88-22.5a5.84,5.84,0,0,1,4.83.43,20.16,20.16,0,0,0,10.05,2.75A18.8,18.8,0,0,0,80,70.2a6,6,0,0,1,5-.51C96.62,73.87,105.54,83.26,105,98c0,.78,0,3.64,0,4.31a11.76,11.76,0,0,0,11.83,11.83c8.89-.13,12.28-6.43,12.5-6.78C136,96.67,139.52,83.71,140,70,141.2,32.13,108.63,0,70,0ZM85.26,50.65c-9.78,25.92-31.75,12.48-32.39-9.92C53.59,13.83,96.74,19.89,85.26,50.65Z"/></svg>