<svg id="Icon" xmlns="http://www.w3.org/2000/svg" viewBox="0 0 140.25 140.25"><defs><style>.cls-1{fill:#503291;}</style></defs><path class="cls-1" d="M70.12.12a70,70,0,0,0-25,135.37c.59.23,3.46,1.38,4.33,1.64a14.41,14.41,0,0,0,4.07.59c7.93,0,13.36-6.42,13.36-14.35a14.55,14.55,0,0,0-8.75-13.27c-4.35-2.25-6.91-5.85-9.09-10.25l-15.48,2.92a3.81,3.81,0,0,1-.75.07A4,4,0,0,1,32,94.91l14.72-2.77a23.8,23.8,0,0,1-.13-2.4V75.16H32.12a4,4,0,1,1,0-8H46.63V63.85a3,3,0,0,1,3-3H90.77a3,3,0,0,1,3,3v3.31h14.64a4,4,0,0,1,0,8H93.77V89.74a23.8,23.8,0,0,1-.13,2.4l14.72,2.77a4,4,0,0,1-.74,7.93,3.78,3.78,0,0,1-.74-.07L91.39,99.85c-2.23,4.52-4.92,8.19-9.44,10.43a14.35,14.35,0,0,0-8.82,13.2c0,7.86,5.38,14.24,13.25,14.24a27.53,27.53,0,0,0,5.32-1v0l1.78-.61A70,70,0,0,0,70.12.12Zm38.24,45.22L93.64,48.11a23.8,23.8,0,0,1,.13,2.4,2.34,2.34,0,0,1-2.34,2.34H49a2.34,2.34,0,0,1-2.34-2.34,23.8,23.8,0,0,1,.13-2.4L32,45.34a4,4,0,0,1,1.48-7.86L49,40.4A23,23,0,0,1,69.55,27.59h1.29A23,23,0,0,1,91.39,40.4l15.49-2.92a4,4,0,0,1,1.48,7.86Z"/></svg>