<svg id="Icon" xmlns="http://www.w3.org/2000/svg" viewBox="0 0 140.25 140.25"><defs><style>.cls-1{fill:#503291;}</style></defs><path class="cls-1" d="M140.12,70.12a70,70,0,1,0-36.65,61.55c.74-.4,3.74-2,4.41-2.55A10.1,10.1,0,0,0,101.7,111a10.19,10.19,0,0,0-3.37.58c-.46.16-3,1.58-3.22,1.73a50,50,0,0,1-61.5-8.94,6,6,0,0,1,1-9,54.44,54.44,0,0,1,12-6,9,9,0,0,1,7.52.63,32,32,0,0,0,15.94,4.39,29.71,29.71,0,0,0,15.25-4.14,9.37,9.37,0,0,1,8-.79,55.38,55.38,0,0,1,12,6,5.85,5.85,0,0,1,2.29,3,23.94,23.94,0,0,1,.29,2.81A12,12,0,0,0,130.47,106c.26-.48,1.1-2.28,1.31-2.66A69.71,69.71,0,0,0,140.12,70.12ZM91.05,26.54H48.54C58.84,13.3,80.53,13.94,91.05,26.54ZM46.25,60.87H60.52a8,8,0,0,0,7.16-4.43,1.48,1.48,0,0,1,1.32-.8h1.91a1.49,1.49,0,0,1,1.32.8,8,8,0,0,0,7.16,4.43h14C80.5,92.86,55.36,84.31,46.25,60.87Zm53.39-8a3,3,0,0,1-3,3H79.39a3,3,0,0,1-2.82-2l-.84-2.29a1.5,1.5,0,0,0-1.41-1H65.59a1.5,1.5,0,0,0-1.41,1l-.84,2.29a3,3,0,0,1-2.82,2H43.27a3,3,0,0,1-3-3V34.54a3,3,0,0,1,3-3H96.64a3,3,0,0,1,3,3Z"/></svg>