<svg id="Icon" xmlns="http://www.w3.org/2000/svg" viewBox="0 0 140.25 140.25"><defs><style>.cls-1{fill:#503291;}</style></defs><path class="cls-1" d="M128.77,31.92l0,0c-.5-.77-1-1.52-1.55-2.26-.2-.29-.4-.58-.61-.86-.34-.48-.71-.94-1.07-1.41s-.78-1-1.19-1.52l-.61-.72c-.56-.68-1.13-1.35-1.73-2l-.19-.21A70,70,0,0,0,13.18,110.84a63.59,63.59,0,0,0,5.11,5.75q1,.81,2,1.59c16.47,12.43,27.94-2.23,22.05-9.84a20.23,20.23,0,0,1-2.19-3.54c-4-8.12-3.08-20.48-3.08-33.42V53.14c0-9.1-2-21.36,5.51-21.5s5.73,10.52,5.73,19.17c0,3.65-1.14,14.67,2,14.49,2.25-.14,1.77-4.62,1.77-8.88v-22c0-3.69-.53-8.33.22-10.75,1.08-3.55,6.2-5.35,9.26-2.34,3.47,3.42,1.76,22.7,1.76,31.08,0,3.28-.84,9.2,2,8.88,2-.23,1.55-6,1.55-10V39.35c0-10-2.62-25,6.83-23.37,5.46.93,4.41,7.25,4.41,14.49v22c0,3.68-.6,9,2,8.88,3-.14,1.77-12.51,1.77-15.89,0-9.2-2-21.7,5.51-21.73,5.92,0,5.73,5.43,5.73,12.85V78.62c4.7-4.21,6-12.41,11.46-14,5-1.49,8.72,1.68,8.82,6.54.06,3.15-2.32,6.38-3.75,8.65L95,102.93c-6.18,9.83-15.18,15.55-29.89,15.6s-15.6,19,.26,21.18c1.36.19,4.52.41,4.73.41,1.46,0,2.89,0,4.32-.13a69.75,69.75,0,0,0,45.11-20.3l.52-.54c.27-.27.53-.55.79-.83a74.52,74.52,0,0,0,7.31-9.23A70.2,70.2,0,0,0,128.77,31.92Z"/></svg>