<svg id="Icon" xmlns="http://www.w3.org/2000/svg" viewBox="0 0 140.25 140.25"><defs><style>.cls-1{fill:#503291;}</style></defs><path class="cls-1" d="M78.68,73.05c.35-.34.24-.67-.24-.74l-4.52-.65a1.86,1.86,0,0,1-1.26-.92l-2-4.08c-.22-.43-.57-.43-.79,0l-2,4.08a1.9,1.9,0,0,1-1.27.92l-4.51.66c-.48.07-.59.4-.24.74l3.55,3.45a1.82,1.82,0,0,1,.24,1.33l-.72,4.5c-.08.48.21.68.64.45l4-2.16a1.89,1.89,0,0,1,1.56,0l.18.1v0l3.8,2c.43.23.72,0,.64-.46l-.78-4.48a1.9,1.9,0,0,1,.49-1.49Z"/><path class="cls-1" d="M140.12,70.12a70,70,0,1,0-81.73,69c.57.1,4.27.35,4.55.33a13.26,13.26,0,0,0,3.27-25.84c-.36-.12-1.75-.64-2.06-.79l-1-.52c-.57-.3-.77-1.71-.78-2.6-.06-6.37.07-12.73-.11-19.09a10.74,10.74,0,0,0-1.67-5C55.86,78.91,51,72.35,46.11,65.74l0,0A1.7,1.7,0,0,1,47.47,63H92.6A1.7,1.7,0,0,1,94,65.72C89,72.45,84.24,78.92,79.62,85.5a9.75,9.75,0,0,0-1.76,5.43c-.15,7.88-.11,15.78-.09,24,0,.37.18,2.55.21,3a17.26,17.26,0,0,0,17.21,16,16.72,16.72,0,0,0,4.09-.5,23.83,23.83,0,0,0,2.5-.81l.51-.22a17.44,17.44,0,0,0,2.57-1.44A69.93,69.93,0,0,0,140.12,70.12ZM68.86,20.79H69c1.87.17,4,4.11,5.28,9.91-1.75-.1-3.48-.16-5.16-.16-.72,0-2.69,0-5.32.16C65.09,24.83,67.29,20.79,68.86,20.79Zm-6.21.14A33.93,33.93,0,0,0,59.24,31a77.33,77.33,0,0,0-9.7,1.48A21.4,21.4,0,0,1,62.65,20.93Zm-15,20.37A21.79,21.79,0,0,1,48,37.48a62.72,62.72,0,0,1,10.56-2,50.24,50.24,0,0,0-.36,5.7,56.48,56.48,0,0,0,.3,5.79A67.16,67.16,0,0,1,48,44.87,22,22,0,0,1,47.63,41.3Zm7.52,16.23a21.42,21.42,0,0,1-5.75-7.74l1,.25a80.28,80.28,0,0,0,8.71,1.45,39.52,39.52,0,0,0,1.56,6Zm17.17,0h-7a32.15,32.15,0,0,1-1.69-5.65c1.82.11,3.63.18,5.43.18.3,0,2.25,0,5-.17A34.59,34.59,0,0,1,72.32,57.53Zm2.58-10c-1.88.12-3.83.19-5.83.19s-4.16-.09-6.14-.23a54.15,54.15,0,0,1-.36-6.24,49.77,49.77,0,0,1,.39-6.1c2-.12,4-.19,6.11-.19s4,.08,5.9.21a53.5,53.5,0,0,1,.35,6.08A47.07,47.07,0,0,1,74.9,47.49ZM88.46,32.73a77.86,77.86,0,0,0-9.67-1.64,43,43,0,0,0-1.42-5.56,23.82,23.82,0,0,0-2-4.56A21.38,21.38,0,0,1,88.46,32.73Zm-5.72,24.8H77c0-.16.11-.3.16-.46a43.39,43.39,0,0,0,1.48-5.53A77.18,77.18,0,0,0,88.39,50,21.38,21.38,0,0,1,82.74,57.53Zm7.17-12.47a62.71,62.71,0,0,1-10.54,2,52.55,52.55,0,0,0,.34-5.88c0-1.9-.11-3.79-.29-5.64a66,66,0,0,1,10.51,2.09,20.88,20.88,0,0,1,.33,3.64A21.2,21.2,0,0,1,89.91,45.06Z"/></svg>