<svg id="Icon" xmlns="http://www.w3.org/2000/svg" viewBox="0 0 140.25 140.25"><defs><style>.cls-1{fill:#503291;}</style></defs><path class="cls-1" d="M98.83,47.57A79.09,79.09,0,0,1,72.79,36l-1.72-1.16a2,2,0,0,0-2.27,0c-.47.33-1,.66-1.46,1A79.06,79.06,0,0,1,41,47.57a2,2,0,0,0-1.56,1.94V66.56A44.14,44.14,0,0,0,65.69,107c1,.47,2.13.9,3.23,1.28a2.92,2.92,0,0,0,2,0c1-.39,2.67-1,3.62-1.44a44.13,44.13,0,0,0,25.83-40.24v-17A2,2,0,0,0,98.83,47.57ZM87.74,61.92a70.87,70.87,0,0,0-8.83-1.5,37.51,37.51,0,0,0-1.29-5.07,22.41,22.41,0,0,0-1.84-4.17A19.5,19.5,0,0,1,87.74,61.92ZM69.86,51h.07c1.72.16,3.67,3.75,4.82,9-1.59-.1-3.18-.15-4.71-.15-.65,0-2.45,0-4.85.14C66.41,54.71,68.42,51,69.86,51Zm-5.67.13a30.74,30.74,0,0,0-3.12,9.21,70.92,70.92,0,0,0-8.85,1.36A19.5,19.5,0,0,1,64.19,51.15ZM50.48,69.74a19,19,0,0,1,.33-3.48,57.86,57.86,0,0,1,9.63-1.81,48.11,48.11,0,0,0-.33,5.21,52,52,0,0,0,.28,5.28A62.43,62.43,0,0,1,50.77,73,19.47,19.47,0,0,1,50.48,69.74Zm1.61,7.75.92.23A72.41,72.41,0,0,0,61,79a29.1,29.1,0,0,0,3.1,9.25A19.56,19.56,0,0,1,52.09,77.49ZM70,88.46h0c-1.8-.12-3.72-3.75-4.84-9.06,1.66.1,3.32.16,5,.16.28,0,2.06,0,4.6-.15C73.39,84.76,71.38,88.46,70,88.46ZM70,75.56c-1.91,0-3.79-.08-5.6-.21a49.22,49.22,0,0,1-.33-5.69,45.2,45.2,0,0,1,.36-5.57c1.8-.11,3.66-.17,5.57-.17s3.65.07,5.39.19a48.93,48.93,0,0,1,.32,5.55,44,44,0,0,1-.38,5.73C73.65,75.5,71.87,75.56,70,75.56Zm5.57,12.79a24.15,24.15,0,0,0,1.85-4.22,41.68,41.68,0,0,0,1.35-5,72.13,72.13,0,0,0,8.86-1.39A19.51,19.51,0,0,1,75.61,88.35ZM89.07,73.17A57.1,57.1,0,0,1,79.44,75a48.16,48.16,0,0,0,.31-5.36,51.47,51.47,0,0,0-.26-5.15,60,60,0,0,1,9.59,1.91,19.06,19.06,0,0,1,.31,3.32A19.45,19.45,0,0,1,89.07,73.17Z"/><path class="cls-1" d="M136.53,50a14.32,14.32,0,0,0-26.15,6,30.28,30.28,0,0,0,0,3.81v6.79A54.12,54.12,0,0,1,73,118.11l-2.17.72a3.14,3.14,0,0,1-1.87,0l-2.18-.72A54.12,54.12,0,0,1,29.47,66.56V42.27a3,3,0,0,1,2.37-2.93l5.52-1.19A71,71,0,0,0,64.15,25.89l4-2.84a3,3,0,0,1,3.45,0l4,2.81c6.62,4.62,14.22,9.22,24.94,11.86A48.9,48.9,0,0,0,107,38.9a12.8,12.8,0,0,0,7.57-23.14c-.56-.42-2.77-1.85-3.27-2.22a70.14,70.14,0,1,0,28.12,46.73c-.11-.74-.51-3.21-.93-5.25A25.36,25.36,0,0,0,136.53,50Z"/></svg>