<svg id="Icon" xmlns="http://www.w3.org/2000/svg" viewBox="0 0 140.25 140.25"><defs><style>.cls-1{fill:#503291;}</style></defs><path class="cls-1" d="M140.22,70.32A70,70,0,1,0,40.76,133.8a14.29,14.29,0,0,0,22-10.76c0-.4.06-3.48.06-3.48l.92-35.77a5.92,5.92,0,0,1,1.33-3.62c1.27-1.57,2.59-3.18,4-4.81a3.08,3.08,0,0,1,1.48-1c1.22-.35,2.46-.65,3.71-.9a1,1,0,0,1,1.19,1l1.18,46s0,2.67.09,3.15a14.3,14.3,0,0,0,21.12,11.07A70,70,0,0,0,140.22,70.32Zm-35.89-5.76c-5.45,2.51-21.87,3.32-32.06,3.7-3.82-.22-5,.62-6.9,3.83C59.76,79,47.9,94,43.1,96.37c-1.35.68-2,.12-1.82-1.75,1.2-5.9,10.29-19.71,16-28.15,2.52-3.32,2.1-5.08.43-8.19-4-8.38-11.75-24.35-11.87-29.5,0-1.51.76-1.86,2.37-.89C52.94,31.45,61.31,45.21,66.5,54l.77,1.31A5,5,0,0,0,71.8,58.4l0,0,1.86.09c9.42.47,26.5,1.25,31,3.55C106,62.75,106,63.6,104.33,64.56Z"/></svg>