<svg id="Icon" xmlns="http://www.w3.org/2000/svg" viewBox="0 0 140.25 140.25"><defs><style>.cls-1{fill:#503291;}</style></defs><path class="cls-1" d="M70.11.34A70,70,0,0,0,11,107.73c.07.12.25.41.43.73s.89,1.34.91,1.33c2.85,3.66,6,9.68,11.55,9.25a10.5,10.5,0,0,0,10.5-10.5c-.09-1.69-.24-3.6-1.45-4.84-1.44-1.59-2.82-3.51-4.08-5.09-6.61-8.22-4.8-16.94-4.94-24,0-10.75,2.57-16,10.66-18.19C43,54.13,47.89,63,50.66,66.78c1.07,1.49,2.58,3.59,4.67,2.64C58.49,68,64,65.1,66.16,64.28c4.91-1.83,7.83,4.37,4,7.52a76.89,76.89,0,0,1-13.26,8c-3.19,1.5-6.29-.31-8-1.32s-3.41-.88-3.72,1.73c-.17,1.38-.94,21.81-1.24,29.83-.07,1.66-.41,5.46-.41,6.68,0,12,9.44,21.85,21.6,23.29.61.08,2.82.27,3.28.28l1.66,0a70,70,0,1,0,0-140ZM103.63,79a6.94,6.94,0,1,1-7.52,6.32A6.92,6.92,0,0,1,103.63,79Zm-66-29.24a8,8,0,1,1,8-8A8,8,0,0,1,37.58,49.77Zm26.83,9.82c-1.56.58-4.06,1.82-6.71,3.13l-1.27.63a2,2,0,0,1-2.53-.66l-.07-.09a34.81,34.81,0,0,0-7.26-8.25,2,2,0,0,1-.18-3v0c.3-.28.59-.57.87-.88l.06-.07c.26-.29.51-.6.74-.91l.1-.14a9.61,9.61,0,0,0,.59-.92l.13-.2c.16-.29.32-.6.46-.91,0-.09.1-.18.14-.27.13-.3.24-.6.35-.91a3.4,3.4,0,0,0,.12-.34,9.21,9.21,0,0,0,.25-.9c0-.13.07-.26.1-.39.07-.31.11-.63.15-1,0-.13,0-.26.06-.38a12.44,12.44,0,0,0,.08-1.37c0-.44,0-.87-.07-1.29A13,13,0,0,0,38.12,28.75a.5.5,0,0,1-.49-.53c.11-1.07,1.34-1.33,2.41-1.43.19,0,1.14,0,1.14,0H96.9a6,6,0,0,1,2.33.47,6.22,6.22,0,0,1,2.3,1.72,6,6,0,0,1,1.37,3.81V62.36a6,6,0,0,1-6,6H78.77a2,2,0,0,1-2-1.66,9.2,9.2,0,0,0-1.15-3.24A9.08,9.08,0,0,0,64.41,59.59Zm1.41,25.74a6.94,6.94,0,1,1,6.3,7.5A7,7,0,0,1,65.82,85.33Zm19.41,30.61A3,3,0,0,1,83,118.65l-1,.26-.13,0c-.89.22-1.78.41-2.69.57l-.37.07c-.83.14-1.68.27-2.53.38l-.22,0c-.87.1-1.76.18-2.65.24l-.59,0c-.9,0-1.8.08-2.71.08-.74,0-1.48,0-2.22,0l-.47,0c-.68,0-1.35-.08-2-.15h-.13q-1.14-.1-2.25-.27a3,3,0,0,1-2.56-2.76,68.38,68.38,0,0,1-.24-9.1c1.14-12.85,25.89-12.49,25.3,2.18C85.44,112.24,85.34,114.16,85.23,115.94Zm6.26-.53c-1.09.12-.94-1.39-1-1.73a43.46,43.46,0,0,1,0-5.71c.73-8.23,11.13-11,18.37-8.13a1,1,0,0,1,.42,1.56A50.27,50.27,0,0,1,92.47,115,3.15,3.15,0,0,1,91.49,115.41Z"/><path class="cls-1" d="M91.35,33a3.64,3.64,0,0,0-2.63,2.27,3.54,3.54,0,0,0-.16,2.09,1.19,1.19,0,0,1-.31,1.09l-8.51,8.69a1.24,1.24,0,0,1-1,.34,2.17,2.17,0,0,0-.36,0,3.39,3.39,0,0,0-.91.12,1.22,1.22,0,0,1-1.14-.28L73,44.14a1.22,1.22,0,0,1-.34-1.08,3.29,3.29,0,0,0-.84-2.72,3.57,3.57,0,0,0-6.44,2.22,3.39,3.39,0,0,0,.06.64,1.15,1.15,0,0,1-.32,1l-3,3a1.23,1.23,0,0,1-1.1.32,3.37,3.37,0,0,0-2.47.53,3.7,3.7,0,0,0-1.77,2.78A3.61,3.61,0,0,0,63.49,53,3.31,3.31,0,0,0,64,50.54a1.23,1.23,0,0,1,.32-1.1l3-3a1.18,1.18,0,0,1,1.06-.32,3.21,3.21,0,0,0,.63.06,3.35,3.35,0,0,0,.71-.07,1.21,1.21,0,0,1,1.09.29l3.57,3.37a1.26,1.26,0,0,1,.35,1,3.59,3.59,0,0,0,1.41,3,3.84,3.84,0,0,0,2.27.94A3.66,3.66,0,0,0,82,51.14a4,4,0,0,0-.1-.86,1.21,1.21,0,0,1,.29-1.14l8.41-8.57a1.21,1.21,0,0,1,1.06-.34,3.41,3.41,0,0,0,3-1.15,3.49,3.49,0,0,0,1.14-2.52A3.68,3.68,0,0,0,91.35,33Z"/></svg>